<?xml version="1.0" encoding="UTF-8"?>
<svg xmlns="http://www.w3.org/2000/svg" xmlns:xlink="http://www.w3.org/1999/xlink" version="1.2" >
<font id="Neue Regular Italic">
<font-face  font-family="Neue" units-per-em="1000" ascent="800" descent="-200" font-style="italic" font-weight="400" font-stretch="normal" slope="-8" cap-height="800" x-height="556" underline-position="-75" underline-thickness="50" />
<missing-glyph  horiz-adv-x="280" d="" />
<glyph glyph-name="NULL" d="" />
<glyph glyph-name="CR" unicode="&#xd;" horiz-adv-x="250" d="" />
<glyph glyph-name="space" unicode="&#x20;" horiz-adv-x="280" d="" />
<glyph glyph-name="exclam" unicode="&#x21;" horiz-adv-x="326" d="M106 280 L204 280 L238 486 L282 800 L174 800 L130 486 L106 280 Z M62 0 L170 0 L192 153 L84 153 L62 0 Z " />
<glyph glyph-name="quotedbl" unicode="&#x22;" horiz-adv-x="477" d="M246 832 L140 832 L104 532 L196 532 L246 832 Z M476 832 L370 832 L333 532 L425 532 L476 832 Z " />
<glyph glyph-name="numbersign" unicode="&#x23;" horiz-adv-x="870" d="M468 0 L566 0 L611 179 L787 179 L799 261 L632 261 L703 540 L838 540 L849 622 L724 622 L769 800 L670 800 L625 622 L374 622 L419 800 L321 800 L276 622 L101 622 L90 540 L255 540 L184 261 L51 261 L39 179 L164 179 L119 0 L217 0 L262 179 L513 179 L468 0 Z M353 540 L604 540 L533 261 L282 261 L353 540 Z " />
<glyph glyph-name="dollar" unicode="&#x24;" horiz-adv-x="631" d="M212 -92 L296 -92 L307 -12 C463 7 571 110 571 241 C571 356 469 399 370 436 L410 720 C481 715 551 692 593 664 L626 757 C580 787 506 811 423 815 L435 895 L351 895 L339 812 C204 794 88 711 88 564 C88 450 183 406 277 370 L236 80 C162 83 98 100 41 130 L13 35 C67 8 143 -11 223 -15 L212 -92 Z M466 224 C466 144 392 99 320 84 L356 340 C418 314 466 283 466 224 L466 224 Z M188 579 C188 653 249 701 326 716 L291 466 C232 492 188 523 188 579 L188 579 Z " />
<glyph glyph-name="percent" unicode="&#x25;" horiz-adv-x="1163" d="M208 0 L303 0 L969 799 L875 799 L208 0 Z M160 541 C160 636 202 742 317 742 C407 742 434 688 434 618 C434 461 357 410 272 410 C199 410 160 461 160 541 L160 541 Z M328 815 C160 815 73 695 73 531 C73 419 142 337 261 337 C435 337 523 444 523 625 C523 733 464 815 328 815 L328 815 Z M746 187 C746 282 787 388 902 388 C992 388 1019 334 1019 264 C1019 108 942 57 858 57 C784 57 746 107 746 187 L746 187 Z M914 461 C746 461 658 341 658 177 C658 66 724 -16 846 -16 C1019 -16 1108 91 1108 271 C1108 378 1049 461 914 461 L914 461 Z " />
<glyph glyph-name="ampersand" unicode="&#x26;" horiz-adv-x="837" d="M679 387 C650 303 600 224 538 166 C450 220 375 297 326 378 C477 427 657 463 657 645 C657 735 585 816 459 816 C284 816 179 704 179 551 C179 507 189 460 207 413 C110 373 31 310 31 179 C31 50 136 -16 280 -16 C365 -16 452 11 529 61 C602 23 681 0 760 0 L771 87 C717 89 662 104 610 127 C669 184 717 258 747 344 L679 387 Z M269 556 C269 675 346 738 441 738 C512 738 566 702 566 629 C566 512 429 486 293 444 C278 482 269 520 269 556 L269 556 Z M307 64 C201 64 127 102 127 194 C127 270 174 313 240 344 C290 255 366 169 457 106 C410 79 359 64 307 64 L307 64 Z " />
<glyph glyph-name="quotesingle" unicode="&#x27;" horiz-adv-x="247" d="M246 832 L140 832 L104 532 L196 532 L246 832 Z " />
<glyph glyph-name="parenleft" unicode="&#x28;" horiz-adv-x="350" d="M349 866 C163 720 41 480 41 254 C41 76 107 -88 205 -187 L266 -138 C191 -44 130 97 130 260 C130 488 254 690 395 814 L349 866 Z " />
<glyph glyph-name="parenright" unicode="&#x29;" horiz-adv-x="351" d="M89 814 C152 740 224 583 224 425 C224 215 96 -1 -47 -138 L0 -187 C181 -35 313 202 313 427 C313 607 233 793 150 866 L89 814 Z " />
<glyph glyph-name="asterisk" unicode="&#x2a;" horiz-adv-x="524" d="M508 598 L497 662 L332 620 L356 776 L284 776 L264 619 L116 666 L87 602 L237 550 L113 414 L161 374 L285 509 L370 373 L430 413 L345 551 L508 598 Z " />
<glyph glyph-name="plus" unicode="&#x2b;" horiz-adv-x="582" d="M360 566 L289 566 L260 357 L48 357 L38 286 L250 286 L220 74 L291 74 L321 286 L530 286 L540 357 L331 357 L360 566 Z " />
<glyph glyph-name="comma" unicode="&#x2c;" horiz-adv-x="270" d="M56 -121 L181 162 L66 162 L-19 -121 L56 -121 Z " />
<glyph glyph-name="&amp;#x2d;" unicode="&#x2d;" horiz-adv-x="464" d="M378 264 L389 345 L77 345 L66 264 L378 264 Z " />
<glyph glyph-name="&amp;#xad;" unicode="&#xad;" horiz-adv-x="464" d="M378 264 L389 345 L77 345 L66 264 L378 264 Z " />
<glyph glyph-name="period" unicode="&#x2e;" horiz-adv-x="262" d="M31 0 L140 0 L161 154 L52 154 L31 0 Z " />
<glyph glyph-name="slash" unicode="&#x2f;" horiz-adv-x="518" d="M-9 0 L76 0 L546 800 L460 800 L-9 0 Z " />
<glyph glyph-name="zero" unicode="0" horiz-adv-x="731" d="M64 295 C64 108 135 -15 318 -15 C597 -15 685 274 685 504 C685 691 619 816 435 816 C156 816 64 524 64 295 L64 295 Z M424 725 C543 725 581 636 581 501 C581 325 526 76 330 76 C223 76 168 154 168 303 C168 481 227 725 424 725 L424 725 Z " />
<glyph glyph-name="one" unicode="1" horiz-adv-x="569" d="M513 0 L527 93 L328 93 L429 816 L410 816 L115 762 L102 668 L312 701 L227 93 L22 93 L9 0 L513 0 Z " />
<glyph glyph-name="two" unicode="2" horiz-adv-x="635" d="M547 0 L560 93 L141 93 L141 95 C312 214 596 435 596 622 C596 750 499 816 354 816 C263 816 171 790 101 756 L102 673 C167 703 269 727 334 727 C443 727 490 673 490 604 C490 446 182 225 32 95 L19 0 L547 0 Z " />
<glyph glyph-name="three" unicode="3" horiz-adv-x="630" d="M599 632 C599 747 510 816 356 816 C261 816 185 795 113 754 L114 664 C197 704 271 728 336 727 C447 727 493 673 493 608 C493 525 378 467 218 437 L219 365 C227 366 234 366 241 366 C368 366 445 321 445 230 C445 157 381 74 240 74 C176 74 91 90 31 121 L14 32 C68 3 143 -15 225 -15 C417 -15 551 95 551 244 C551 340 491 399 379 413 L379 415 C513 450 599 532 599 632 L599 632 Z " />
<glyph glyph-name="four" unicode="4" horiz-adv-x="660" d="M614 172 L627 262 L503 262 L534 476 L430 476 L400 262 L124 262 L462 800 L347 800 L25 275 L11 172 L387 172 L364 0 L467 0 L491 172 L614 172 Z " />
<glyph glyph-name="five" unicode="5" horiz-adv-x="635" d="M459 231 C459 115 369 73 262 73 C180 73 100 93 37 127 L20 36 C95 -3 176 -15 251 -15 C429 -15 566 82 566 247 C566 417 412 472 207 477 L244 707 L609 707 L623 800 L161 800 L96 398 C323 393 459 355 459 231 L459 231 Z " />
<glyph glyph-name="six" unicode="6" horiz-adv-x="674" d="M612 811 C599 811 585 813 565 813 C287 813 52 579 52 247 C52 86 135 -18 296 -18 C494 -18 618 111 618 290 C618 419 523 485 408 485 C324 485 242 458 176 412 C226 602 377 714 570 714 C586 714 610 713 630 711 L612 811 Z M371 398 C454 398 512 356 512 269 C512 159 445 70 313 70 C205 70 158 141 158 266 C158 285 159 304 160 322 C218 364 301 398 371 398 L371 398 Z " />
<glyph glyph-name="seven" unicode="7" horiz-adv-x="575" d="M208 0 L626 767 L623 800 L90 800 L64 707 L494 707 L99 0 L208 0 Z " />
<glyph glyph-name="eight" unicode="8" horiz-adv-x="700" d="M42 177 C42 50 167 -16 292 -16 C448 -16 622 81 622 262 C622 344 566 388 496 419 C589 457 670 520 670 627 C670 742 564 816 428 816 C274 816 110 727 110 567 C110 490 162 447 228 416 C130 377 42 301 42 177 L42 177 Z M517 237 C517 122 410 71 317 71 C220 71 142 119 142 205 C142 298 246 356 317 381 C418 347 517 318 517 237 L517 237 Z M213 592 C213 689 317 729 407 729 C496 729 567 684 567 606 C567 523 480 483 402 453 C305 485 213 513 213 592 L213 592 Z " />
<glyph glyph-name="nine" unicode="9" horiz-adv-x="671" d="M81 -11 C94 -12 108 -13 128 -13 C453 -13 637 265 637 546 C637 700 558 816 389 816 C198 816 74 687 74 508 C74 393 168 308 292 308 C381 308 449 332 510 374 C458 189 317 86 123 86 C107 86 83 87 63 88 L81 -11 Z M319 395 C229 395 180 447 180 531 C180 644 249 727 371 727 C494 727 545 639 528 476 C528 473 527 471 527 469 C471 427 398 395 319 395 L319 395 Z " />
<glyph glyph-name="colon" unicode="&#x3a;" horiz-adv-x="261" d="M29 0 L138 0 L160 154 L51 154 L29 0 Z M88 419 L197 419 L219 573 L110 573 L88 419 Z " />
<glyph glyph-name="semicolon" unicode="&#x3b;" horiz-adv-x="296" d="M114 418 L223 418 L244 572 L135 572 L114 418 Z M64 -121 L190 162 L76 162 L-10 -121 L64 -121 Z " />
<glyph glyph-name="less" unicode="&#x3c;" horiz-adv-x="540" d="M504 582 L42 354 L31 272 L431 57 L444 145 L125 310 L492 487 L504 582 Z " />
<glyph glyph-name="equal" unicode="&#x3d;" horiz-adv-x="579" d="M504 381 L514 451 L97 451 L87 381 L504 381 Z M475 178 L485 248 L68 248 L58 178 L475 178 Z " />
<glyph glyph-name="greater" unicode="&#x3e;" horiz-adv-x="541" d="M92 492 L410 314 L45 149 L32 58 L492 268 L503 351 L105 581 L92 492 Z " />
<glyph glyph-name="question" unicode="&#x3f;" horiz-adv-x="618" d="M137 0 L246 0 L266 153 L157 153 L137 0 Z M179 268 L283 268 L295 351 C489 388 608 457 608 612 C608 748 503 816 368 816 C273 816 177 793 96 751 L106 659 C185 700 263 717 345 717 C434 717 499 678 499 594 C499 503 427 443 198 407 L179 268 Z " />
<glyph glyph-name="at" unicode="&#x40;" horiz-adv-x="896" d="M522 189 C522 183 523 177 524 172 C531 126 580 113 622 113 C757 113 861 233 861 414 C861 582 725 706 527 706 C249 706 52 541 52 230 C52 4 218 -105 419 -105 C493 -105 575 -92 654 -60 L668 16 C591 -15 503 -28 435 -28 C267 -28 135 54 135 249 C135 498 293 628 514 628 C677 628 780 538 780 398 C780 284 713 184 633 184 C606 184 586 199 586 225 C586 229 586 233 587 238 L646 469 C605 486 548 496 507 496 C338 496 252 384 252 240 C252 160 299 105 368 105 C425 105 480 135 522 189 L522 189 Z M395 184 C367 184 334 205 334 258 C334 387 427 425 490 426 C509 426 531 424 553 415 L508 249 C475 206 431 184 395 184 L395 184 Z " />
<glyph glyph-name="A" unicode="A" horiz-adv-x="769" d="M592 0 L698 0 L491 800 L393 800 L-45 0 L59 0 L194 255 L531 255 L592 0 Z M427 693 L511 341 L240 341 L427 693 Z " />
<glyph glyph-name="B" unicode="B" horiz-adv-x="704" d="M44 0 L299 0 C472 0 577 93 595 216 C607 306 571 373 487 404 C580 436 635 504 647 590 C665 715 585 800 411 800 L157 800 L44 0 Z M352 359 C455 359 499 302 488 224 C478 151 420 90 314 90 L160 90 L198 359 L352 359 Z M401 710 C503 710 548 652 537 575 C527 503 468 441 363 441 L210 441 L248 710 L401 710 Z " />
<glyph glyph-name="C" unicode="C" horiz-adv-x="714" d="M629 125 C573 96 499 78 435 78 C270 78 167 176 167 353 C167 592 327 723 524 723 C585 723 651 708 699 680 L721 769 C671 801 599 816 531 816 C261 816 58 624 58 341 C58 119 200 -16 410 -16 C490 -16 569 3 629 36 L629 125 Z " />
<glyph glyph-name="D" unicode="D" horiz-adv-x="822" d="M45 0 L306 0 C527 0 735 179 767 400 C798 627 640 800 419 800 L158 800 L45 0 Z M406 708 C588 708 687 569 664 400 C640 232 503 92 319 92 L162 92 L249 708 L406 708 Z " />
<glyph glyph-name="E" unicode="E" horiz-adv-x="634" d="M46 0 L544 0 L557 92 L163 92 L200 355 L476 355 L489 445 L212 445 L250 708 L644 708 L657 800 L159 800 L46 0 Z " />
<glyph glyph-name="F" unicode="F" horiz-adv-x="601" d="M477 352 L490 445 L212 445 L250 708 L645 708 L658 800 L159 800 L46 0 L150 0 L199 352 L477 352 Z " />
<glyph glyph-name="G" unicode="G" horiz-adv-x="790" d="M674 37 L729 437 L450 437 L437 347 L613 347 L579 97 C537 86 482 78 439 78 C277 78 162 177 162 349 C162 566 318 722 523 722 C592 722 696 704 748 672 L772 766 C724 797 625 816 538 816 C238 816 57 587 57 340 C57 136 204 -16 413 -16 C523 -16 620 5 674 37 L674 37 Z " />
<glyph glyph-name="H" unicode="H" horiz-adv-x="917" d="M653 0 L757 0 L870 800 L766 800 L716 448 L213 448 L263 800 L159 800 L46 0 L150 0 L200 355 L703 355 L653 0 Z " />
<glyph glyph-name="I" unicode="I" horiz-adv-x="310" d="M47 0 L151 0 L264 800 L160 800 L47 0 Z " />
<glyph glyph-name="J" unicode="J" horiz-adv-x="447" d="M234 333 C216 203 155 88 -30 88 L-43 0 C197 0 310 135 338 333 L404 800 L300 800 L234 333 Z " />
<glyph glyph-name="K" unicode="K" horiz-adv-x="675" d="M46 0 L150 0 L201 362 L480 0 L621 0 L295 408 L734 800 L600 800 L212 439 L263 800 L159 800 L46 0 Z " />
<glyph glyph-name="L" unicode="L" horiz-adv-x="586" d="M499 0 L512 92 L163 92 L263 800 L159 800 L46 0 L499 0 Z " />
<glyph glyph-name="M" unicode="M" horiz-adv-x="1089" d="M441 0 L521 0 L910 601 L825 0 L929 0 L1042 800 L938 800 L938 799 L937 800 L499 120 L263 800 L159 800 L46 0 L150 0 L232 585 L441 0 Z " />
<glyph glyph-name="N" unicode="N" horiz-adv-x="950" d="M683 0 L790 0 L903 800 L800 800 L707 142 L256 800 L159 800 L46 0 L150 0 L241 643 L683 0 Z " />
<glyph glyph-name="O" unicode="O" horiz-adv-x="915" d="M59 348 C59 131 205 -16 411 -16 C670 -16 875 175 875 455 C875 676 731 816 522 816 C252 816 59 611 59 348 L59 348 Z M510 727 C663 727 769 623 769 442 C769 231 625 73 425 73 C272 73 165 184 165 358 C165 571 311 727 510 727 L510 727 Z " />
<glyph glyph-name="P" unicode="P" horiz-adv-x="672" d="M46 0 L150 0 L196 326 L365 326 C500 326 626 425 646 566 C664 698 586 800 432 800 L159 800 L46 0 Z M397 708 C501 708 550 646 539 564 C527 484 462 414 355 414 L208 414 L250 708 L397 708 Z " />
<glyph glyph-name="Q" unicode="Q" horiz-adv-x="900" d="M59 348 C59 131 205 -16 411 -16 C515 -16 611 15 688 70 L743 0 L850 0 L752 126 C828 208 875 321 875 455 C875 676 731 816 522 816 C252 816 59 611 59 348 L59 348 Z M510 727 C663 727 769 623 769 442 C769 349 741 266 692 203 L556 378 L447 378 L632 141 C575 98 504 73 425 73 C272 73 165 184 165 358 C165 571 311 727 510 727 L510 727 Z " />
<glyph glyph-name="R" unicode="R" horiz-adv-x="689" d="M46 0 L150 0 L196 326 L348 326 L450 0 L566 0 L452 340 C550 372 630 456 646 566 C664 698 586 800 432 800 L159 800 L46 0 Z M397 708 C501 708 550 646 539 564 C527 484 462 414 355 414 L208 414 L250 708 L397 708 Z " />
<glyph glyph-name="S" unicode="S" horiz-adv-x="615" d="M445 221 C445 132 365 75 261 75 C171 75 107 92 39 126 L20 33 C81 3 154 -16 245 -16 C411 -16 549 77 549 239 C549 456 193 415 193 579 C193 672 277 725 373 725 C456 725 525 701 574 669 L607 757 C557 790 484 816 390 816 C230 816 92 730 92 563 C92 335 445 389 445 221 L445 221 Z " />
<glyph glyph-name="T" unicode="T" horiz-adv-x="680" d="M733 708 L746 800 L46 800 L33 708 L331 708 L231 0 L334 0 L434 708 L733 708 Z " />
<glyph glyph-name="U" unicode="U" horiz-adv-x="910" d="M771 800 L712 382 C688 210 582 74 410 74 C238 74 167 198 193 382 L252 800 L149 800 L89 372 C55 130 176 -18 397 -18 C618 -18 784 151 815 372 L875 800 L771 800 Z " />
<glyph glyph-name="V" unicode="V" horiz-adv-x="770" d="M173 800 L66 800 L273 0 L381 0 L820 800 L717 800 L341 102 L173 800 Z " />
<glyph glyph-name="W" unicode="W" horiz-adv-x="1204" d="M1246 800 L1142 800 L838 116 L710 800 L608 800 L287 117 L184 800 L71 800 L213 0 L319 0 L638 665 L770 0 L876 0 L1246 800 Z " />
<glyph glyph-name="X" unicode="X" horiz-adv-x="750" d="M789 800 L668 800 L384 470 L195 800 L74 800 L323 400 L-38 0 L83 0 L365 330 L555 0 L676 0 L426 400 L789 800 Z " />
<glyph glyph-name="Y" unicode="Y" horiz-adv-x="724" d="M175 800 L60 800 L294 295 L252 0 L356 0 L398 296 L780 800 L673 800 L358 383 L175 800 Z " />
<glyph glyph-name="Z" unicode="Z" horiz-adv-x="653" d="M546 0 L559 93 L124 93 L645 733 L655 800 L103 800 L90 707 L516 707 L3 79 L-7 0 L546 0 Z " />
<glyph glyph-name="bracketleft" unicode="&#x5b;" horiz-adv-x="326" d="M221 -156 L231 -79 L115 -79 L233 756 L349 756 L359 832 L160 832 L22 -156 L221 -156 Z " />
<glyph glyph-name="backslash" unicode="&#x5c;" horiz-adv-x="514" d="M187 800 L101 800 L345 0 L431 0 L187 800 Z " />
<glyph glyph-name="bracketright" unicode="&#x5d;" horiz-adv-x="326" d="M167 -156 L305 832 L106 832 L96 756 L212 756 L94 -79 L-21 -79 L-31 -156 L167 -156 Z " />
<glyph glyph-name="asciicircum" unicode="&#x5e;" horiz-adv-x="657" d="M698 367 L494 800 L379 800 L49 367 L164 367 L423 712 L594 367 L698 367 Z " />
<glyph glyph-name="underscore" unicode="&#x5f;" horiz-adv-x="464" d="M375 -207 L386 -128 L-58 -128 L-69 -207 L375 -207 Z " />
<glyph glyph-name="grave" unicode="&#x60;" horiz-adv-x="546" d="M426 641 L306 811 L193 811 L329 641 L426 641 Z " />
<glyph glyph-name="a" unicode="a" horiz-adv-x="640" d="M590 550 C489 569 427 573 386 573 C129 573 35 388 35 181 C35 67 98 -17 222 -17 C305 -17 368 20 432 103 L418 0 L512 0 L590 550 Z M244 65 C190 65 131 97 131 204 C131 360 203 490 367 490 C400 490 436 486 485 476 L451 237 C395 152 317 65 244 65 L244 65 Z " />
<glyph glyph-name="b" unicode="b" horiz-adv-x="654" d="M35 0 C178 -16 220 -17 242 -17 C528 -17 602 180 602 362 C602 485 533 573 407 573 C325 573 255 530 192 455 L245 832 L151 832 L35 0 Z M390 490 C452 490 505 451 505 346 C505 187 431 65 270 65 C248 65 196 67 139 76 L177 352 C245 434 321 490 390 490 L390 490 Z " />
<glyph glyph-name="c" unicode="c" horiz-adv-x="534" d="M360 490 C414 490 447 486 504 473 L517 556 C469 567 413 573 367 573 C128 573 36 397 36 217 C36 62 145 -17 282 -17 C347 -17 397 -10 443 8 L452 90 C399 71 358 65 299 65 C212 65 133 116 133 235 C133 382 210 490 360 490 L360 490 Z " />
<glyph glyph-name="d" unicode="d" horiz-adv-x="642" d="M418 0 L512 0 L630 832 L536 832 L498 565 C453 570 409 573 387 573 C127 573 35 388 35 181 C35 66 100 -17 222 -17 C306 -17 368 21 432 104 L418 0 Z M244 65 C192 65 131 96 131 206 C131 367 208 490 367 490 C397 490 439 486 485 477 L451 236 C395 151 318 65 244 65 L244 65 Z " />
<glyph glyph-name="e" unicode="e" horiz-adv-x="599" d="M527 244 C545 293 557 349 557 392 C557 498 495 573 346 573 C132 573 36 386 36 218 C36 74 129 -17 287 -17 C357 -17 431 -8 480 8 L495 95 C426 76 365 65 307 65 C210 65 133 115 133 231 L133 244 L527 244 Z M337 490 C398 490 460 467 460 383 C460 363 456 345 448 317 L143 317 C168 418 237 490 337 490 L337 490 Z " />
<glyph glyph-name="f" unicode="f" horiz-adv-x="367" d="M48 473 L132 473 L66 0 L160 0 L225 473 L364 473 L376 556 L237 556 L248 637 C260 722 303 763 371 763 C397 763 436 759 460 748 L476 828 C446 839 417 845 380 845 C267 845 175 784 156 641 L144 556 L60 556 L48 473 Z " />
<glyph glyph-name="g" unicode="g" horiz-adv-x="648" d="M435 60 C413 -97 334 -133 231 -133 C167 -133 73 -118 21 -102 L21 -193 C76 -208 154 -217 223 -217 C402 -217 501 -134 525 35 L598 554 C496 569 431 573 386 573 C152 573 40 418 40 212 C40 94 108 25 228 25 C309 25 376 54 444 125 L435 60 Z M253 108 C183 108 137 144 137 229 C137 382 211 490 366 490 C399 490 441 488 494 479 L458 228 C389 151 325 108 253 108 L253 108 Z " />
<glyph glyph-name="h" unicode="h" horiz-adv-x="656" d="M438 0 L532 0 L585 379 C604 517 546 573 422 573 C335 573 258 529 195 473 L246 832 L152 832 L35 0 L129 0 L183 388 C263 451 330 490 390 490 C468 490 502 460 489 371 L438 0 Z " />
<glyph glyph-name="i" unicode="i" horiz-adv-x="306" d="M83 0 L177 0 L255 556 L161 556 L83 0 Z M177 670 L271 670 L290 800 L196 800 L177 670 Z " />
<glyph glyph-name="j" unicode="j" horiz-adv-x="309" d="M79 -33 C69 -108 32 -134 -19 -134 C-40 -134 -71 -129 -94 -119 L-94 -205 C-63 -214 -37 -217 -9 -217 C89 -217 156 -163 174 -43 L257 556 L164 556 L79 -33 Z M177 670 L271 670 L290 800 L196 800 L177 670 Z " />
<glyph glyph-name="k" unicode="k" horiz-adv-x="610" d="M34 0 L132 0 L249 832 L151 832 L34 0 Z M194 288 L420 0 L546 0 L310 293 L624 556 L503 556 L194 288 Z " />
<glyph glyph-name="l" unicode="l" horiz-adv-x="285" d="M53 0 L147 0 L263 832 L170 832 L53 0 Z " />
<glyph glyph-name="m" unicode="m" horiz-adv-x="1043" d="M434 0 L528 0 L582 379 L584 397 C641 441 712 490 777 490 C855 490 888 460 876 371 L825 0 L919 0 L972 379 C991 517 933 573 809 573 C722 573 644 526 581 471 C567 542 513 573 422 573 C334 573 258 528 194 471 L207 566 L113 556 L35 0 L128 0 L182 385 C259 444 318 490 390 490 C468 490 499 461 485 372 L434 0 Z " />
<glyph glyph-name="n" unicode="n" horiz-adv-x="656" d="M35 0 L129 0 L183 387 C262 451 329 490 390 490 C468 490 502 460 489 371 L438 0 L532 0 L585 379 C604 517 546 573 422 573 C335 573 258 528 195 472 L208 566 L113 556 L35 0 Z " />
<glyph glyph-name="o" unicode="o" horiz-adv-x="660" d="M38 213 C38 77 108 -17 285 -17 C498 -17 606 133 606 341 C606 476 534 573 361 573 C133 573 38 410 38 213 L38 213 Z M353 490 C451 490 509 434 509 326 C509 167 421 65 292 65 C176 65 135 133 135 229 C135 374 199 490 353 490 L353 490 Z " />
<glyph glyph-name="p" unicode="p" horiz-adv-x="654" d="M208 566 L113 556 L6 -200 L100 -200 L126 -8 C166 -13 203 -17 243 -17 C529 -17 602 178 602 370 C602 484 530 573 414 573 C336 573 271 543 190 454 L208 566 Z M390 490 C447 490 505 452 505 344 C505 194 435 64 270 64 C248 64 196 65 139 75 L178 352 C232 424 315 490 390 490 L390 490 Z " />
<glyph glyph-name="q" unicode="q" horiz-adv-x="639" d="M590 550 C496 567 437 573 396 573 C117 573 35 373 35 184 C35 69 99 -17 213 -17 C298 -17 363 15 434 105 L391 -200 L483 -200 L590 550 Z M242 65 C191 65 131 95 131 205 C131 366 204 490 370 490 C399 490 435 485 486 476 L452 239 C386 143 317 65 242 65 L242 65 Z " />
<glyph glyph-name="r" unicode="r" horiz-adv-x="423" d="M35 0 L130 0 L182 367 C240 421 298 471 363 471 C382 471 402 470 423 466 L436 566 C426 568 414 569 404 569 C317 569 250 521 194 456 L210 566 L113 556 L35 0 Z " />
<glyph glyph-name="s" unicode="s" horiz-adv-x="555" d="M234 65 C162 65 90 78 26 94 L14 11 C63 -3 125 -17 230 -17 C402 -17 488 67 488 170 C488 350 155 297 155 402 C157 460 217 490 308 490 C377 490 442 473 499 450 L516 539 C471 554 415 573 315 573 C168 573 58 513 58 392 C58 211 391 266 391 160 C389 88 315 65 234 65 L234 65 Z " />
<glyph glyph-name="t" unicode="t" horiz-adv-x="421" d="M42 473 L140 473 L96 159 C78 28 136 -17 229 -17 C266 -17 312 -11 350 -3 L359 79 C332 72 296 67 271 67 C211 67 181 87 192 165 L235 473 L408 473 L420 556 L246 556 L272 736 L177 736 L151 556 L54 556 L42 473 Z " />
<glyph glyph-name="u" unicode="u" horiz-adv-x="657" d="M202 556 L108 556 L55 178 C36 40 90 -17 214 -17 C300 -17 381 30 446 87 L434 0 L528 0 L606 556 L512 556 L459 177 C402 131 315 65 243 65 C166 65 137 95 150 184 L202 556 Z " />
<glyph glyph-name="v" unicode="v" horiz-adv-x="585" d="M146 556 L37 556 L178 0 L309 0 L603 556 L499 556 L253 78 L146 556 Z " />
<glyph glyph-name="w" unicode="w" horiz-adv-x="912" d="M141 556 L44 556 L141 0 L254 0 L461 433 L552 0 L671 0 L925 556 L828 556 L622 78 L536 556 L428 556 L212 89 L141 556 Z " />
<glyph glyph-name="x" unicode="x" horiz-adv-x="601" d="M609 556 L498 556 L307 338 L171 556 L56 556 L232 273 L-33 0 L84 0 L287 221 L418 0 L537 0 L362 282 L609 556 Z " />
<glyph glyph-name="y" unicode="y" horiz-adv-x="658" d="M442 48 C422 -96 349 -133 233 -133 C173 -133 77 -122 29 -112 L29 -199 C87 -211 169 -217 231 -217 C416 -217 511 -129 533 30 L608 556 L514 556 L464 203 C409 165 328 115 251 115 C175 115 146 147 158 237 L203 556 L109 556 L61 217 C43 90 108 32 232 32 C316 32 389 68 452 120 L442 48 Z " />
<glyph glyph-name="z" unicode="z" horiz-adv-x="552" d="M463 0 L475 83 L132 83 L526 502 L524 556 L85 556 L56 473 L399 473 L18 70 L9 0 L463 0 Z " />
<glyph glyph-name="braceleft" unicode="&#x7b;" horiz-adv-x="338" d="M230 -171 L240 -95 L208 -95 C170 -95 138 -80 148 -2 L179 219 C189 288 155 317 130 327 C158 336 201 370 211 439 L242 663 C254 742 289 756 328 756 L359 756 L369 832 L321 832 C223 832 178 789 159 662 L130 450 C122 397 75 360 43 360 L35 295 C67 295 103 266 95 205 L65 0 C47 -133 83 -171 182 -171 L230 -171 Z " />
<glyph glyph-name="bar" unicode="&#x7c;" horiz-adv-x="273" d="M47 0 L131 0 L244 800 L160 800 L47 0 Z " />
<glyph glyph-name="braceright" unicode="&#x7d;" horiz-adv-x="337" d="M14 -171 C113 -171 160 -133 178 0 L207 205 C215 266 259 295 292 295 L301 360 C269 360 234 397 241 450 L271 662 C288 789 254 832 156 832 L108 832 L98 756 L129 756 C168 756 199 742 188 663 L157 439 C147 370 181 336 206 327 C177 317 135 288 125 219 L94 -2 C83 -80 46 -95 8 -95 L-22 -95 L-33 -171 L14 -171 Z " />
<glyph glyph-name="asciitilde" unicode="&#x7e;" horiz-adv-x="682" d="M480 273 C536 273 575 296 614 328 L609 419 C582 395 535 374 492 374 C402 374 333 434 215 434 C162 434 105 404 76 382 L78 284 C97 294 146 334 197 334 C299 334 378 273 480 273 L480 273 Z " />
<glyph glyph-name="exclamdown" unicode="&#xa1;" horiz-adv-x="293" d="M18 -200 L125 -200 L169 117 L194 320 L96 320 L63 118 L18 -200 Z M106 428 L215 428 L236 581 L127 581 L106 428 Z " />
<glyph glyph-name="cent" unicode="&#xa2;" horiz-adv-x="636" d="M268 0 L353 0 L363 76 C423 83 490 97 530 116 L539 195 C493 176 431 165 375 161 L434 576 C487 574 541 568 591 553 L608 639 C560 653 501 659 446 661 L457 741 L372 741 L360 660 C164 647 50 527 50 312 C50 163 138 81 278 73 L268 0 Z M148 332 C148 499 228 563 348 575 L290 161 C203 172 148 227 148 332 L148 332 Z " />
<glyph glyph-name="sterling" unicode="&#xa3;" horiz-adv-x="738" d="M628 0 L641 93 L215 93 L247 323 L543 323 L555 411 L260 411 L270 483 C293 652 384 727 511 727 C580 727 656 703 712 650 L746 736 C691 796 607 816 521 816 C344 816 197 701 167 494 L155 411 L64 411 L53 323 L143 323 L112 93 L20 93 L8 0 L628 0 Z " />
<glyph glyph-name="yen" unicode="&#xa5;" horiz-adv-x="797" d="M296 0 L400 0 L425 179 L692 179 L704 255 L436 255 L442 296 L480 346 L716 346 L728 421 L537 421 L824 800 L717 800 L402 383 L219 800 L104 800 L280 421 L89 421 L77 346 L314 346 L338 295 L332 255 L66 255 L54 179 L321 179 L296 0 Z " />
<glyph glyph-name="brokenbar" unicode="&#xa6;" horiz-adv-x="275" d="M115 469 L198 469 L245 800 L162 800 L115 469 Z M49 0 L132 0 L179 331 L96 331 L49 0 Z " />
<glyph glyph-name="section" unicode="&#xa7;" horiz-adv-x="606" d="M80 398 C80 206 434 293 434 175 C433 110 361 66 260 66 C184 66 108 84 51 111 L29 28 C78 3 144 -16 245 -16 C397 -16 519 47 519 192 C519 222 510 245 496 264 C527 290 544 327 544 371 C544 563 201 496 201 618 C202 691 269 726 373 726 C443 726 519 703 559 676 L586 764 C544 791 471 816 390 816 C229 816 112 744 112 607 C112 567 125 537 147 515 C107 491 80 454 80 398 L80 398 Z M167 421 C167 444 183 464 209 475 C310 431 455 430 455 343 C455 329 446 317 434 307 C330 349 167 332 167 421 L167 421 Z " />
<glyph glyph-name="dieresis" unicode="&#xa8;" horiz-adv-x="575" d="M233 670 L317 670 L336 800 L252 800 L233 670 Z M455 670 L540 670 L559 800 L475 800 L455 670 Z " />
<glyph glyph-name="copyright" unicode="&#xa9;" horiz-adv-x="890" d="M577 259 C534 242 501 233 452 233 C361 233 309 281 314 378 C317 488 383 567 498 567 C546 567 574 560 616 544 L631 612 C588 628 553 636 504 636 C334 636 234 501 234 351 C234 233 309 165 433 165 C483 165 533 177 571 195 L577 259 Z M510 800 C257 800 60 584 60 327 C60 129 189 -9 396 -9 C650 -9 847 207 847 463 C847 661 717 800 510 800 L510 800 Z M121 331 C121 535 267 747 503 747 C683 747 785 629 785 461 C785 255 642 44 404 44 C223 44 121 162 121 331 L121 331 Z " />
<glyph glyph-name="ordfeminine" unicode="&#xaa;" horiz-adv-x="518" d="M491 789 C399 799 355 800 341 800 C153 800 102 679 102 557 C102 484 143 426 224 426 C277 426 319 448 364 499 L356 437 L442 437 L491 789 Z M250 497 C212 497 183 515 183 575 C183 675 235 731 320 731 C333 731 362 730 396 726 L375 577 C338 532 289 497 250 497 L250 497 Z M91 326 L437 326 L446 385 L99 385 L91 326 Z " />
<glyph glyph-name="guillemotleft" unicode="&#xab;" horiz-adv-x="544" d="M293 510 L204 510 L43 280 L135 46 L225 46 L146 280 L293 510 Z M518 510 L430 510 L269 280 L361 46 L450 46 L371 280 L518 510 Z " />
<glyph glyph-name="logicalnot" unicode="&#xac;" horiz-adv-x="678" d="M83 357 L73 286 L517 286 L491 102 L565 102 L601 357 L83 357 Z " />
<glyph glyph-name="registered" unicode="&#xae;" horiz-adv-x="669" d="M401 816 C232 816 100 672 100 499 C100 367 187 275 325 275 C491 275 629 415 629 590 C629 724 540 816 401 816 L401 816 Z M148 501 C148 635 240 774 395 774 C513 774 580 696 580 586 C580 453 484 317 331 317 C215 317 148 392 148 501 L148 501 Z M251 405 L299 405 L314 515 L370 515 L407 405 L458 405 L413 522 C455 535 480 573 485 607 C492 655 460 698 402 698 L292 698 L251 405 Z M385 660 C422 660 439 636 436 606 C431 576 408 550 369 550 L319 550 L335 660 L385 660 Z " />
<glyph glyph-name="macron" unicode="&#xaf;" horiz-adv-x="562" d="M229 697 L536 697 L545 768 L239 768 L229 697 Z " />
<glyph glyph-name="degree" unicode="&#xb0;" horiz-adv-x="443" d="M91 619 C91 535 157 474 242 474 C343 474 436 554 436 667 C436 751 373 812 287 812 C180 812 91 725 91 619 L91 619 Z M279 754 C335 754 368 713 368 660 C368 589 314 532 247 532 C195 532 157 570 157 626 C157 700 214 754 279 754 L279 754 Z " />
<glyph glyph-name="plusminus" unicode="&#xb1;" horiz-adv-x="545" d="M343 553 L273 553 L250 392 L84 392 L74 322 L240 322 L217 154 L287 154 L310 322 L471 322 L481 392 L320 392 L343 553 Z M431 33 L440 104 L44 104 L34 33 L431 33 Z " />
<glyph glyph-name="twosuperior" unicode="&#xb2;" horiz-adv-x="446" d="M429 500 L441 584 L164 584 C255 713 482 741 482 907 C482 993 405 1039 302 1039 C245 1039 173 1022 132 1003 L141 927 C181 945 237 955 275 955 C349 955 386 927 386 882 C375 786 116 708 73 584 L61 500 L429 500 Z " />
<glyph glyph-name="threesuperior" unicode="&#xb3;" horiz-adv-x="453" d="M489 914 C489 990 413 1039 308 1039 C251 1039 170 1015 128 995 L137 921 C187 942 243 953 287 953 C352 953 386 925 386 893 C384 836 319 806 212 791 L214 737 L238 737 C314 737 357 708 357 664 C357 620 316 572 227 572 C182 572 126 582 88 602 L57 524 C93 504 152 490 209 490 C340 490 452 546 452 656 C452 714 410 765 340 773 C414 792 489 833 489 914 L489 914 Z " />
<glyph glyph-name="acute" unicode="&#xb4;" horiz-adv-x="546" d="M365 641 L501 811 L388 811 L268 641 L365 641 Z " />
<glyph glyph-name="mu" unicode="&#xb5;" horiz-adv-x="657" d="M620 556 L526 556 L473 177 C416 131 329 65 257 65 C180 65 151 95 164 184 L216 556 L122 556 L80 257 L15 -200 L109 -200 L137 -1 C161 -12 191 -17 228 -17 C314 -17 395 30 460 87 L448 0 L542 0 L620 556 Z " />
<glyph glyph-name="paragraph" unicode="&#xb6;" horiz-adv-x="695" d="M490 800 L397 800 C168 800 61 640 61 477 C61 322 179 240 316 240 L411 240 L490 800 Z M407 -200 L509 -200 L650 800 L548 800 L407 -200 Z " />
<glyph glyph-name="periodcentered" unicode="&#xb7;" horiz-adv-x="255" d="M83 386 L182 386 L201 504 L101 504 L83 386 Z " />
<glyph glyph-name="cedilla" unicode="&#xb8;" horiz-adv-x="491" d="M356 -64 C356 4 273 44 213 53 L194 7 C228 0 288 -23 288 -66 C288 -105 249 -129 196 -129 L172 -129 L162 -200 L197 -200 C284 -200 356 -150 356 -64 L356 -64 Z " />
<glyph glyph-name="onesuperior" unicode="&#xb9;" horiz-adv-x="416" d="M425 500 L436 584 L306 584 L368 1028 L137 1028 L125 944 L266 944 L216 584 L74 584 L63 500 L425 500 Z " />
<glyph glyph-name="ordmasculine" unicode="&#xba;" horiz-adv-x="517" d="M272 425 C421 425 488 529 488 652 C488 739 441 800 325 800 C179 800 109 697 109 573 C109 487 160 425 272 425 L272 425 Z M90 385 L82 326 L428 326 L437 385 L90 385 Z M316 734 C371 734 403 700 403 640 C403 540 352 493 283 493 C220 493 194 531 194 585 C194 673 229 734 316 734 L316 734 Z " />
<glyph glyph-name="guillemotright" unicode="&#xbb;" horiz-adv-x="544" d="M158 280 L14 46 L103 46 L260 280 L164 510 L76 510 L158 280 Z M383 280 L239 46 L329 46 L485 280 L390 510 L301 510 L383 280 Z " />
<glyph glyph-name="onequarter" unicode="&#xbc;" horiz-adv-x="1146" d="M1074 99 L1087 183 L1012 183 L1031 314 L944 314 L925 183 L743 183 L973 528 L870 528 L641 173 L656 99 L913 99 L900 0 L987 0 L1000 99 L1074 99 Z M417 272 L428 356 L298 356 L360 800 L129 800 L117 716 L258 716 L208 356 L66 356 L55 272 L417 272 Z M282 -10 L375 -10 L878 790 L785 790 L282 -10 Z " />
<glyph glyph-name="onehalf" unicode="&#xbd;" horiz-adv-x="1161" d="M1067 0 L1079 84 L802 84 C893 213 1120 241 1120 407 C1120 493 1043 539 940 539 C883 539 811 522 770 503 L779 427 C819 445 875 455 913 455 C987 455 1024 427 1024 382 C1013 286 754 208 711 84 L699 0 L1067 0 Z M408 272 L419 356 L289 356 L351 800 L120 800 L108 716 L249 716 L199 356 L57 356 L46 272 L408 272 Z M275 -10 L368 -10 L871 790 L778 790 L275 -10 Z " />
<glyph glyph-name="threequarters" unicode="&#xbe;" horiz-adv-x="1131" d="M481 686 C481 762 405 811 300 811 C243 811 162 787 120 767 L129 693 C179 714 235 725 279 725 C344 725 378 697 378 665 C376 608 311 578 204 563 L206 509 L230 509 C306 509 349 480 349 436 C349 392 308 344 219 344 C174 344 118 354 80 374 L49 296 C85 276 144 262 201 262 C332 262 444 318 444 428 C444 486 402 537 332 545 C406 564 481 605 481 686 L481 686 Z M1059 99 L1072 183 L997 183 L1016 314 L929 314 L910 183 L728 183 L958 528 L855 528 L626 173 L641 99 L898 99 L885 0 L972 0 L985 99 L1059 99 Z M278 -10 L371 -10 L874 790 L781 790 L278 -10 Z " />
<glyph glyph-name="questiondown" unicode="&#xbf;" horiz-adv-x="610" d="M467 603 L358 603 L338 450 L447 450 L467 603 Z M425 335 L321 335 L309 252 C115 215 -4 146 -4 -9 C-4 -145 101 -213 236 -213 C331 -213 427 -190 508 -148 L498 -56 C419 -97 341 -114 259 -114 C170 -114 105 -75 105 9 C105 100 177 160 406 196 L425 335 Z " />
<glyph glyph-name="Agrave" unicode="&#xc0;" horiz-adv-x="760" d="M592 0 L698 0 L491 800 L393 800 L-45 0 L59 0 L194 255 L531 255 L592 0 Z M427 693 L511 341 L240 341 L427 693 Z M501 846 L400 982 L297 982 L407 846 L501 846 Z " />
<glyph glyph-name="Aacute" unicode="&#xc1;" horiz-adv-x="760" d="M592 0 L698 0 L491 800 L393 800 L-45 0 L59 0 L194 255 L531 255 L592 0 Z M427 693 L511 341 L240 341 L427 693 Z M504 846 L614 982 L511 982 L410 846 L504 846 Z " />
<glyph glyph-name="Acircumflex" unicode="&#xc2;" horiz-adv-x="760" d="M592 0 L698 0 L491 800 L393 800 L-45 0 L59 0 L194 255 L531 255 L592 0 Z M427 693 L511 341 L240 341 L427 693 Z M425 977 L284 846 L387 846 L472 931 L527 846 L626 846 L534 977 L425 977 Z " />
<glyph glyph-name="Atilde" unicode="&#xc3;" horiz-adv-x="760" d="M592 0 L698 0 L491 800 L393 800 L-45 0 L59 0 L194 255 L531 255 L592 0 Z M427 693 L511 341 L240 341 L427 693 Z M404 899 C444 899 480 869 524 869 C552 869 584 873 610 889 L618 949 C591 933 559 929 531 929 C489 929 456 959 410 959 C377 959 346 951 325 939 L316 879 C344 892 375 899 404 899 L404 899 Z " />
<glyph glyph-name="Adieresis" unicode="&#xc4;" horiz-adv-x="760" d="M592 0 L698 0 L491 800 L393 800 L-45 0 L59 0 L194 255 L531 255 L592 0 Z M427 693 L511 341 L240 341 L427 693 Z M324 852 L397 852 L413 961 L340 961 L324 852 Z M522 852 L594 852 L610 961 L538 961 L522 852 Z " />
<glyph glyph-name="Aring" unicode="&#xc5;" horiz-adv-x="760" d="M592 0 L698 0 L491 800 L393 800 L-45 0 L59 0 L194 255 L531 255 L592 0 Z M427 693 L511 341 L240 341 L427 693 Z M354 922 C354 864 402 831 453 831 C516 831 579 879 579 955 C579 1010 538 1047 482 1047 C406 1047 354 989 354 922 L354 922 Z M475 1005 C509 1005 530 979 530 947 C530 908 498 872 458 872 C423 872 402 898 402 930 C402 970 435 1005 475 1005 L475 1005 Z " />
<glyph glyph-name="AE" unicode="&#xc6;" horiz-adv-x="1052" d="M956 0 L969 93 L570 93 L607 356 L893 356 L906 444 L620 444 L657 707 L1054 707 L1068 800 L525 800 L-46 0 L75 0 L268 283 L494 283 L455 0 L956 0 Z M329 372 L553 700 L507 372 L329 372 Z " />
<glyph glyph-name="Ccedilla" unicode="&#xc7;" horiz-adv-x="715" d="M494 -64 C494 -44 487 -27 475 -12 C532 -5 586 12 630 36 L630 125 C574 96 500 78 436 78 C271 78 168 176 168 353 C168 592 328 723 525 723 C586 723 652 708 700 680 L722 769 C672 801 600 816 532 816 C262 816 59 624 59 341 C59 126 192 -7 391 -15 C410 -27 426 -44 426 -66 C426 -105 387 -129 334 -129 L310 -129 L300 -200 L335 -200 C422 -200 494 -150 494 -64 L494 -64 Z " />
<glyph glyph-name="Egrave" unicode="&#xc8;" horiz-adv-x="636" d="M46 0 L544 0 L557 92 L163 92 L200 355 L476 355 L489 445 L212 445 L250 708 L644 708 L657 800 L159 800 L46 0 Z M498 846 L397 982 L294 982 L404 846 L498 846 Z " />
<glyph glyph-name="Eacute" unicode="&#xc9;" horiz-adv-x="636" d="M46 0 L544 0 L557 92 L163 92 L200 355 L476 355 L489 445 L212 445 L250 708 L644 708 L657 800 L159 800 L46 0 Z M455 846 L565 982 L462 982 L361 846 L455 846 Z " />
<glyph glyph-name="Ecircumflex" unicode="&#xca;" horiz-adv-x="636" d="M46 0 L544 0 L557 92 L163 92 L200 355 L476 355 L489 445 L212 445 L250 708 L644 708 L657 800 L159 800 L46 0 Z M405 977 L264 846 L367 846 L452 931 L507 846 L606 846 L514 977 L405 977 Z " />
<glyph glyph-name="Edieresis" unicode="&#xcb;" horiz-adv-x="636" d="M46 0 L544 0 L557 92 L163 92 L200 355 L476 355 L489 445 L212 445 L250 708 L644 708 L657 800 L159 800 L46 0 Z M296 852 L369 852 L385 961 L312 961 L296 852 Z M494 852 L566 852 L582 961 L510 961 L494 852 Z " />
<glyph glyph-name="Igrave" unicode="&#xcc;" horiz-adv-x="313" d="M284 846 L183 982 L80 982 L190 846 L284 846 Z M47 0 L151 0 L264 800 L160 800 L47 0 Z " />
<glyph glyph-name="Iacute" unicode="&#xcd;" horiz-adv-x="313" d="M284 846 L394 982 L291 982 L190 846 L284 846 Z M47 0 L151 0 L264 800 L160 800 L47 0 Z " />
<glyph glyph-name="Icircumflex" unicode="&#xce;" horiz-adv-x="313" d="M205 977 L64 846 L167 846 L252 931 L307 846 L406 846 L314 977 L205 977 Z M47 0 L151 0 L264 800 L160 800 L47 0 Z " />
<glyph glyph-name="Idieresis" unicode="&#xcf;" horiz-adv-x="313" d="M102 852 L175 852 L191 961 L118 961 L102 852 Z M300 852 L372 852 L388 961 L316 961 L300 852 Z M47 0 L151 0 L264 800 L160 800 L47 0 Z " />
<glyph glyph-name="Eth" unicode="&#xd0;" horiz-adv-x="818" d="M29 370 L99 370 L47 0 L308 0 C529 0 737 179 769 400 C800 627 642 800 421 800 L160 800 L111 450 L41 450 L29 370 Z M373 370 L385 450 L215 450 L251 708 L408 708 C590 708 689 569 666 400 C642 232 505 92 321 92 L164 92 L203 370 L373 370 Z " />
<glyph glyph-name="Ntilde" unicode="&#xd1;" horiz-adv-x="937" d="M499 899 C539 899 575 869 619 869 C647 869 679 873 705 889 L713 949 C686 933 654 929 626 929 C584 929 551 959 505 959 C472 959 441 951 420 939 L411 879 C439 892 470 899 499 899 L499 899 Z M683 0 L790 0 L903 800 L800 800 L707 142 L256 800 L159 800 L46 0 L150 0 L241 643 L683 0 Z " />
<glyph glyph-name="Ograve" unicode="&#xd2;" horiz-adv-x="915" d="M589 846 L488 982 L385 982 L495 846 L589 846 Z M59 348 C59 131 205 -16 411 -16 C670 -16 875 175 875 455 C875 676 731 816 522 816 C252 816 59 611 59 348 L59 348 Z M510 727 C663 727 769 623 769 442 C769 231 625 73 425 73 C272 73 165 184 165 358 C165 571 311 727 510 727 L510 727 Z " />
<glyph glyph-name="Oacute" unicode="&#xd3;" horiz-adv-x="915" d="M547 846 L657 982 L554 982 L453 846 L547 846 Z M59 348 C59 131 205 -16 411 -16 C670 -16 875 175 875 455 C875 676 731 816 522 816 C252 816 59 611 59 348 L59 348 Z M510 727 C663 727 769 623 769 442 C769 231 625 73 425 73 C272 73 165 184 165 358 C165 571 311 727 510 727 L510 727 Z " />
<glyph glyph-name="Ocircumflex" unicode="&#xd4;" horiz-adv-x="915" d="M498 977 L357 846 L460 846 L545 931 L600 846 L699 846 L607 977 L498 977 Z M59 348 C59 131 205 -16 411 -16 C670 -16 875 175 875 455 C875 676 731 816 522 816 C252 816 59 611 59 348 L59 348 Z M510 727 C663 727 769 623 769 442 C769 231 625 73 425 73 C272 73 165 184 165 358 C165 571 311 727 510 727 L510 727 Z " />
<glyph glyph-name="Otilde" unicode="&#xd5;" horiz-adv-x="915" d="M475 899 C515 899 551 869 595 869 C623 869 655 873 681 889 L689 949 C662 933 630 929 602 929 C560 929 527 959 481 959 C448 959 417 951 396 939 L387 879 C415 892 446 899 475 899 L475 899 Z M59 348 C59 131 205 -16 411 -16 C670 -16 875 175 875 455 C875 676 731 816 522 816 C252 816 59 611 59 348 L59 348 Z M510 727 C663 727 769 623 769 442 C769 231 625 73 425 73 C272 73 165 184 165 358 C165 571 311 727 510 727 L510 727 Z " />
<glyph glyph-name="Odieresis" unicode="&#xd6;" horiz-adv-x="915" d="M388 852 L461 852 L477 961 L404 961 L388 852 Z M586 852 L658 852 L674 961 L602 961 L586 852 Z M59 348 C59 131 205 -16 411 -16 C670 -16 875 175 875 455 C875 676 731 816 522 816 C252 816 59 611 59 348 L59 348 Z M510 727 C663 727 769 623 769 442 C769 231 625 73 425 73 C272 73 165 184 165 358 C165 571 311 727 510 727 L510 727 Z " />
<glyph glyph-name="multiply" unicode="&#xd7;" horiz-adv-x="592" d="M141 542 L84 492 L243 307 L33 123 L76 73 L286 257 L444 75 L501 125 L343 307 L551 490 L508 540 L300 357 L141 542 Z " />
<glyph glyph-name="Oslash" unicode="&#xd8;" horiz-adv-x="915" d="M59 348 C59 258 84 180 128 119 L-3 -7 L91 -7 L172 71 C233 15 315 -16 411 -16 C670 -16 875 175 875 455 C875 546 850 623 807 682 L937 807 L842 807 L763 731 C702 785 619 816 522 816 C252 816 59 611 59 348 L59 348 Z M769 442 C769 231 625 73 425 73 C353 73 291 97 245 142 L729 607 C755 563 769 508 769 442 L769 442 Z M510 727 C582 727 644 703 689 660 L205 194 C179 238 165 294 165 358 C165 571 311 727 510 727 L510 727 Z " />
<glyph glyph-name="Ugrave" unicode="&#xd9;" horiz-adv-x="911" d="M587 846 L486 982 L383 982 L493 846 L587 846 Z M771 800 L712 382 C688 210 582 74 410 74 C238 74 167 198 193 382 L252 800 L149 800 L89 372 C55 130 176 -18 397 -18 C618 -18 784 151 815 372 L875 800 L771 800 Z " />
<glyph glyph-name="Uacute" unicode="&#xda;" horiz-adv-x="911" d="M546 846 L656 982 L553 982 L452 846 L546 846 Z M771 800 L712 382 C688 210 582 74 410 74 C238 74 167 198 193 382 L252 800 L149 800 L89 372 C55 130 176 -18 397 -18 C618 -18 784 151 815 372 L875 800 L771 800 Z " />
<glyph glyph-name="Ucircumflex" unicode="&#xdb;" horiz-adv-x="911" d="M490 977 L349 846 L452 846 L537 931 L592 846 L691 846 L599 977 L490 977 Z M771 800 L712 382 C688 210 582 74 410 74 C238 74 167 198 193 382 L252 800 L149 800 L89 372 C55 130 176 -18 397 -18 C618 -18 784 151 815 372 L875 800 L771 800 Z " />
<glyph glyph-name="Udieresis" unicode="&#xdc;" horiz-adv-x="911" d="M392 852 L465 852 L481 961 L408 961 L392 852 Z M590 852 L662 852 L678 961 L606 961 L590 852 Z M771 800 L712 382 C688 210 582 74 410 74 C238 74 167 198 193 382 L252 800 L149 800 L89 372 C55 130 176 -18 397 -18 C618 -18 784 151 815 372 L875 800 L771 800 Z " />
<glyph glyph-name="Yacute" unicode="&#xdd;" horiz-adv-x="712" d="M175 800 L60 800 L294 295 L252 0 L356 0 L398 296 L780 800 L673 800 L358 383 L175 800 Z M449 846 L559 982 L456 982 L355 846 L449 846 Z " />
<glyph glyph-name="Thorn" unicode="&#xde;" horiz-adv-x="657" d="M58 0 L160 0 L183 163 L353 163 C497 163 634 253 634 439 C634 548 551 633 412 633 L248 633 L272 800 L170 800 L58 0 Z M382 538 C473 538 527 497 527 419 C527 335 458 258 343 258 L196 258 L235 538 L382 538 Z " />
<glyph glyph-name="germandbls" unicode="&#xdf;" horiz-adv-x="705" d="M58 473 L132 473 L65 0 L159 0 L242 586 C258 698 313 763 435 763 C510 763 551 728 551 667 C551 584 376 532 376 395 C376 253 545 243 545 148 C545 104 500 65 433 65 C398 65 365 71 320 83 L309 0 C340 -10 382 -17 423 -17 C549 -17 642 58 642 160 C642 310 469 302 469 415 C469 515 649 545 649 684 C649 772 599 846 446 846 C248 846 170 744 150 602 L143 556 L70 556 L58 473 Z " />
<glyph glyph-name="agrave" unicode="&#xe0;" horiz-adv-x="640" d="M590 550 C489 569 427 573 386 573 C129 573 35 388 35 181 C35 67 98 -17 222 -17 C305 -17 368 20 432 103 L418 0 L512 0 L590 550 Z M244 65 C190 65 131 97 131 204 C131 360 203 490 367 490 C400 490 436 486 485 476 L451 237 C395 152 317 65 244 65 L244 65 Z M459 640 L339 810 L226 810 L362 640 L459 640 Z " />
<glyph glyph-name="aacute" unicode="&#xe1;" horiz-adv-x="640" d="M590 550 C489 569 427 573 386 573 C129 573 35 388 35 181 C35 67 98 -17 222 -17 C305 -17 368 20 432 103 L418 0 L512 0 L590 550 Z M244 65 C190 65 131 97 131 204 C131 360 203 490 367 490 C400 490 436 486 485 476 L451 237 C395 152 317 65 244 65 L244 65 Z M425 641 L561 811 L448 811 L328 641 L425 641 Z " />
<glyph glyph-name="acircumflex" unicode="&#xe2;" horiz-adv-x="640" d="M590 550 C489 569 427 573 386 573 C129 573 35 388 35 181 C35 67 98 -17 222 -17 C305 -17 368 20 432 103 L418 0 L512 0 L590 550 Z M244 65 C190 65 131 97 131 204 C131 360 203 490 367 490 C400 490 436 486 485 476 L451 237 C395 152 317 65 244 65 L244 65 Z M350 805 L211 641 L318 641 L406 757 L458 641 L564 641 L474 805 L350 805 Z " />
<glyph glyph-name="atilde" unicode="&#xe3;" horiz-adv-x="640" d="M590 550 C489 569 427 573 386 573 C129 573 35 388 35 181 C35 67 98 -17 222 -17 C305 -17 368 20 432 103 L418 0 L512 0 L590 550 Z M244 65 C190 65 131 97 131 204 C131 360 203 490 367 490 C400 490 436 486 485 476 L451 237 C395 152 317 65 244 65 L244 65 Z M350 722 C390 722 428 691 476 691 C504 691 542 701 569 718 L573 784 C544 768 507 759 479 759 C436 759 399 790 352 790 C315 790 275 776 253 764 L250 697 C279 712 320 722 350 722 L350 722 Z " />
<glyph glyph-name="adieresis" unicode="&#xe4;" horiz-adv-x="640" d="M590 550 C489 569 427 573 386 573 C129 573 35 388 35 181 C35 67 98 -17 222 -17 C305 -17 368 20 432 103 L418 0 L512 0 L590 550 Z M244 65 C190 65 131 97 131 204 C131 360 203 490 367 490 C400 490 436 486 485 476 L451 237 C395 152 317 65 244 65 L244 65 Z M463 670 L548 670 L567 800 L483 800 L463 670 Z M241 670 L325 670 L344 800 L260 800 L241 670 Z " />
<glyph glyph-name="aring" unicode="&#xe5;" horiz-adv-x="640" d="M590 550 C489 569 427 573 386 573 C129 573 35 388 35 181 C35 67 98 -17 222 -17 C305 -17 368 20 432 103 L418 0 L512 0 L590 550 Z M244 65 C190 65 131 97 131 204 C131 360 203 490 367 490 C400 490 436 486 485 476 L451 237 C395 152 317 65 244 65 L244 65 Z M290 710 C290 656 332 617 389 617 C463 617 520 673 520 746 C520 799 482 840 421 840 C343 840 290 782 290 710 L290 710 Z M414 798 C452 798 471 771 471 738 C471 699 442 659 396 659 C357 659 339 686 339 718 C339 764 374 798 414 798 L414 798 Z " />
<glyph glyph-name="ae" unicode="&#xe6;" horiz-adv-x="1015" d="M583 551 C492 566 429 573 386 573 C127 573 35 387 35 181 C35 67 98 -17 226 -17 C333 -17 400 53 461 142 C488 40 579 -17 696 -17 C786 -17 846 -9 896 7 L912 95 C842 76 779 65 721 65 C625 65 548 115 548 231 L548 244 L944 244 C961 293 973 349 973 392 C973 498 910 573 760 573 C684 573 624 551 578 515 L583 551 Z M246 65 C191 65 131 97 131 204 C131 361 203 490 365 490 C401 490 434 486 485 476 L460 298 C458 286 456 274 455 262 L451 233 C391 145 309 65 246 65 L246 65 Z M752 490 C813 490 875 467 875 383 C875 363 873 345 864 317 L558 317 C582 418 651 490 752 490 L752 490 Z " />
<glyph glyph-name="ccedilla" unicode="&#xe7;" horiz-adv-x="534" d="M356 -64 C356 -45 350 -29 340 -15 C378 -11 411 -4 443 8 L452 90 C399 71 358 65 299 65 C212 65 133 116 133 235 C133 382 210 490 360 490 C414 490 447 486 504 473 L517 556 C469 567 413 573 367 573 C128 573 36 397 36 217 C36 73 130 -5 253 -15 C273 -27 288 -44 288 -66 C288 -105 249 -129 196 -129 L172 -129 L162 -200 L197 -200 C284 -200 356 -150 356 -64 L356 -64 Z " />
<glyph glyph-name="egrave" unicode="&#xe8;" horiz-adv-x="599" d="M527 244 C545 293 557 349 557 392 C557 498 495 573 346 573 C132 573 36 386 36 218 C36 74 129 -17 287 -17 C357 -17 431 -8 480 8 L495 95 C426 76 365 65 307 65 C210 65 133 115 133 231 L133 244 L527 244 Z M337 490 C398 490 460 467 460 383 C460 363 456 345 448 317 L143 317 C168 418 237 490 337 490 L337 490 Z M428 641 L308 811 L195 811 L331 641 L428 641 Z " />
<glyph glyph-name="eacute" unicode="&#xe9;" horiz-adv-x="599" d="M527 244 C545 293 557 349 557 392 C557 498 495 573 346 573 C132 573 36 386 36 218 C36 74 129 -17 287 -17 C357 -17 431 -8 480 8 L495 95 C426 76 365 65 307 65 C210 65 133 115 133 231 L133 244 L527 244 Z M337 490 C398 490 460 467 460 383 C460 363 456 345 448 317 L143 317 C168 418 237 490 337 490 L337 490 Z M381 641 L517 811 L404 811 L284 641 L381 641 Z " />
<glyph glyph-name="ecircumflex" unicode="&#xea;" horiz-adv-x="599" d="M527 244 C545 293 557 349 557 392 C557 498 495 573 346 573 C132 573 36 386 36 218 C36 74 129 -17 287 -17 C357 -17 431 -8 480 8 L495 95 C426 76 365 65 307 65 C210 65 133 115 133 231 L133 244 L527 244 Z M337 490 C398 490 460 467 460 383 C460 363 456 345 448 317 L143 317 C168 418 237 490 337 490 L337 490 Z M318 805 L179 641 L286 641 L374 757 L426 641 L532 641 L442 805 L318 805 Z " />
<glyph glyph-name="edieresis" unicode="&#xeb;" horiz-adv-x="599" d="M527 244 C545 293 557 349 557 392 C557 498 495 573 346 573 C132 573 36 386 36 218 C36 74 129 -17 287 -17 C357 -17 431 -8 480 8 L495 95 C426 76 365 65 307 65 C210 65 133 115 133 231 L133 244 L527 244 Z M337 490 C398 490 460 467 460 383 C460 363 456 345 448 317 L143 317 C168 418 237 490 337 490 L337 490 Z M433 670 L518 670 L537 800 L453 800 L433 670 Z M211 670 L295 670 L314 800 L230 800 L211 670 Z " />
<glyph glyph-name="igrave" unicode="&#xec;" horiz-adv-x="314" d="M81 0 L185 0 L263 556 L159 556 L81 0 Z M261 641 L141 811 L28 811 L164 641 L261 641 Z " />
<glyph glyph-name="iacute" unicode="&#xed;" horiz-adv-x="314" d="M255 641 L391 811 L278 811 L158 641 L255 641 Z M81 0 L185 0 L263 556 L159 556 L81 0 Z " />
<glyph glyph-name="icircumflex" unicode="&#xee;" horiz-adv-x="314" d="M166 805 L27 641 L134 641 L222 757 L274 641 L380 641 L290 805 L166 805 Z M81 0 L185 0 L263 556 L159 556 L81 0 Z " />
<glyph glyph-name="idieresis" unicode="&#xef;" horiz-adv-x="314" d="M54 670 L138 670 L157 800 L73 800 L54 670 Z M276 670 L361 670 L380 800 L296 800 L276 670 Z M81 0 L185 0 L263 556 L159 556 L81 0 Z " />
<glyph glyph-name="eth" unicode="&#xf0;" horiz-adv-x="669" d="M306 620 L380 697 C431 655 462 606 481 550 C444 563 401 573 355 573 C165 573 38 446 38 232 C38 95 115 -17 288 -17 C477 -17 607 142 607 352 C607 520 573 663 448 768 L511 833 L466 878 L396 806 C374 821 349 834 322 847 L257 769 C282 758 305 746 326 734 L260 667 L306 620 Z M507 354 C507 171 412 65 292 65 C178 65 135 133 135 228 C135 373 197 492 351 492 C412 492 463 481 500 467 C505 431 507 393 507 354 L507 354 Z " />
<glyph glyph-name="ntilde" unicode="&#xf1;" horiz-adv-x="656" d="M35 0 L129 0 L183 387 C262 451 329 490 390 490 C468 490 502 460 489 371 L438 0 L532 0 L585 379 C604 517 546 573 422 573 C335 573 258 528 195 472 L208 566 L113 556 L35 0 Z M321 722 C361 722 399 691 447 691 C475 691 513 701 540 718 L544 784 C515 768 478 759 450 759 C407 759 370 790 323 790 C286 790 246 776 224 764 L221 697 C250 712 291 722 321 722 L321 722 Z " />
<glyph glyph-name="ograve" unicode="&#xf2;" horiz-adv-x="660" d="M38 213 C38 77 108 -17 285 -17 C498 -17 606 133 606 341 C606 476 534 573 361 573 C133 573 38 410 38 213 L38 213 Z M353 490 C451 490 509 434 509 326 C509 167 421 65 292 65 C176 65 135 133 135 229 C135 374 199 490 353 490 L353 490 Z M421 641 L301 811 L188 811 L324 641 L421 641 Z " />
<glyph glyph-name="oacute" unicode="&#xf3;" horiz-adv-x="660" d="M403 641 L539 811 L426 811 L306 641 L403 641 Z M38 213 C38 77 108 -17 285 -17 C498 -17 606 133 606 341 C606 476 534 573 361 573 C133 573 38 410 38 213 L38 213 Z M353 490 C451 490 509 434 509 326 C509 167 421 65 292 65 C176 65 135 133 135 229 C135 374 199 490 353 490 L353 490 Z " />
<glyph glyph-name="ocircumflex" unicode="&#xf4;" horiz-adv-x="660" d="M324 800 L185 636 L292 636 L380 752 L432 636 L538 636 L448 800 L324 800 Z M38 213 C38 77 108 -17 285 -17 C498 -17 606 133 606 341 C606 476 534 573 361 573 C133 573 38 410 38 213 L38 213 Z M353 490 C451 490 509 434 509 326 C509 167 421 65 292 65 C176 65 135 133 135 229 C135 374 199 490 353 490 L353 490 Z " />
<glyph glyph-name="otilde" unicode="&#xf5;" horiz-adv-x="660" d="M38 213 C38 77 108 -17 285 -17 C498 -17 606 133 606 341 C606 476 534 573 361 573 C133 573 38 410 38 213 L38 213 Z M353 490 C451 490 509 434 509 326 C509 167 421 65 292 65 C176 65 135 133 135 229 C135 374 199 490 353 490 L353 490 Z M314 722 C354 722 392 691 440 691 C468 691 506 701 533 718 L537 784 C508 768 471 759 443 759 C400 759 363 790 316 790 C279 790 239 776 217 764 L214 697 C243 712 284 722 314 722 L314 722 Z " />
<glyph glyph-name="odieresis" unicode="&#xf6;" horiz-adv-x="660" d="M222 670 L306 670 L325 800 L241 800 L222 670 Z M444 670 L529 670 L548 800 L464 800 L444 670 Z M38 213 C38 77 108 -17 285 -17 C498 -17 606 133 606 341 C606 476 534 573 361 573 C133 573 38 410 38 213 L38 213 Z M353 490 C451 490 509 434 509 326 C509 167 421 65 292 65 C176 65 135 133 135 229 C135 374 199 490 353 490 L353 490 Z " />
<glyph glyph-name="divide" unicode="&#xf7;" horiz-adv-x="537" d="M459 280 L470 359 L73 359 L62 280 L459 280 Z M185 84 L284 84 L301 197 L202 197 L185 84 Z M235 438 L334 438 L350 552 L251 552 L235 438 Z " />
<glyph glyph-name="oslash" unicode="&#xf8;" horiz-adv-x="661" d="M39 213 C39 160 49 114 72 77 L-25 -17 L55 -17 L109 35 C148 2 206 -17 286 -17 C499 -17 607 133 607 341 C607 395 595 443 570 481 L665 573 L584 573 L532 523 C493 554 437 573 362 573 C134 573 39 410 39 213 L39 213 Z M510 326 C510 167 422 65 293 65 C241 65 204 78 179 102 L495 408 C505 385 510 358 510 326 L510 326 Z M354 490 C399 490 435 478 462 455 L148 150 C139 173 136 200 136 229 C136 374 200 490 354 490 L354 490 Z " />
<glyph glyph-name="ugrave" unicode="&#xf9;" horiz-adv-x="657" d="M202 556 L108 556 L55 178 C36 40 90 -17 214 -17 C300 -17 381 30 446 87 L434 0 L528 0 L606 556 L512 556 L459 177 C402 131 315 65 243 65 C166 65 137 95 150 184 L202 556 Z M434 641 L314 811 L201 811 L337 641 L434 641 Z " />
<glyph glyph-name="uacute" unicode="&#xfa;" horiz-adv-x="657" d="M202 556 L108 556 L55 178 C36 40 90 -17 214 -17 C300 -17 381 30 446 87 L434 0 L528 0 L606 556 L512 556 L459 177 C402 131 315 65 243 65 C166 65 137 95 150 184 L202 556 Z M404 641 L540 811 L427 811 L307 641 L404 641 Z " />
<glyph glyph-name="ucircumflex" unicode="&#xfb;" horiz-adv-x="657" d="M202 556 L108 556 L55 178 C36 40 90 -17 214 -17 C300 -17 381 30 446 87 L434 0 L528 0 L606 556 L512 556 L459 177 C402 131 315 65 243 65 C166 65 137 95 150 184 L202 556 Z M325 805 L186 641 L293 641 L381 757 L433 641 L539 641 L449 805 L325 805 Z " />
<glyph glyph-name="udieresis" unicode="&#xfc;" horiz-adv-x="657" d="M202 556 L108 556 L55 178 C36 40 90 -17 214 -17 C300 -17 381 30 446 87 L434 0 L528 0 L606 556 L512 556 L459 177 C402 131 315 65 243 65 C166 65 137 95 150 184 L202 556 Z M446 670 L531 670 L550 800 L466 800 L446 670 Z M224 670 L308 670 L327 800 L243 800 L224 670 Z " />
<glyph glyph-name="yacute" unicode="&#xfd;" horiz-adv-x="658" d="M442 48 C422 -96 349 -133 233 -133 C173 -133 77 -122 29 -112 L29 -199 C87 -211 169 -217 231 -217 C416 -217 511 -129 533 30 L608 556 L514 556 L464 203 C409 165 328 115 251 115 C175 115 146 147 158 237 L203 556 L109 556 L61 217 C43 90 108 32 232 32 C316 32 389 68 452 120 L442 48 Z M404 641 L540 811 L427 811 L307 641 L404 641 Z " />
<glyph glyph-name="thorn" unicode="&#xfe;" horiz-adv-x="656" d="M7 -200 L101 -200 L129 -9 C167 -13 212 -17 251 -17 C533 -17 604 180 604 365 C604 479 539 573 420 573 C335 573 271 543 194 457 L248 832 L152 832 L7 -200 Z M389 490 C448 490 508 454 508 347 C508 195 433 64 272 64 C249 64 197 65 141 75 L180 352 C234 425 315 490 389 490 L389 490 Z " />
<glyph glyph-name="ydieresis" unicode="&#xff;" horiz-adv-x="658" d="M442 48 C422 -96 349 -133 233 -133 C173 -133 77 -122 29 -112 L29 -199 C87 -211 169 -217 231 -217 C416 -217 511 -129 533 30 L608 556 L514 556 L464 203 C409 165 328 115 251 115 C175 115 146 147 158 237 L203 556 L109 556 L61 217 C43 90 108 32 232 32 C316 32 389 68 452 120 L442 48 Z M450 671 L535 671 L554 801 L470 801 L450 671 Z M228 671 L312 671 L331 801 L247 801 L228 671 Z " />
<glyph glyph-name="dotlessi" unicode="&#x131;" horiz-adv-x="314" d="M81 0 L185 0 L263 556 L159 556 L81 0 Z " />
<glyph glyph-name="Lslash" unicode="&#x141;" horiz-adv-x="567" d="M50 0 L503 0 L516 92 L167 92 L206 373 L380 461 L391 545 L218 457 L267 800 L163 800 L106 400 L32 362 L20 278 L94 316 L50 0 Z " />
<glyph glyph-name="lslash" unicode="&#x142;" horiz-adv-x="311" d="M63 0 L157 0 L209 376 L311 435 L319 511 L220 455 L273 832 L180 832 L118 397 L26 344 L18 266 L107 317 L63 0 Z " />
<glyph glyph-name="OE" unicode="&#x152;" horiz-adv-x="1295" d="M1200 0 L1211 93 L813 93 L851 356 L1138 356 L1150 444 L863 444 L900 707 L1298 707 L1312 800 L811 800 L788 643 C754 747 643 816 517 816 C246 816 59 615 59 346 C59 134 216 -16 402 -16 C557 -16 660 55 721 151 L699 0 L1200 0 Z M503 722 C662 722 756 583 756 446 C756 271 620 78 416 78 C258 78 165 208 165 360 C165 566 303 722 503 722 L503 722 Z " />
<glyph glyph-name="oe" unicode="&#x153;" horiz-adv-x="1082" d="M38 213 C38 77 104 -17 281 -17 C397 -17 488 28 542 106 C578 28 658 -17 770 -17 C840 -17 914 -8 963 8 L978 95 C909 76 848 65 790 65 C693 65 616 115 616 231 L616 244 L1010 244 C1028 293 1040 349 1040 392 C1040 498 978 573 829 573 C717 573 637 521 587 448 C556 523 482 573 365 573 C137 573 38 410 38 213 L38 213 Z M353 491 C451 491 509 434 509 326 C509 167 421 65 292 65 C176 65 135 133 135 229 C135 374 199 491 353 491 L353 491 Z M820 490 C881 490 943 467 943 383 C943 363 939 345 931 317 L626 317 C651 418 720 490 820 490 L820 490 Z " />
<glyph glyph-name="Scaron" unicode="&#x160;" horiz-adv-x="615" d="M447 846 L582 977 L480 977 L396 890 L339 977 L236 977 L337 846 L447 846 Z M445 221 C445 132 365 75 261 75 C171 75 107 92 39 126 L20 33 C81 3 154 -16 245 -16 C411 -16 549 77 549 239 C549 456 193 415 193 579 C193 672 277 725 373 725 C456 725 525 701 574 669 L607 757 C557 790 484 816 390 816 C230 816 92 730 92 563 C92 335 445 389 445 221 L445 221 Z " />
<glyph glyph-name="scaron" unicode="&#x161;" horiz-adv-x="555" d="M393 650 L524 809 L417 809 L331 693 L275 809 L169 809 L264 650 L393 650 Z M234 65 C162 65 90 78 26 94 L14 11 C63 -3 125 -17 230 -17 C402 -17 488 67 488 170 C488 350 155 297 155 402 C157 460 217 490 308 490 C377 490 442 473 499 450 L516 539 C471 554 415 573 315 573 C168 573 58 513 58 392 C58 211 391 266 391 160 C389 88 315 65 234 65 L234 65 Z " />
<glyph glyph-name="Ydieresis" unicode="&#x178;" horiz-adv-x="712" d="M175 800 L60 800 L294 295 L252 0 L356 0 L398 296 L780 800 L673 800 L358 383 L175 800 Z M292 852 L365 852 L381 961 L308 961 L292 852 Z M490 852 L562 852 L578 961 L506 961 L490 852 Z " />
<glyph glyph-name="Zcaron" unicode="&#x17d;" horiz-adv-x="653" d="M546 0 L559 93 L124 93 L645 733 L655 800 L103 800 L90 707 L516 707 L3 79 L-7 0 L546 0 Z M469 846 L604 977 L502 977 L418 890 L361 977 L258 977 L359 846 L469 846 Z " />
<glyph glyph-name="zcaron" unicode="&#x17e;" horiz-adv-x="552" d="M463 0 L475 83 L132 83 L526 502 L524 556 L85 556 L56 473 L399 473 L18 70 L9 0 L463 0 Z M373 650 L504 809 L397 809 L311 693 L255 809 L149 809 L244 650 L373 650 Z " />
<glyph glyph-name="florin" unicode="&#x192;" horiz-adv-x="445" d="M94 376 L193 376 L167 188 C156 105 121 77 71 77 C46 77 16 82 -7 91 L-25 4 C7 -6 41 -12 75 -12 C180 -12 251 56 268 183 L295 376 L424 376 L436 457 L306 457 L329 616 C340 698 381 727 445 727 C470 727 500 724 523 713 L541 800 C511 810 476 816 441 816 C334 816 247 758 228 621 L205 457 L105 457 L94 376 Z " />
<glyph glyph-name="circumflex" unicode="&#x2c6;" horiz-adv-x="626" d="M366 805 L227 641 L334 641 L422 757 L474 641 L580 641 L490 805 L366 805 Z " />
<glyph glyph-name="caron" unicode="&#x2c7;" horiz-adv-x="626" d="M476 650 L607 809 L500 809 L414 693 L358 809 L252 809 L347 650 L476 650 Z " />
<glyph glyph-name="breve" unicode="&#x2d8;" horiz-adv-x="591" d="M480 800 C471 730 434 713 395 713 C356 713 325 731 334 800 L248 800 C236 711 274 651 386 651 C493 651 553 710 566 800 L480 800 Z " />
<glyph glyph-name="dotaccent" unicode="&#x2d9;" horiz-adv-x="472" d="M286 670 L380 670 L399 800 L305 800 L286 670 Z " />
<glyph glyph-name="ring" unicode="&#x2da;" horiz-adv-x="527" d="M250 710 C250 656 292 617 349 617 C423 617 480 673 480 746 C480 799 442 840 381 840 C303 840 250 782 250 710 L250 710 Z M374 798 C412 798 431 771 431 738 C431 699 402 659 356 659 C317 659 299 686 299 718 C299 764 334 798 374 798 L374 798 Z " />
<glyph glyph-name="ogonek" unicode="&#x2db;" horiz-adv-x="491" d="M269 -100 C269 -155 313 -204 393 -204 L422 -204 L431 -140 L412 -140 C366 -140 336 -122 336 -85 C336 -34 401 -7 444 0 L434 46 C355 32 269 -11 269 -100 L269 -100 Z " />
<glyph glyph-name="tilde" unicode="&#x2dc;" horiz-adv-x="543" d="M321 722 C361 722 399 691 447 691 C475 691 513 701 540 718 L544 784 C515 768 478 759 450 759 C407 759 370 790 323 790 C286 790 246 776 224 764 L221 697 C250 712 291 722 321 722 L321 722 Z " />
<glyph glyph-name="hungarumlaut" unicode="&#x2dd;" horiz-adv-x="639" d="M314 646 L447 800 L351 800 L227 646 L314 646 Z M499 646 L652 800 L555 800 L412 646 L499 646 Z " />
<glyph glyph-name="pi" unicode="&#x3c0;" horiz-adv-x="720" d="M692 473 L705 556 L56 556 L43 473 L138 473 L72 0 L166 0 L232 473 L516 473 L464 98 C453 18 485 -17 564 -17 C581 -17 604 -15 624 -12 L635 67 C626 65 613 64 605 64 C576 64 555 77 561 117 L610 473 L692 473 Z " />
<glyph glyph-name="endash" unicode="&#x2013;" horiz-adv-x="595" d="M510 271 L521 351 L77 351 L66 271 L510 271 Z " />
<glyph glyph-name="emdash" unicode="&#x2014;" horiz-adv-x="993" d="M908 271 L919 351 L77 351 L66 271 L908 271 Z " />
<glyph glyph-name="quoteleft" unicode="&#x2018;" horiz-adv-x="262" d="M217 838 C138 790 68 685 58 613 C53 580 75 553 110 553 C141 553 173 583 177 613 C157 626 152 644 156 670 C161 707 206 773 244 809 L217 838 Z " />
<glyph glyph-name="quoteright" unicode="&#x2019;" horiz-adv-x="254" d="M75 553 C154 601 224 706 234 778 C239 811 217 838 182 838 C151 838 119 808 115 778 C135 765 140 747 136 721 C131 684 86 618 48 582 L75 553 Z " />
<glyph glyph-name="quotesinglbase" unicode="&#x201a;" horiz-adv-x="264" d="M35 -131 C114 -83 184 22 194 94 C199 127 177 154 142 154 C111 154 79 124 75 94 C95 81 100 63 96 37 C91 0 46 -66 8 -102 L35 -131 Z " />
<glyph glyph-name="quotedblleft" unicode="&#x201c;" horiz-adv-x="487" d="M217 838 C138 790 68 685 58 613 C53 580 75 553 110 553 C141 553 173 583 177 613 C157 626 152 644 156 670 C161 707 206 773 244 809 L217 838 Z M440 838 C361 790 291 685 281 613 C276 580 298 553 333 553 C364 553 396 583 400 613 C380 626 375 644 379 670 C384 707 429 773 467 809 L440 838 Z " />
<glyph glyph-name="quotedblright" unicode="&#x201d;" horiz-adv-x="478" d="M75 553 C154 601 224 706 234 778 C239 811 217 838 182 838 C151 838 119 808 115 778 C135 765 140 747 136 721 C131 684 86 618 48 582 L75 553 Z M280 553 C359 601 429 706 439 778 C444 811 422 838 387 838 C356 838 324 808 320 778 C340 765 345 747 341 721 C336 684 291 618 253 582 L280 553 Z " />
<glyph glyph-name="quotedblbase" unicode="&#x201e;" horiz-adv-x="478" d="M75 -131 C154 -83 224 22 234 94 C239 127 217 154 182 154 C151 154 119 124 115 94 C135 81 140 63 136 37 C131 0 86 -66 48 -102 L75 -131 Z M280 -131 C359 -83 429 22 439 94 C444 127 422 154 387 154 C356 154 324 124 320 94 C340 81 345 63 341 37 C336 0 291 -66 253 -102 L280 -131 Z " />
<glyph glyph-name="dagger" unicode="&#x2020;" horiz-adv-x="615" d="M58 468 L280 468 L252 323 L207 0 L310 0 L355 323 L368 468 L593 468 L606 556 L379 556 L422 800 L319 800 L293 556 L71 556 L58 468 Z " />
<glyph glyph-name="daggerdbl" unicode="&#x2021;" horiz-adv-x="656" d="M85 507 L308 507 L280 305 L56 305 L44 217 L266 217 L228 0 L331 0 L353 217 L579 217 L591 305 L364 305 L392 507 L619 507 L632 595 L406 595 L443 800 L340 800 L319 595 L97 595 L85 507 Z " />
<glyph glyph-name="bullet" unicode="&#x2022;" horiz-adv-x="407" d="M69 284 L322 284 L357 529 L104 529 L69 284 Z " />
<glyph glyph-name="ellipsis" unicode="&#x2026;" horiz-adv-x="750" d="M31 0 L140 0 L161 154 L52 154 L31 0 Z M275 0 L384 0 L405 154 L296 154 L275 0 Z M519 0 L628 0 L649 154 L540 154 L519 0 Z " />
<glyph glyph-name="perthousand" unicode="&#x2030;" horiz-adv-x="1652" d="M206 0 L305 0 L971 799 L873 799 L206 0 Z M162 541 C162 636 203 742 318 742 C408 742 436 688 436 618 C436 461 358 410 274 410 C200 410 162 461 162 541 L162 541 Z M330 815 C162 815 74 695 74 531 C74 419 143 337 263 337 C436 337 524 444 524 625 C524 733 466 815 330 815 L330 815 Z M747 187 C747 282 789 388 903 388 C993 388 1021 334 1021 264 C1021 108 944 57 859 57 C786 57 747 107 747 187 L747 187 Z M915 461 C747 461 659 341 659 177 C659 66 725 -16 847 -16 C1021 -16 1110 91 1110 271 C1110 378 1051 461 915 461 L915 461 Z M1235 187 C1235 282 1277 388 1391 388 C1481 388 1509 334 1509 264 C1509 108 1432 57 1347 57 C1274 57 1235 107 1235 187 L1235 187 Z M1403 461 C1235 461 1147 341 1147 177 C1147 66 1213 -16 1336 -16 C1509 -16 1598 91 1598 271 C1598 378 1539 461 1403 461 L1403 461 Z " />
<glyph glyph-name="guilsinglleft" unicode="&#x2039;" horiz-adv-x="319" d="M293 510 L204 510 L43 280 L135 46 L225 46 L146 280 L293 510 Z " />
<glyph glyph-name="guilsinglright" unicode="&#x203a;" horiz-adv-x="319" d="M158 280 L14 46 L103 46 L260 280 L164 510 L76 510 L158 280 Z " />
<glyph glyph-name="fraction" unicode="&#x2044;" horiz-adv-x="226" d="M-176 0 L-83 0 L420 800 L327 800 L-176 0 Z " />
<glyph glyph-name="Euro" unicode="&#x20ac;" horiz-adv-x="769" d="M605 457 L614 526 L262 526 C310 651 417 723 571 723 C633 723 693 708 741 680 L779 768 C728 800 647 816 578 816 C363 816 213 700 154 526 L70 526 L61 457 L136 457 C129 421 125 384 125 345 L45 345 L36 276 L130 276 C154 108 270 -16 457 -16 C537 -16 616 5 677 38 L669 125 C612 96 547 78 482 78 C348 78 267 160 242 276 L580 276 L589 345 L234 345 L234 355 C234 391 237 425 243 457 L605 457 Z " />
<glyph glyph-name="trademark" unicode="&#x2122;" horiz-adv-x="1289" d="M821 260 L884 260 L1140 665 L1083 260 L1161 260 L1237 800 L1156 800 L865 353 L707 800 L627 800 L551 260 L629 260 L684 650 L821 260 Z M583 724 L594 800 L123 800 L113 724 L309 724 L244 260 L322 260 L387 724 L583 724 Z " />
<glyph glyph-name="Omega" unicode="&#x2126;" horiz-adv-x="911" d="M853 492 C853 685 728 816 518 816 C270 816 83 608 83 378 C83 261 140 152 232 100 L232 99 L28 99 L14 0 L351 0 L365 99 C268 134 193 237 193 363 C193 577 335 723 510 723 C661 723 744 628 744 480 C744 316 634 152 482 99 L468 0 L806 0 L820 99 L608 99 L608 101 C775 172 853 339 853 492 L853 492 Z " />
<glyph glyph-name="partialdiff" unicode="&#x2202;" horiz-adv-x="664" d="M507 485 C484 543 424 573 361 573 C144 573 44 449 33 248 C22 93 91 -17 277 -17 C494 -17 596 140 606 354 C623 588 551 748 321 841 L267 780 C375 734 487 653 507 485 L507 485 Z M134 249 C140 398 205 491 349 491 C451 491 508 434 502 310 C496 150 407 66 290 66 C169 66 128 142 134 249 L134 249 Z " />
<glyph glyph-name="Delta" unicode="&#x2206;" horiz-adv-x="802" d="M4 80 L-7 0 L718 0 L730 80 L526 800 L418 800 L4 80 Z M455 699 L457 699 L621 93 L108 93 L455 699 Z " />
<glyph glyph-name="product" unicode="&#x220f;" horiz-adv-x="837" d="M501 -200 L606 -200 L735 701 L847 701 L861 800 L110 800 L96 701 L200 701 L71 -200 L174 -200 L303 701 L630 701 L501 -200 Z " />
<glyph glyph-name="summation" unicode="&#x2211;" horiz-adv-x="629" d="M512 -200 L525 -101 L129 -101 L347 291 L348 299 L229 701 L626 701 L640 800 L117 800 L106 722 L245 297 L0 -122 L-10 -200 L512 -200 Z " />
<glyph glyph-name="minus" unicode="&#x2212;" horiz-adv-x="627" d="M539 284 L548 355 L83 355 L74 284 L539 284 Z " />
<glyph glyph-name="radical" unicode="&#x221a;" horiz-adv-x="777" d="M306 0 L415 0 L844 832 L743 832 L377 97 L273 556 L53 556 L42 474 L193 474 L306 0 Z " />
<glyph glyph-name="infinity" unicode="&#x221e;" horiz-adv-x="892" d="M690 504 C613 504 529 430 447 355 C388 430 325 504 254 504 C138 504 68 388 68 271 C68 188 106 118 193 118 C269 118 351 187 430 260 C489 188 554 120 630 120 C751 120 817 230 817 349 C817 433 775 504 690 504 L690 504 Z M216 195 C171 195 141 226 141 295 C141 359 189 427 252 427 C295 427 343 369 393 306 C328 247 266 195 216 195 L216 195 Z M664 422 C709 422 738 382 738 327 C738 239 677 197 628 197 C580 197 532 250 484 310 C549 369 612 422 664 422 L664 422 Z " />
<glyph glyph-name="integral" unicode="&#x222b;" horiz-adv-x="452" d="M-68 -206 C102 -206 205 -175 232 8 L313 584 C329 701 382 709 497 709 L510 800 C368 800 236 774 211 597 L130 21 C113 -97 62 -119 -56 -119 L-68 -206 Z " />
<glyph glyph-name="approxequal" unicode="&#x2248;" horiz-adv-x="684" d="M478 346 C534 346 574 366 613 398 L606 470 C578 446 531 426 488 426 C396 426 355 486 236 486 C183 486 124 453 95 434 L99 362 C118 372 169 407 221 407 C324 407 375 346 478 346 L478 346 Z M452 160 C509 160 547 179 587 211 L580 283 C552 259 504 240 461 240 C370 240 329 300 210 300 C157 300 97 267 68 248 L73 176 C92 186 143 221 194 221 C297 221 349 160 452 160 L452 160 Z " />
<glyph glyph-name="notequal" unicode="&#x2260;" horiz-adv-x="521" d="M47 63 L119 63 L198 178 L430 178 L440 248 L246 248 L337 381 L459 381 L468 451 L385 451 L459 558 L387 558 L313 451 L88 451 L78 381 L265 381 L174 248 L60 248 L49 178 L126 178 L47 63 Z " />
<glyph glyph-name="lessequal" unicode="&#x2264;" horiz-adv-x="567" d="M530 581 L71 378 L59 295 L464 116 L477 204 L153 336 L517 492 L530 581 Z M448 7 L459 86 L34 86 L22 7 L448 7 Z " />
<glyph glyph-name="greaterequal" unicode="&#x2265;" horiz-adv-x="562" d="M452 7 L463 86 L38 86 L26 7 L452 7 Z M94 492 L414 336 L54 204 L41 116 L497 295 L508 378 L107 581 L94 492 Z " />
<glyph glyph-name="lozenge" unicode="&#x25ca;" horiz-adv-x="688" d="M45 402 L240 0 L354 0 L659 400 L471 800 L356 800 L45 402 Z M549 400 L308 80 L154 402 L401 721 L549 400 Z " />
<glyph glyph-name="apple" unicode="&#xf8ff;" horiz-adv-x="1197" d="M469 408 L450 408 L450 437 L469 437 L469 408 Z M529 408 L510 408 L510 437 L529 437 L529 408 Z M709 428 L690 428 L690 437 L709 437 L709 428 Z M769 408 L750 408 L750 437 L769 437 L769 408 Z M889 428 L870 428 L870 437 L889 437 L889 428 Z M120 417 L120 428 L110 428 L110 438 L99 438 L99 428 L89 428 L89 417 L99 417 L99 407 L110 407 L110 417 L120 417 Z M160 398 L160 408 L149 408 L149 398 L160 398 Z M190 417 L190 428 L180 428 L180 438 L169 438 L169 428 L159 428 L159 417 L169 417 L169 407 L180 407 L180 417 L190 417 Z M160 437 L160 448 L149 448 L149 437 L160 437 Z M200 398 L200 408 L189 408 L189 398 L200 398 Z M200 437 L200 448 L189 448 L189 437 L200 437 Z M250 398 L250 408 L239 408 L239 398 L229 398 L229 388 L240 388 L240 398 L250 398 Z M280 417 L280 428 L270 428 L270 438 L259 438 L259 428 L249 428 L249 417 L259 417 L259 407 L270 407 L270 417 L280 417 Z M250 437 L250 448 L240 448 L240 458 L229 458 L229 447 L239 447 L239 437 L250 437 Z M300 388 L300 398 L290 398 L290 408 L279 408 L279 398 L289 398 L289 388 L300 388 Z M300 447 L300 458 L289 458 L289 448 L279 448 L279 437 L290 437 L290 447 L300 447 Z M360 398 L360 408 L340 408 L340 437 L360 437 L360 448 L340 448 L340 458 L329 458 L329 448 L319 448 L319 437 L329 437 L329 407 L339 407 L339 398 L360 398 Z M420 407 L420 448 L409 448 L409 408 L390 408 L390 448 L379 448 L379 407 L389 407 L389 389 L379 389 L379 378 L390 378 L390 388 L400 388 L400 398 L410 398 L410 407 L420 407 Z M480 407 L480 438 L470 438 L470 448 L439 448 L439 378 L450 378 L450 398 L470 398 L470 407 L480 407 Z M540 407 L540 438 L530 438 L530 448 L509 448 L509 438 L499 438 L499 407 L509 407 L509 398 L530 398 L530 407 L540 407 Z M600 398 L600 408 L580 408 L580 437 L600 437 L600 448 L580 448 L580 458 L569 458 L569 448 L559 448 L559 437 L569 437 L569 407 L579 407 L579 398 L600 398 Z M660 398 L660 438 L650 438 L650 448 L630 448 L630 468 L619 468 L619 398 L630 398 L630 437 L649 437 L649 398 L660 398 Z M720 398 L720 408 L690 408 L690 417 L720 417 L720 438 L710 438 L710 448 L689 448 L689 438 L679 438 L679 407 L689 407 L689 398 L720 398 Z M780 378 L780 448 L749 448 L749 438 L739 438 L739 407 L749 407 L749 398 L769 398 L769 378 L780 378 Z M840 398 L840 448 L829 448 L829 408 L810 408 L810 448 L799 448 L799 407 L809 407 L809 398 L840 398 Z M900 398 L900 408 L870 408 L870 417 L900 417 L900 438 L890 438 L890 448 L869 448 L869 438 L859 438 L859 407 L869 407 L869 398 L900 398 Z M940 398 L940 408 L929 408 L929 398 L919 398 L919 388 L930 388 L930 398 L940 398 Z M970 417 L970 428 L960 428 L960 438 L949 438 L949 428 L939 428 L939 417 L949 417 L949 407 L960 407 L960 417 L970 417 Z M940 437 L940 448 L930 448 L930 458 L919 458 L919 447 L929 447 L929 437 L940 437 Z M990 388 L990 398 L980 398 L980 408 L969 408 L969 398 L979 398 L979 388 L990 388 Z M990 447 L990 458 L979 458 L979 448 L969 448 L969 437 L980 437 L980 447 L990 447 Z M1030 398 L1030 408 L1019 408 L1019 398 L1030 398 Z M1060 417 L1060 428 L1050 428 L1050 438 L1039 438 L1039 428 L1029 428 L1029 417 L1039 417 L1039 407 L1050 407 L1050 417 L1060 417 Z M1030 437 L1030 448 L1019 448 L1019 437 L1030 437 Z M1070 398 L1070 408 L1059 408 L1059 398 L1070 398 Z M1070 437 L1070 448 L1059 448 L1059 437 L1070 437 Z M1130 417 L1130 428 L1120 428 L1120 438 L1109 438 L1109 428 L1099 428 L1099 417 L1109 417 L1109 407 L1120 407 L1120 417 L1130 417 Z " />
<glyph glyph-name="fi" unicode="&#xfb01;" horiz-adv-x="664" d="M47 473 L131 473 L66 0 L159 0 L224 473 L508 473 L442 0 L535 0 L613 556 L236 556 L247 637 C259 727 310 763 377 763 C403 763 436 759 460 747 L475 829 C444 839 413 845 376 845 C265 845 175 784 155 641 L143 556 L59 556 L47 473 Z M536 670 L629 670 L648 800 L555 800 L536 670 Z " />
<glyph glyph-name="fl" unicode="&#xfb02;" horiz-adv-x="659" d="M428 0 L521 0 L637 832 L546 832 C505 839 454 845 417 845 C282 845 177 797 154 636 L143 556 L61 556 L49 473 L131 473 L66 0 L158 0 L224 473 L403 473 L415 556 L235 556 L246 631 C260 735 333 763 413 763 C434 763 495 754 532 746 L428 0 Z " />
</font>
</svg>
