<?xml version="1.0" encoding="UTF-8"?>
<svg xmlns="http://www.w3.org/2000/svg" xmlns:xlink="http://www.w3.org/1999/xlink" version="1.2" >
<font id="Neue Regular">
<font-face  font-family="Neue" units-per-em="1000" ascent="800" descent="-200" font-style="normal" font-weight="400" font-stretch="normal" cap-height="800" x-height="556" underline-position="-75" underline-thickness="50" />
<missing-glyph  horiz-adv-x="280" d="" />
<glyph glyph-name="NULL" d="" />
<glyph glyph-name="CR" unicode="&#xd;" horiz-adv-x="250" d="" />
<glyph glyph-name="space" unicode="&#x20;" horiz-adv-x="280" d="" />
<glyph glyph-name="exclam" unicode="&#x21;" horiz-adv-x="322" d="M112 280 L210 280 L215 486 L215 800 L107 800 L107 486 L112 280 Z M107 0 L215 0 L215 155 L107 155 L107 0 Z " />
<glyph glyph-name="quotedbl" unicode="&#x22;" horiz-adv-x="476" d="M176 832 L70 832 L77 532 L169 532 L176 832 Z M406 832 L300 832 L306 532 L398 532 L406 832 Z " />
<glyph glyph-name="numbersign" unicode="&#x23;" horiz-adv-x="877" d="M518 0 L618 0 L638 179 L816 179 L816 261 L648 261 L679 540 L816 540 L816 622 L689 622 L709 800 L609 800 L589 622 L337 622 L357 800 L257 800 L237 622 L61 622 L61 540 L227 540 L196 261 L61 261 L61 179 L186 179 L166 0 L266 0 L286 179 L538 179 L518 0 Z M327 540 L579 540 L548 261 L296 261 L327 540 Z " />
<glyph glyph-name="dollar" unicode="&#x24;" horiz-adv-x="616" d="M273 -92 L365 -92 L365 -11 C496 13 571 107 571 223 C571 357 468 401 365 435 L365 727 C427 721 490 704 534 677 L553 764 C511 789 442 809 365 814 L365 895 L273 895 L273 812 C146 795 55 711 55 581 C55 440 165 396 273 360 L273 71 C195 75 127 93 63 124 L58 29 C117 1 191 -14 273 -16 L273 -92 Z M154 591 C154 659 203 708 273 723 L273 466 C206 491 154 523 154 591 L154 591 Z M471 209 C471 149 433 99 365 79 L365 328 C425 303 471 271 471 209 L471 209 Z " />
<glyph glyph-name="percent" unicode="&#x25;" horiz-adv-x="1136" d="M240 0 L327 0 L887 800 L800 800 L240 0 Z M130 576 C130 690 180 742 259 742 C369 742 398 671 398 573 C398 454 339 410 261 410 C175 410 130 465 130 576 L130 576 Z M41 576 C41 433 106 337 261 337 C421 337 487 433 487 576 C487 720 419 815 261 815 C107 815 41 720 41 576 L41 576 Z M737 223 C737 351 798 389 870 389 C945 389 1005 351 1005 223 C1005 103 948 57 870 57 C766 57 737 133 737 223 L737 223 Z M648 223 C648 82 713 -16 870 -16 C1027 -16 1095 79 1095 223 C1095 367 1027 462 870 462 C713 462 648 367 648 223 L648 223 Z " />
<glyph glyph-name="ampersand" unicode="&#x26;" horiz-adv-x="861" d="M685 375 C664 287 628 212 577 159 C482 215 394 294 336 379 C474 431 639 476 639 625 C639 733 554 816 409 816 C251 816 167 705 167 584 C167 529 182 472 208 416 C120 373 50 312 50 202 C50 52 166 -17 330 -17 C423 -17 509 9 580 59 C660 22 745 0 827 0 L838 74 C777 76 712 93 649 121 C696 175 732 243 753 325 L685 375 Z M260 584 C260 682 323 738 407 738 C480 738 546 704 546 622 C546 531 418 499 293 452 C272 497 260 541 260 584 L260 584 Z M345 64 C231 64 148 103 148 212 C148 273 190 312 250 342 C311 250 400 164 502 101 C457 77 405 64 345 64 L345 64 Z " />
<glyph glyph-name="quotesingle" unicode="&#x27;" horiz-adv-x="246" d="M176 832 L70 832 L77 532 L169 532 L176 832 Z " />
<glyph glyph-name="parenleft" unicode="&#x28;" horiz-adv-x="351" d="M275 866 C167 781 46 571 46 353 C46 139 146 -70 278 -187 L332 -138 C228 -26 134 153 134 352 C134 546 244 728 328 814 L275 866 Z " />
<glyph glyph-name="parenright" unicode="&#x29;" horiz-adv-x="351" d="M23 814 C108 728 218 534 218 352 C218 165 124 -26 19 -138 L73 -187 C205 -70 306 150 306 353 C306 560 184 781 77 866 L23 814 Z " />
<glyph glyph-name="asterisk" unicode="&#x2a;" horiz-adv-x="527" d="M478 622 L457 686 L296 644 L297 800 L224 800 L226 643 L70 690 L49 626 L209 574 L102 438 L156 398 L264 533 L370 397 L424 437 L319 575 L478 622 Z " />
<glyph glyph-name="plus" unicode="&#x2b;" horiz-adv-x="582" d="M328 566 L257 566 L257 357 L45 357 L45 286 L257 286 L257 74 L328 74 L328 286 L537 286 L537 357 L328 357 L328 566 Z " />
<glyph glyph-name="comma" unicode="&#x2c;" horiz-adv-x="267" d="M117 -121 L203 162 L88 162 L42 -121 L117 -121 Z " />
<glyph glyph-name="&amp;#x2d;" unicode="&#x2d;" horiz-adv-x="462" d="M387 264 L387 345 L75 345 L75 264 L387 264 Z " />
<glyph glyph-name="&amp;#xad;" unicode="&#xad;" horiz-adv-x="462" d="M387 264 L387 345 L75 345 L75 264 L387 264 Z " />
<glyph glyph-name="period" unicode="&#x2e;" horiz-adv-x="259" d="M75 0 L184 0 L184 154 L75 154 L75 0 Z " />
<glyph glyph-name="slash" unicode="&#x2f;" horiz-adv-x="515" d="M36 0 L122 0 L479 800 L393 800 L36 0 Z " />
<glyph glyph-name="zero" unicode="0" horiz-adv-x="746" d="M60 401 C60 154 153 -15 373 -15 C593 -15 686 154 686 401 C686 647 593 816 373 816 C153 816 60 647 60 401 L60 401 Z M164 401 C164 617 248 725 374 725 C525 725 582 585 582 404 C582 219 526 76 374 76 C240 76 164 195 164 401 L164 401 Z " />
<glyph glyph-name="one" unicode="1" horiz-adv-x="611" d="M600 0 L600 93 L387 93 L387 807 L363 807 L56 756 L56 661 L283 692 L283 93 L56 93 L56 0 L600 0 Z " />
<glyph glyph-name="two" unicode="2" horiz-adv-x="653" d="M607 0 L607 93 L188 93 L187 95 C353 213 577 397 577 588 C577 725 488 816 303 816 C198 816 115 785 49 748 L60 658 C124 692 221 726 287 726 C424 726 470 654 470 577 C470 422 238 222 59 93 L59 0 L607 0 Z " />
<glyph glyph-name="three" unicode="3" horiz-adv-x="637" d="M569 621 C569 736 463 816 297 816 C202 816 123 792 60 754 L70 664 C150 703 215 722 281 721 C403 721 455 666 455 602 C455 514 371 468 212 437 L225 359 C378 367 462 306 462 215 C462 144 405 75 268 74 C203 74 124 92 60 123 L49 33 C109 4 174 -15 262 -15 C451 -15 571 81 571 215 C571 323 505 398 377 413 L377 415 C508 449 569 525 569 621 L569 621 Z " />
<glyph glyph-name="four" unicode="4" horiz-adv-x="662" d="M638 169 L638 262 L522 262 L522 475 L419 475 L419 262 L137 262 L384 800 L279 800 L28 256 L28 169 L419 169 L419 0 L522 0 L522 169 L638 169 Z " />
<glyph glyph-name="five" unicode="5" horiz-adv-x="643" d="M483 224 C483 124 401 73 298 73 C215 73 130 94 61 128 L49 39 C131 0 221 -15 301 -15 C495 -15 589 104 589 235 C589 412 393 472 184 477 L205 707 L569 707 L576 800 L115 800 L83 398 C314 392 483 345 483 224 L483 224 Z " />
<glyph glyph-name="six" unicode="6" horiz-adv-x="686" d="M555 811 C543 811 527 813 509 813 C264 813 57 635 57 330 C57 128 148 -17 349 -17 C538 -17 643 99 643 249 C643 414 522 491 388 491 C306 491 230 466 171 426 C200 596 314 720 526 720 C544 720 567 719 587 717 L555 811 Z M367 401 C463 401 533 348 533 243 C533 152 484 69 355 69 C226 69 165 166 164 330 C216 371 297 401 367 401 L367 401 Z " />
<glyph glyph-name="seven" unicode="7" horiz-adv-x="572" d="M250 0 L567 767 L560 800 L27 800 L15 702 L442 702 L141 0 L250 0 Z " />
<glyph glyph-name="eight" unicode="8" horiz-adv-x="705" d="M61 202 C61 53 202 -17 338 -17 C483 -17 641 62 641 233 C641 336 570 385 484 419 C566 455 636 514 636 606 C636 738 513 816 366 816 C217 816 75 735 75 589 C75 500 130 452 203 418 C124 380 61 306 61 202 L61 202 Z M535 221 C535 123 454 69 352 69 C245 69 159 120 159 222 C159 297 225 359 291 386 C410 347 535 321 535 221 L535 221 Z M177 603 C177 684 258 730 355 730 C453 730 532 682 532 592 C532 528 474 480 397 448 C285 482 177 510 177 603 L177 603 Z " />
<glyph glyph-name="nine" unicode="9" horiz-adv-x="684" d="M128 -11 C140 -12 156 -13 173 -13 C419 -13 627 155 627 460 C627 671 535 816 333 816 C156 816 44 704 44 543 C44 396 163 303 295 303 C385 303 456 331 511 369 C483 199 369 86 156 86 C138 86 115 87 95 88 L128 -11 Z M322 391 C224 391 150 455 150 549 C150 648 212 731 328 731 C455 731 516 625 518 461 C469 421 400 391 322 391 L322 391 Z " />
<glyph glyph-name="colon" unicode="&#x3a;" horiz-adv-x="259" d="M75 0 L184 0 L184 154 L75 154 L75 0 Z M75 419 L184 419 L184 573 L75 573 L75 419 Z " />
<glyph glyph-name="semicolon" unicode="&#x3b;" horiz-adv-x="292" d="M100 418 L209 418 L209 572 L100 572 L100 418 Z M126 -121 L212 162 L98 162 L52 -121 L126 -121 Z " />
<glyph glyph-name="less" unicode="&#x3c;" horiz-adv-x="540" d="M472 577 L39 351 L39 269 L472 57 L472 145 L127 310 L472 487 L472 577 Z " />
<glyph glyph-name="equal" unicode="&#x3d;" horiz-adv-x="575" d="M496 381 L496 451 L79 451 L79 381 L496 381 Z M496 178 L496 248 L79 248 L79 178 L496 178 Z " />
<glyph glyph-name="greater" unicode="&#x3e;" horiz-adv-x="540" d="M68 492 L413 314 L68 149 L68 61 L501 273 L501 356 L68 581 L68 492 Z " />
<glyph glyph-name="question" unicode="&#x3f;" horiz-adv-x="614" d="M185 0 L294 0 L294 153 L185 153 L185 0 Z M189 268 L294 268 L294 351 C464 385 570 451 570 587 C570 756 449 816 301 816 C206 816 114 788 39 745 L62 654 C135 694 210 717 292 717 C390 717 464 680 464 576 C464 496 394 428 189 396 L189 268 Z " />
<glyph glyph-name="at" unicode="&#x40;" horiz-adv-x="894" d="M539 189 C546 130 603 113 651 113 C772 113 851 221 851 374 C851 598 703 706 482 706 C260 706 58 584 58 295 C58 7 235 -105 477 -105 C552 -105 634 -92 708 -60 L711 16 C638 -15 551 -28 483 -28 C295 -28 139 54 139 299 C139 508 278 628 479 628 C661 628 770 537 770 377 C770 278 722 184 652 184 C621 184 595 205 599 238 L625 469 C581 486 528 496 486 496 C332 496 260 403 260 264 C260 160 314 105 396 105 C447 105 505 135 539 189 L539 189 Z M412 184 C380 184 341 201 341 273 C341 401 419 426 479 426 C499 426 515 424 539 415 L516 249 C489 206 448 184 412 184 L412 184 Z " />
<glyph glyph-name="A" unicode="A" horiz-adv-x="769" d="M649 0 L755 0 L435 800 L337 800 L11 0 L116 0 L215 255 L552 255 L649 0 Z M386 693 L520 341 L249 341 L386 693 Z " />
<glyph glyph-name="B" unicode="B" horiz-adv-x="704" d="M101 0 L356 0 C529 0 621 93 621 216 C621 306 576 373 487 404 C575 436 621 504 621 590 C621 715 529 800 355 800 L101 800 L101 0 Z M358 359 C461 359 513 302 513 224 C513 151 464 90 358 90 L205 90 L205 359 L358 359 Z M358 710 C460 710 513 652 513 575 C513 503 463 441 358 441 L205 441 L205 710 L358 710 Z " />
<glyph glyph-name="C" unicode="C" horiz-adv-x="723" d="M670 118 C614 87 543 76 472 76 C288 76 160 203 160 400 C160 598 288 724 471 724 C536 724 614 714 666 686 L671 780 C615 807 535 816 465 816 C219 816 50 644 50 398 C50 151 221 -17 460 -17 C542 -17 620 -1 673 27 L670 118 Z " />
<glyph glyph-name="D" unicode="D" horiz-adv-x="822" d="M102 0 L363 0 C584 0 767 179 767 400 C767 627 584 800 363 800 L102 800 L102 0 Z M363 708 C545 708 664 569 664 400 C664 232 547 92 363 92 L206 92 L206 708 L363 708 Z " />
<glyph glyph-name="E" unicode="E" horiz-adv-x="634" d="M601 0 L601 92 L207 92 L207 355 L483 355 L483 445 L207 445 L207 708 L601 708 L601 800 L103 800 L103 0 L601 0 Z " />
<glyph glyph-name="F" unicode="F" horiz-adv-x="601" d="M484 352 L484 445 L207 445 L207 708 L602 708 L602 800 L103 800 L103 0 L207 0 L207 352 L484 352 Z " />
<glyph glyph-name="G" unicode="G" horiz-adv-x="794" d="M437 338 L618 338 L618 94 C569 82 520 76 475 76 C281 76 156 202 156 401 C156 598 283 723 474 723 C559 723 652 705 713 669 L720 764 C667 796 567 816 473 816 C218 816 48 641 48 399 C48 140 233 -17 472 -17 C574 -17 661 6 720 41 L720 429 L437 429 L437 338 Z " />
<glyph glyph-name="H" unicode="H" horiz-adv-x="917" d="M710 0 L814 0 L814 800 L710 800 L710 448 L207 448 L207 800 L103 800 L103 0 L207 0 L207 355 L710 355 L710 0 Z " />
<glyph glyph-name="I" unicode="I" horiz-adv-x="310" d="M104 0 L208 0 L208 800 L104 800 L104 0 Z " />
<glyph glyph-name="J" unicode="J" horiz-adv-x="447" d="M244 333 C244 203 199 88 13 88 L13 0 C254 0 348 135 348 333 L348 800 L244 800 L244 333 Z " />
<glyph glyph-name="K" unicode="K" horiz-adv-x="675" d="M103 0 L207 0 L207 361 L537 0 L678 0 L295 408 L678 800 L544 800 L207 439 L207 800 L103 800 L103 0 Z " />
<glyph glyph-name="L" unicode="L" horiz-adv-x="586" d="M103 0 L556 0 L556 92 L207 92 L207 800 L103 800 L103 0 Z " />
<glyph glyph-name="M" unicode="M" horiz-adv-x="1089" d="M498 0 L578 0 L882 600 L882 0 L986 0 L986 800 L882 800 L882 799 L881 800 L539 120 L207 800 L103 800 L103 0 L207 0 L207 586 L498 0 Z " />
<glyph glyph-name="N" unicode="N" horiz-adv-x="950" d="M740 0 L847 0 L847 800 L744 800 L744 142 L200 800 L103 800 L103 0 L207 0 L207 643 L740 0 Z " />
<glyph glyph-name="O" unicode="O" horiz-adv-x="900" d="M52 401 C52 143 224 -17 451 -17 C677 -17 848 142 848 402 C848 651 684 816 451 816 C215 816 52 648 52 401 L52 401 Z M160 401 C160 597 278 723 450 723 C622 723 740 596 740 404 C740 204 622 76 450 76 C278 76 160 204 160 401 L160 401 Z " />
<glyph glyph-name="P" unicode="P" horiz-adv-x="672" d="M103 0 L207 0 L207 326 L376 326 C511 326 623 425 623 566 C623 698 530 800 376 800 L103 800 L103 0 Z M354 708 C458 708 516 646 516 564 C516 484 461 414 354 414 L207 414 L207 708 L354 708 Z " />
<glyph glyph-name="Q" unicode="Q" horiz-adv-x="900" d="M52 401 C52 143 224 -17 451 -17 C551 -17 640 14 709 72 L770 0 L877 0 L766 132 C817 201 848 293 848 402 C848 651 684 816 451 816 C215 816 52 648 52 401 L52 401 Z M160 401 C160 597 278 723 450 723 C622 723 740 596 740 404 C740 331 724 267 695 216 L560 378 L451 378 L644 149 C594 102 527 76 450 76 C278 76 160 204 160 401 L160 401 Z " />
<glyph glyph-name="R" unicode="R" horiz-adv-x="689" d="M103 0 L207 0 L207 326 L359 326 L507 0 L623 0 L461 340 C555 372 623 456 623 566 C623 698 530 800 376 800 L103 800 L103 0 Z M354 708 C458 708 516 646 516 564 C516 484 461 414 354 414 L207 414 L207 708 L354 708 Z " />
<glyph glyph-name="S" unicode="S" horiz-adv-x="623" d="M469 209 C469 133 413 76 303 76 C213 76 138 95 66 129 L61 29 C126 -1 209 -17 300 -17 C474 -17 574 89 574 223 C574 494 162 399 162 591 C162 675 231 724 325 724 C400 724 483 706 537 672 L556 764 C507 794 421 816 328 816 C175 816 58 729 58 581 C58 308 469 398 469 209 L469 209 Z " />
<glyph glyph-name="T" unicode="T" horiz-adv-x="680" d="M690 708 L690 800 L-10 800 L-10 708 L288 708 L288 0 L391 0 L391 708 L690 708 Z " />
<glyph glyph-name="U" unicode="U" horiz-adv-x="910" d="M714 800 L714 382 C714 210 627 74 455 74 C283 74 195 198 195 382 L195 800 L92 800 L92 372 C92 130 234 -18 455 -18 C676 -18 818 151 818 372 L818 800 L714 800 Z " />
<glyph glyph-name="V" unicode="V" horiz-adv-x="770" d="M117 800 L10 800 L330 0 L438 0 L764 800 L661 800 L384 102 L117 800 Z " />
<glyph glyph-name="W" unicode="W" horiz-adv-x="1204" d="M1190 800 L1086 800 L877 116 L654 800 L552 800 L328 115 L128 800 L15 800 L270 0 L376 0 L601 666 L827 0 L933 0 L1190 800 Z " />
<glyph glyph-name="X" unicode="X" horiz-adv-x="750" d="M733 800 L612 800 L375 469 L139 800 L18 800 L323 400 L18 0 L140 0 L375 330 L612 0 L733 0 L426 400 L733 800 Z " />
<glyph glyph-name="Y" unicode="Y" horiz-adv-x="724" d="M119 800 L4 800 L309 295 L309 0 L413 0 L413 296 L724 800 L617 800 L362 383 L119 800 Z " />
<glyph glyph-name="Z" unicode="Z" horiz-adv-x="653" d="M603 0 L603 93 L168 93 L599 733 L599 800 L47 800 L47 707 L473 707 L49 79 L49 0 L603 0 Z " />
<glyph glyph-name="bracketleft" unicode="&#x5b;" horiz-adv-x="327" d="M290 -155 L290 -79 L174 -79 L174 756 L290 756 L290 832 L90 832 L90 -155 L290 -155 Z " />
<glyph glyph-name="backslash" unicode="&#x5c;" horiz-adv-x="515" d="M122 800 L36 800 L393 0 L479 0 L122 800 Z " />
<glyph glyph-name="bracketright" unicode="&#x5d;" horiz-adv-x="327" d="M237 -155 L237 832 L37 832 L37 756 L153 756 L153 -79 L37 -79 L37 -155 L237 -155 Z " />
<glyph glyph-name="asciicircum" unicode="&#x5e;" horiz-adv-x="693" d="M653 367 L401 800 L284 800 L40 367 L145 367 L342 722 L546 367 L653 367 Z " />
<glyph glyph-name="underscore" unicode="&#x5f;" horiz-adv-x="464" d="M454 -207 L454 -128 L10 -128 L10 -207 L454 -207 Z " />
<glyph glyph-name="grave" unicode="&#x60;" horiz-adv-x="546" d="M322 633 L225 800 L114 800 L226 633 L322 633 Z " />
<glyph glyph-name="a" unicode="a" horiz-adv-x="663" d="M581 0 L581 531 C481 561 406 573 362 573 C133 573 50 425 50 260 C50 105 111 -18 268 -18 C351 -18 422 18 483 105 L483 0 L581 0 Z M287 69 C202 69 151 122 151 268 C151 409 214 487 353 487 C386 487 430 482 483 464 L483 233 C427 127 360 69 287 69 L287 69 Z " />
<glyph glyph-name="b" unicode="b" horiz-adv-x="660" d="M80 3 C163 -10 236 -17 296 -17 C548 -17 610 137 610 304 C610 462 545 573 395 573 C307 573 239 534 178 445 L178 832 L80 832 L80 3 Z M376 485 C436 485 509 459 509 290 C509 156 457 68 305 68 C283 68 232 71 178 79 L178 329 C233 420 303 485 376 485 L376 485 Z " />
<glyph glyph-name="c" unicode="c" horiz-adv-x="550" d="M355 486 C397 486 450 475 499 460 L504 552 C451 565 395 573 337 573 C129 573 48 428 48 271 C48 72 163 -17 327 -17 C390 -17 457 -5 500 13 L500 100 C457 84 404 69 346 69 C247 69 149 116 149 278 C149 422 219 486 355 486 L355 486 Z " />
<glyph glyph-name="d" unicode="d" horiz-adv-x="663" d="M483 0 L581 0 L581 832 L483 832 L483 555 C440 566 396 572 356 572 C125 572 49 421 49 250 C49 98 120 -17 272 -17 C356 -17 429 25 483 107 L483 0 Z M289 68 C228 68 150 99 150 257 C150 400 205 486 349 486 C397 486 440 478 483 463 L483 239 C439 146 370 68 289 68 L289 68 Z " />
<glyph glyph-name="e" unicode="e" horiz-adv-x="607" d="M550 240 C556 276 560 322 560 353 C560 504 472 573 326 573 C148 573 49 456 49 264 C49 79 150 -17 345 -17 C429 -17 496 0 525 11 L534 96 C471 77 406 69 348 69 C241 69 161 110 150 240 L550 240 Z M320 491 C386 491 459 461 459 356 C459 344 458 333 455 322 L151 322 C165 437 230 491 320 491 L320 491 Z " />
<glyph glyph-name="f" unicode="f" horiz-adv-x="373" d="M32 471 L112 471 L112 0 L210 0 L210 471 L346 471 L357 556 L210 556 L210 637 C210 722 251 754 320 754 C348 754 385 747 411 736 L410 830 C377 840 345 845 310 845 C203 845 112 784 112 641 L112 556 L32 556 L32 471 Z " />
<glyph glyph-name="g" unicode="g" horiz-adv-x="656" d="M478 55 C478 -102 408 -130 305 -130 C241 -130 150 -112 96 -96 L105 -192 C162 -207 239 -217 308 -217 C487 -217 576 -125 576 35 L576 554 C473 569 406 573 362 573 C133 573 50 435 50 270 C50 115 129 24 268 24 C350 24 417 52 478 128 L478 55 Z M287 111 C227 111 151 132 151 278 C151 419 214 487 353 487 C386 487 425 485 478 476 L478 248 C424 162 357 111 287 111 L287 111 Z " />
<glyph glyph-name="h" unicode="h" horiz-adv-x="664" d="M82 0 L180 0 L180 380 C243 437 313 486 380 486 C453 486 490 457 490 373 L490 0 L588 0 L588 388 C588 520 537 573 415 573 C325 573 245 529 180 468 L180 832 L82 832 L82 0 Z " />
<glyph glyph-name="i" unicode="i" horiz-adv-x="313" d="M133 0 L231 0 L231 556 L133 556 L133 0 Z M133 670 L231 670 L231 800 L133 800 L133 670 Z " />
<glyph glyph-name="j" unicode="j" horiz-adv-x="308" d="M128 -30 C128 -105 94 -130 42 -130 C19 -130 -11 -127 -34 -120 L-25 -205 C7 -214 35 -217 63 -217 C161 -217 226 -159 226 -39 L226 556 L128 556 L128 -30 Z M127 670 L226 670 L226 800 L127 800 L127 670 Z " />
<glyph glyph-name="k" unicode="k" horiz-adv-x="588" d="M82 0 L180 0 L180 832 L82 832 L82 0 Z M201 288 L468 0 L594 0 L317 293 L594 556 L473 556 L201 288 Z " />
<glyph glyph-name="l" unicode="l" horiz-adv-x="288" d="M99 0 L197 0 L197 832 L99 832 L99 0 Z " />
<glyph glyph-name="m" unicode="m" horiz-adv-x="1049" d="M875 0 L973 0 L973 390 C973 525 905 573 798 573 C704 573 626 531 565 464 C543 542 485 573 395 573 C318 573 238 529 179 470 L179 566 L81 556 L81 0 L179 0 L179 381 C243 446 312 486 368 486 C435 486 477 452 477 373 L477 0 L575 0 L575 388 C623 432 693 486 761 486 C837 486 875 452 875 373 L875 0 Z " />
<glyph glyph-name="n" unicode="n" horiz-adv-x="663" d="M81 0 L179 0 L179 380 C242 437 312 486 379 486 C452 486 489 457 489 373 L489 0 L587 0 L587 385 C587 517 532 573 410 573 C320 573 244 529 179 467 L179 566 L81 556 L81 0 Z " />
<glyph glyph-name="o" unicode="o" horiz-adv-x="666" d="M49 279 C49 103 128 -17 333 -17 C530 -17 617 109 617 279 C617 454 529 573 334 573 C137 573 49 451 49 279 L49 279 Z M150 281 C150 421 206 486 333 486 C445 486 516 424 516 279 C516 138 448 69 333 69 C197 69 150 151 150 281 L150 281 Z " />
<glyph glyph-name="p" unicode="p" horiz-adv-x="667" d="M81 -200 L179 -200 L179 -9 C219 -13 262 -17 299 -17 C558 -17 617 139 617 309 C617 461 551 573 400 573 C312 573 247 532 179 442 L179 566 L81 556 L81 -200 Z M378 486 C440 486 516 455 516 299 C516 152 461 70 316 69 C295 69 238 74 179 84 L179 337 C224 409 306 486 378 486 L378 486 Z " />
<glyph glyph-name="q" unicode="q" horiz-adv-x="662" d="M582 550 C504 564 433 573 359 573 C140 573 49 421 49 249 C49 94 118 -18 270 -18 C352 -18 423 20 484 99 L484 -200 L582 -200 L582 550 Z M293 69 C231 69 153 99 153 257 C153 399 207 486 352 486 C385 486 430 481 484 471 L484 216 C433 137 363 69 293 69 L293 69 Z " />
<glyph glyph-name="r" unicode="r" horiz-adv-x="422" d="M81 0 L179 0 L179 370 C234 429 286 478 349 478 C366 478 385 478 406 474 L406 571 C396 572 386 573 375 573 C287 573 230 522 179 455 L179 566 L81 556 L81 0 Z " />
<glyph glyph-name="s" unicode="s" horiz-adv-x="550" d="M405 154 C405 105 367 69 259 69 C195 69 131 85 56 107 L62 11 C112 -4 185 -17 263 -17 C423 -17 505 60 505 157 C505 288 384 312 283 327 C209 339 149 353 149 407 C149 459 196 486 289 486 C358 486 424 470 485 442 L482 539 C434 557 366 573 283 573 C146 573 51 517 51 408 C51 279 165 251 263 237 C341 225 405 212 405 154 L405 154 Z " />
<glyph glyph-name="t" unicode="t" horiz-adv-x="433" d="M26 471 L120 471 L120 155 C120 24 193 -18 286 -18 C323 -18 364 -13 399 -3 L405 83 C379 75 344 69 318 69 C264 69 218 92 218 170 L218 471 L399 471 L408 556 L218 556 L218 724 L120 724 L120 556 L26 556 L26 471 Z " />
<glyph glyph-name="u" unicode="u" horiz-adv-x="658" d="M576 556 L478 556 L478 188 C426 128 347 69 279 69 C206 69 174 98 174 183 L174 556 L76 556 L76 172 C76 36 141 -18 262 -18 C349 -18 421 27 478 89 L478 0 L576 0 L576 556 Z " />
<glyph glyph-name="v" unicode="v" horiz-adv-x="585" d="M118 556 L9 556 L228 0 L358 0 L576 556 L472 556 L294 91 L291 91 L118 556 Z " />
<glyph glyph-name="w" unicode="w" horiz-adv-x="947" d="M134 556 L29 556 L177 0 L306 0 L474 445 L477 445 L634 0 L766 0 L921 556 L818 556 L699 92 L697 92 L531 556 L427 556 L253 89 L250 89 L134 556 Z " />
<glyph glyph-name="x" unicode="x" horiz-adv-x="600" d="M578 556 L467 556 L303 343 L141 556 L24 556 L239 275 L13 0 L129 0 L300 224 L463 0 L584 0 L366 284 L578 556 Z " />
<glyph glyph-name="y" unicode="y" horiz-adv-x="659" d="M479 48 C479 -96 412 -130 296 -130 C236 -130 136 -114 86 -104 L98 -198 C159 -209 243 -217 306 -217 C490 -217 577 -128 577 30 L577 556 L479 556 L479 232 C431 169 356 109 284 109 C211 109 175 139 175 224 L175 556 L77 556 L77 210 C77 69 148 22 269 22 C354 22 428 68 479 124 L479 48 Z " />
<glyph glyph-name="z" unicode="z" horiz-adv-x="560" d="M517 0 L517 87 L178 87 L513 502 L504 556 L55 556 L39 469 L377 469 L53 70 L53 0 L517 0 Z " />
<glyph glyph-name="braceleft" unicode="&#x7b;" horiz-adv-x="336" d="M299 -171 L299 -95 L268 -95 C230 -95 195 -80 195 -2 L195 219 C195 288 157 317 130 327 C156 336 195 370 195 439 L195 663 C195 742 229 756 267 756 L298 756 L298 832 L250 832 C152 832 113 789 112 662 L112 450 C112 397 71 360 39 360 L39 295 C72 295 112 266 112 205 L112 0 C112 -133 153 -171 251 -171 L299 -171 Z " />
<glyph glyph-name="bar" unicode="&#x7c;" horiz-adv-x="272" d="M94 0 L178 0 L178 800 L94 800 L94 0 Z " />
<glyph glyph-name="braceright" unicode="&#x7d;" horiz-adv-x="336" d="M85 -171 C183 -171 225 -133 225 0 L225 205 C225 266 265 295 297 295 L297 360 C265 360 225 397 225 450 L225 662 C224 789 184 832 86 832 L38 832 L38 756 L69 756 C108 756 141 742 142 663 L142 439 C142 370 181 336 207 327 C180 317 142 288 142 219 L142 -2 C141 -80 107 -95 68 -95 L37 -95 L37 -171 L85 -171 Z " />
<glyph glyph-name="asciitilde" unicode="&#x7e;" horiz-adv-x="686" d="M494 295 C551 295 587 318 622 350 L604 441 C580 417 535 396 492 396 C400 396 322 456 203 456 C149 456 94 423 68 404 L84 311 C102 321 147 356 198 356 C302 356 390 295 494 295 L494 295 Z " />
<glyph glyph-name="uni00A0" unicode="&#xa0;" horiz-adv-x="280" d="" />
<glyph glyph-name="exclamdown" unicode="&#xa1;" horiz-adv-x="293" d="M92 -200 L200 -200 L200 117 L195 320 L97 320 L92 118 L92 -200 Z M92 458 L201 458 L201 600 L92 600 L92 458 Z " />
<glyph glyph-name="cent" unicode="&#xa2;" horiz-adv-x="621" d="M318 -7 L391 -7 L391 82 C453 87 516 102 557 123 L555 204 C506 184 449 171 391 167 L391 592 C445 590 498 583 554 567 L561 650 C507 669 452 676 391 678 L391 767 L318 767 L318 677 C140 663 43 559 43 376 C43 178 158 89 318 80 L318 -7 Z M139 384 C139 518 208 578 318 590 L318 168 C215 178 139 236 139 384 L139 384 Z " />
<glyph glyph-name="sterling" unicode="&#xa3;" horiz-adv-x="758" d="M703 0 L703 93 L247 93 L247 325 L544 325 L544 417 L247 417 L247 483 C247 652 340 718 468 718 C536 718 617 694 681 641 L702 731 C638 791 550 816 464 816 C286 816 143 701 143 494 L143 417 L51 417 L51 325 L143 325 L143 93 L51 93 L51 0 L703 0 Z " />
<glyph glyph-name="yen" unicode="&#xa5;" horiz-adv-x="805" d="M347 0 L451 0 L451 175 L720 175 L720 255 L451 255 L451 296 L478 341 L721 341 L721 421 L528 421 L762 800 L655 800 L400 383 L157 800 L42 800 L271 421 L82 421 L82 341 L319 341 L347 295 L347 255 L82 255 L82 175 L347 175 L347 0 Z " />
<glyph glyph-name="brokenbar" unicode="&#xa6;" horiz-adv-x="275" d="M96 469 L179 469 L179 800 L96 800 L96 469 Z M96 0 L179 0 L179 331 L96 331 L96 0 Z " />
<glyph glyph-name="section" unicode="&#xa7;" horiz-adv-x="624" d="M63 420 C63 195 465 297 465 163 C465 99 402 69 305 69 C229 69 149 87 87 115 L89 23 C140 -1 206 -18 302 -18 C448 -18 563 46 563 166 C563 217 544 251 515 274 C546 299 563 335 563 376 C563 582 161 493 161 634 C161 704 224 729 326 729 C396 729 478 706 522 678 L537 767 C491 794 413 816 331 816 C191 816 63 754 63 635 C63 581 83 544 114 518 C83 495 63 462 63 420 L63 420 Z M161 434 C161 449 165 468 178 482 C297 437 465 449 465 360 C465 340 457 321 444 310 C325 346 161 329 161 434 L161 434 Z " />
<glyph glyph-name="dieresis" unicode="&#xa8;" horiz-adv-x="575" d="M136 685 L224 685 L224 800 L136 800 L136 685 Z M353 685 L441 685 L441 800 L353 800 L353 685 Z " />
<glyph glyph-name="copyright" unicode="&#xa9;" horiz-adv-x="889" d="M588 259 C546 242 515 233 466 233 C366 233 306 291 306 403 C306 504 358 567 465 567 C513 567 542 560 586 544 L592 612 C546 628 510 636 462 636 C301 636 228 531 228 396 C228 250 318 165 457 165 C506 165 554 177 590 195 L588 259 Z M55 395 C55 161 214 -9 444 -9 C674 -9 834 161 834 395 C834 629 674 800 444 800 C214 800 55 629 55 395 L55 395 Z M117 395 C117 598 242 744 444 744 C647 744 772 598 772 395 C772 192 647 47 444 47 C242 47 117 192 117 395 L117 395 Z " />
<glyph glyph-name="ordfeminine" unicode="&#xaa;" horiz-adv-x="502" d="M325 666 L325 640 L215 640 C122 640 72 601 72 529 C72 467 113 425 193 425 C243 425 296 451 325 497 L325 436 L414 436 L414 678 C414 775 362 804 257 804 C207 804 159 794 105 780 L104 701 C145 712 194 727 246 727 C302 727 325 715 325 666 L325 666 Z M74 316 L426 316 L426 385 L74 385 L74 316 Z M214 492 C171 492 157 513 157 541 C157 574 174 588 238 588 L325 588 L325 582 C308 533 260 492 214 492 L214 492 Z " />
<glyph glyph-name="guillemotleft" unicode="&#xab;" horiz-adv-x="546" d="M268 510 L179 510 L49 280 L175 46 L266 46 L153 280 L268 510 Z M497 510 L408 510 L278 280 L404 46 L495 46 L382 280 L497 510 Z " />
<glyph glyph-name="logicalnot" unicode="&#xac;" horiz-adv-x="635" d="M79 357 L79 286 L482 286 L482 102 L556 102 L556 357 L79 357 Z " />
<glyph glyph-name="registered" unicode="&#xae;" horiz-adv-x="668" d="M73 545 C73 388 181 275 334 275 C488 275 596 388 596 545 C596 702 488 816 334 816 C181 816 73 702 73 545 L73 545 Z M122 545 C122 677 203 771 334 771 C466 771 547 677 547 545 C547 413 466 320 334 320 C203 320 122 413 122 545 L122 545 Z M242 405 L289 405 L289 515 L345 515 L397 405 L448 405 L387 522 C428 535 447 573 447 607 C447 655 410 698 351 698 L242 698 L242 405 Z M340 660 C377 660 398 636 398 606 C398 576 379 550 340 550 L289 550 L289 660 L340 660 Z " />
<glyph glyph-name="macron" unicode="&#xaf;" horiz-adv-x="562" d="M131 678 L436 678 L436 747 L131 747 L131 678 Z " />
<glyph glyph-name="degree" unicode="&#xb0;" horiz-adv-x="446" d="M50 643 C50 548 128 470 223 470 C318 470 396 548 396 643 C396 738 318 816 223 816 C128 816 50 738 50 643 L50 643 Z M125 643 C125 699 164 746 223 746 C281 746 321 699 321 643 C321 584 279 540 223 540 C167 540 125 584 125 643 L125 643 Z " />
<glyph glyph-name="plusminus" unicode="&#xb1;" horiz-adv-x="546" d="M311 553 L241 553 L241 392 L74 392 L74 322 L241 322 L241 154 L311 154 L311 322 L473 322 L473 392 L311 392 L311 553 Z M473 33 L473 104 L74 104 L74 33 L473 33 Z " />
<glyph glyph-name="twosuperior" unicode="&#xb2;" horiz-adv-x="464" d="M423 500 L423 581 L159 581 L159 583 C294 652 420 751 420 883 C420 978 358 1040 218 1040 C153 1040 81 1024 38 1002 L46 926 C91 946 154 960 199 960 C295 960 324 921 324 875 C324 756 130 638 38 584 L38 500 L423 500 Z " />
<glyph glyph-name="threesuperior" unicode="&#xb3;" horiz-adv-x="463" d="M418 912 C418 990 339 1039 224 1039 C158 1039 84 1014 44 995 L50 920 C97 941 167 960 211 959 C280 959 324 933 324 899 C324 845 259 807 154 792 L164 727 C264 732 329 703 329 650 C329 609 286 573 205 573 C159 573 82 586 40 606 L35 524 C75 504 144 490 202 490 C329 490 419 543 419 643 C419 710 371 764 294 773 C378 799 418 847 418 912 L418 912 Z " />
<glyph glyph-name="acute" unicode="&#xb4;" horiz-adv-x="546" d="M275 633 L387 800 L276 800 L179 633 L275 633 Z " />
<glyph glyph-name="mu" unicode="&#xb5;" horiz-adv-x="655" d="M589 556 L491 556 L491 188 C439 128 360 69 292 69 C222 69 190 95 187 170 L187 556 L89 556 L89 -200 L187 -200 L187 -4 C212 -13 241 -18 275 -18 C362 -18 434 27 491 89 L491 0 L589 0 L589 556 Z " />
<glyph glyph-name="paragraph" unicode="&#xb6;" horiz-adv-x="697" d="M426 800 L333 800 C121 800 37 665 37 518 C37 332 179 240 331 240 L427 240 L426 800 Z M485 -200 L589 -200 L589 800 L485 800 L485 -200 Z " />
<glyph glyph-name="periodcentered" unicode="&#xb7;" horiz-adv-x="258" d="M75 350 L183 350 L183 504 L75 504 L75 350 Z " />
<glyph glyph-name="cedilla" unicode="&#xb8;" horiz-adv-x="492" d="M361 -88 C361 -13 272 29 205 39 L194 0 C231 -6 296 -31 296 -80 C296 -114 269 -136 217 -136 L192 -136 L192 -200 L227 -200 C316 -200 361 -146 361 -88 L361 -88 Z " />
<glyph glyph-name="onesuperior" unicode="&#xb9;" horiz-adv-x="422" d="M407 500 L407 584 L274 584 L274 1042 L40 982 L40 907 L183 940 L183 584 L40 584 L40 500 L407 500 Z " />
<glyph glyph-name="ordmasculine" unicode="&#xba;" horiz-adv-x="520" d="M261 425 C399 425 450 502 450 614 C450 726 398 800 261 800 C122 800 72 713 72 614 C72 501 121 425 261 425 L261 425 Z M83 385 L83 316 L434 316 L434 385 L83 385 Z M158 613 C158 696 189 731 261 731 C327 731 364 696 364 612 C364 533 327 497 262 497 C185 497 158 539 158 613 L158 613 Z " />
<glyph glyph-name="guillemotright" unicode="&#xbb;" horiz-adv-x="547" d="M165 280 L52 46 L143 46 L269 280 L139 510 L49 510 L165 280 Z M394 280 L281 46 L372 46 L498 280 L368 510 L278 510 L394 280 Z " />
<glyph glyph-name="onequarter" unicode="&#xbc;" horiz-adv-x="1139" d="M434 272 L434 356 L301 356 L301 814 L67 754 L67 679 L210 712 L210 356 L67 356 L67 272 L434 272 Z M1101 99 L1101 185 L1026 185 L1026 314 L936 314 L936 185 L746 185 L926 528 L827 528 L644 167 L664 99 L936 99 L936 0 L1026 0 L1026 99 L1101 99 Z M346 0 L423 0 L802 800 L725 800 L346 0 Z " />
<glyph glyph-name="onehalf" unicode="&#xbd;" horiz-adv-x="1185" d="M425 272 L425 356 L292 356 L292 814 L58 754 L58 679 L201 712 L201 356 L58 356 L58 272 L425 272 Z M1137 0 L1137 81 L873 81 L873 83 C1008 152 1134 251 1134 383 C1134 478 1072 540 932 540 C867 540 795 524 752 502 L760 426 C805 446 868 460 913 460 C1009 460 1038 421 1038 375 C1038 256 844 138 752 84 L752 0 L1137 0 Z M347 0 L424 0 L803 800 L726 800 L347 0 Z " />
<glyph glyph-name="threequarters" unicode="&#xbe;" horiz-adv-x="1121" d="M443 684 C443 762 364 811 249 811 C183 811 109 786 69 767 L75 692 C122 713 192 732 236 731 C305 731 349 705 349 671 C349 617 284 579 179 564 L189 499 C289 504 354 475 354 422 C354 381 311 345 230 345 C184 345 107 358 65 378 L60 296 C100 276 169 262 227 262 C354 262 444 315 444 415 C444 482 396 536 319 545 C403 571 443 619 443 684 L443 684 Z M1083 99 L1083 185 L1008 185 L1008 314 L918 314 L918 185 L728 185 L908 528 L809 528 L626 167 L646 99 L918 99 L918 0 L1008 0 L1008 99 L1083 99 Z M335 0 L412 0 L791 800 L714 800 L335 0 Z " />
<glyph glyph-name="questiondown" unicode="&#xbf;" horiz-adv-x="604" d="M425 599 L316 599 L316 446 L425 446 L425 599 Z M421 331 L316 331 L316 248 C146 214 40 148 40 12 C40 -157 161 -217 309 -217 C404 -217 496 -189 571 -146 L548 -55 C475 -95 400 -118 318 -118 C220 -118 146 -81 146 23 C146 103 216 171 421 203 L421 331 Z " />
<glyph glyph-name="Agrave" unicode="&#xc0;" horiz-adv-x="769" d="M649 0 L755 0 L435 800 L337 800 L11 0 L116 0 L215 255 L552 255 L649 0 Z M386 693 L520 341 L249 341 L386 693 Z M441 847 L354 983 L249 983 L346 847 L441 847 Z " />
<glyph glyph-name="Aacute" unicode="&#xc1;" horiz-adv-x="769" d="M649 0 L755 0 L435 800 L337 800 L11 0 L116 0 L215 255 L552 255 L649 0 Z M386 693 L520 341 L249 341 L386 693 Z M425 847 L518 983 L413 983 L330 847 L425 847 Z " />
<glyph glyph-name="Acircumflex" unicode="&#xc2;" horiz-adv-x="769" d="M649 0 L755 0 L435 800 L337 800 L11 0 L116 0 L215 255 L552 255 L649 0 Z M386 693 L520 341 L249 341 L386 693 Z M319 977 L209 846 L314 846 L386 938 L455 846 L560 846 L453 977 L319 977 Z " />
<glyph glyph-name="Atilde" unicode="&#xc3;" horiz-adv-x="769" d="M649 0 L755 0 L435 800 L337 800 L11 0 L116 0 L215 255 L552 255 L649 0 Z M386 693 L520 341 L249 341 L386 693 Z M325 897 C365 897 406 867 450 867 C478 867 511 871 535 887 L535 951 C509 935 477 931 449 931 C406 931 368 961 322 961 C288 961 258 953 238 941 L238 877 C264 890 295 897 325 897 L325 897 Z " />
<glyph glyph-name="Adieresis" unicode="&#xc4;" horiz-adv-x="769" d="M649 0 L755 0 L435 800 L337 800 L11 0 L116 0 L215 255 L552 255 L649 0 Z M386 693 L520 341 L249 341 L386 693 Z M440 846 L524 846 L524 955 L440 955 L440 846 Z M250 846 L334 846 L334 955 L250 955 L250 846 Z " />
<glyph glyph-name="Aring" unicode="&#xc5;" horiz-adv-x="769" d="M649 0 L755 0 L435 800 L337 800 L11 0 L116 0 L215 255 L552 255 L649 0 Z M386 693 L520 341 L249 341 L386 693 Z M271 927 C271 863 322 821 384 821 C447 821 498 864 498 927 C498 990 447 1035 384 1035 C322 1035 271 990 271 927 L271 927 Z M323 927 C323 961 348 989 384 989 C420 989 445 961 445 927 C445 893 420 866 384 866 C348 866 323 893 323 927 L323 927 Z " />
<glyph glyph-name="AE" unicode="&#xc6;" horiz-adv-x="1058" d="M502 0 L1011 0 L1011 93 L607 93 L607 356 L898 356 L898 444 L607 444 L607 707 L1006 707 L1006 800 L450 800 L-5 0 L107 0 L261 280 L502 280 L502 0 Z M311 371 L502 716 L502 371 L311 371 Z " />
<glyph glyph-name="Ccedilla" unicode="&#xc7;" horiz-adv-x="725" d="M534 -93 C534 -61 519 -36 496 -16 C565 -12 629 3 675 27 L672 118 C616 87 545 76 474 76 C290 76 162 203 162 400 C162 598 290 724 473 724 C538 724 616 714 668 686 L673 780 C617 807 537 816 467 816 C221 816 52 644 52 398 C52 174 192 15 397 -12 C431 -24 469 -47 469 -85 C469 -119 442 -141 390 -141 L365 -141 L365 -205 L400 -205 C489 -205 534 -151 534 -93 L534 -93 Z " />
<glyph glyph-name="Egrave" unicode="&#xc8;" horiz-adv-x="634" d="M601 0 L601 92 L207 92 L207 355 L483 355 L483 445 L207 445 L207 708 L601 708 L601 800 L103 800 L103 0 L601 0 Z M427 847 L340 983 L235 983 L332 847 L427 847 Z " />
<glyph glyph-name="Eacute" unicode="&#xc9;" horiz-adv-x="634" d="M601 0 L601 92 L207 92 L207 355 L483 355 L483 445 L207 445 L207 708 L601 708 L601 800 L103 800 L103 0 L601 0 Z M384 847 L477 983 L372 983 L289 847 L384 847 Z " />
<glyph glyph-name="Ecircumflex" unicode="&#xca;" horiz-adv-x="634" d="M601 0 L601 92 L207 92 L207 355 L483 355 L483 445 L207 445 L207 708 L601 708 L601 800 L103 800 L103 0 L601 0 Z M293 977 L183 846 L288 846 L360 938 L429 846 L534 846 L427 977 L293 977 Z " />
<glyph glyph-name="Edieresis" unicode="&#xcb;" horiz-adv-x="634" d="M601 0 L601 92 L207 92 L207 355 L483 355 L483 445 L207 445 L207 708 L601 708 L601 800 L103 800 L103 0 L601 0 Z M413 846 L497 846 L497 955 L413 955 L413 846 Z M223 846 L307 846 L307 955 L223 955 L223 846 Z " />
<glyph glyph-name="Igrave" unicode="&#xcc;" horiz-adv-x="310" d="M203 847 L116 983 L11 983 L108 847 L203 847 Z M104 0 L208 0 L208 800 L104 800 L104 0 Z " />
<glyph glyph-name="Iacute" unicode="&#xcd;" horiz-adv-x="310" d="M202 847 L295 983 L190 983 L107 847 L202 847 Z M104 0 L208 0 L208 800 L104 800 L104 0 Z " />
<glyph glyph-name="Icircumflex" unicode="&#xce;" horiz-adv-x="310" d="M91 977 L-19 846 L86 846 L158 938 L227 846 L332 846 L225 977 L91 977 Z M104 0 L208 0 L208 800 L104 800 L104 0 Z " />
<glyph glyph-name="Idieresis" unicode="&#xcf;" horiz-adv-x="310" d="M19 846 L103 846 L103 955 L19 955 L19 846 Z M209 846 L293 846 L293 955 L209 955 L209 846 Z M104 0 L208 0 L208 800 L104 800 L104 0 Z " />
<glyph glyph-name="Eth" unicode="&#xd0;" horiz-adv-x="824" d="M19 369 L102 369 L102 0 L363 0 C584 0 767 179 767 400 C767 627 584 800 363 800 L102 800 L102 439 L19 439 L19 369 Z M393 369 L393 439 L206 439 L206 708 L363 708 C545 708 664 569 664 400 C664 232 547 92 363 92 L206 92 L206 369 L393 369 Z " />
<glyph glyph-name="Ntilde" unicode="&#xd1;" horiz-adv-x="934" d="M415 897 C455 897 496 867 540 867 C568 867 601 871 625 887 L625 951 C599 935 567 931 539 931 C496 931 458 961 412 961 C378 961 348 953 328 941 L328 877 C354 890 385 897 415 897 L415 897 Z M740 0 L847 0 L847 800 L744 800 L744 142 L200 800 L103 800 L103 0 L207 0 L207 643 L740 0 Z " />
<glyph glyph-name="Ograve" unicode="&#xd2;" horiz-adv-x="899" d="M508 847 L421 983 L316 983 L413 847 L508 847 Z M51 401 C51 143 223 -17 450 -17 C676 -17 847 142 847 402 C847 651 683 816 450 816 C214 816 51 648 51 401 L51 401 Z M159 401 C159 597 277 723 449 723 C621 723 739 596 739 404 C739 204 621 76 449 76 C277 76 159 204 159 401 L159 401 Z " />
<glyph glyph-name="Oacute" unicode="&#xd3;" horiz-adv-x="899" d="M466 847 L559 983 L454 983 L371 847 L466 847 Z M51 401 C51 143 223 -17 450 -17 C676 -17 847 142 847 402 C847 651 683 816 450 816 C214 816 51 648 51 401 L51 401 Z M159 401 C159 597 277 723 449 723 C621 723 739 596 739 404 C739 204 621 76 449 76 C277 76 159 204 159 401 L159 401 Z " />
<glyph glyph-name="Ocircumflex" unicode="&#xd4;" horiz-adv-x="899" d="M383 977 L273 846 L378 846 L450 938 L519 846 L624 846 L517 977 L383 977 Z M51 401 C51 143 223 -17 450 -17 C676 -17 847 142 847 402 C847 651 683 816 450 816 C214 816 51 648 51 401 L51 401 Z M159 401 C159 597 277 723 449 723 C621 723 739 596 739 404 C739 204 621 76 449 76 C277 76 159 204 159 401 L159 401 Z " />
<glyph glyph-name="Otilde" unicode="&#xd5;" horiz-adv-x="899" d="M387 897 C427 897 468 867 512 867 C540 867 573 871 597 887 L597 951 C571 935 539 931 511 931 C468 931 430 961 384 961 C350 961 320 953 300 941 L300 877 C326 890 357 897 387 897 L387 897 Z M51 401 C51 143 223 -17 450 -17 C676 -17 847 142 847 402 C847 651 683 816 450 816 C214 816 51 648 51 401 L51 401 Z M159 401 C159 597 277 723 449 723 C621 723 739 596 739 404 C739 204 621 76 449 76 C277 76 159 204 159 401 L159 401 Z " />
<glyph glyph-name="Odieresis" unicode="&#xd6;" horiz-adv-x="899" d="M310 846 L394 846 L394 955 L310 955 L310 846 Z M500 846 L584 846 L584 955 L500 955 L500 846 Z M51 401 C51 143 223 -17 450 -17 C676 -17 847 142 847 402 C847 651 683 816 450 816 C214 816 51 648 51 401 L51 401 Z M159 401 C159 597 277 723 449 723 C621 723 739 596 739 404 C739 204 621 76 449 76 C277 76 159 204 159 401 L159 401 Z " />
<glyph glyph-name="multiply" unicode="&#xd7;" horiz-adv-x="591" d="M112 542 L62 492 L247 307 L62 123 L112 73 L297 257 L480 75 L530 125 L347 307 L529 490 L479 540 L297 357 L112 542 Z " />
<glyph glyph-name="Oslash" unicode="&#xd8;" horiz-adv-x="899" d="M52 401 C52 282 88 185 149 114 L33 -18 L129 -18 L201 64 C269 11 355 -17 451 -17 C677 -17 848 142 848 402 C848 517 812 614 751 686 L866 816 L771 816 L700 735 C633 787 548 816 451 816 C215 816 52 648 52 401 L52 401 Z M160 401 C160 597 278 723 450 723 C522 723 585 700 633 660 L218 192 C181 246 160 317 160 401 L160 401 Z M740 404 C740 204 622 76 450 76 C378 76 316 98 267 138 L682 607 C719 554 740 485 740 404 L740 404 Z " />
<glyph glyph-name="Ugrave" unicode="&#xd9;" horiz-adv-x="891" d="M505 847 L418 983 L313 983 L410 847 L505 847 Z M714 800 L714 382 C714 210 627 74 455 74 C283 74 195 198 195 382 L195 800 L92 800 L92 372 C92 130 234 -18 455 -18 C676 -18 818 151 818 372 L818 800 L714 800 Z " />
<glyph glyph-name="Uacute" unicode="&#xda;" horiz-adv-x="891" d="M464 847 L557 983 L452 983 L369 847 L464 847 Z M714 800 L714 382 C714 210 627 74 455 74 C283 74 195 198 195 382 L195 800 L92 800 L92 372 C92 130 234 -18 455 -18 C676 -18 818 151 818 372 L818 800 L714 800 Z " />
<glyph glyph-name="Ucircumflex" unicode="&#xdb;" horiz-adv-x="891" d="M381 977 L271 846 L376 846 L448 938 L517 846 L622 846 L515 977 L381 977 Z M714 800 L714 382 C714 210 627 74 455 74 C283 74 195 198 195 382 L195 800 L92 800 L92 372 C92 130 234 -18 455 -18 C676 -18 818 151 818 372 L818 800 L714 800 Z " />
<glyph glyph-name="Udieresis" unicode="&#xdc;" horiz-adv-x="891" d="M307 846 L391 846 L391 955 L307 955 L307 846 Z M497 846 L581 846 L581 955 L497 955 L497 846 Z M714 800 L714 382 C714 210 627 74 455 74 C283 74 195 198 195 382 L195 800 L92 800 L92 372 C92 130 234 -18 455 -18 C676 -18 818 151 818 372 L818 800 L714 800 Z " />
<glyph glyph-name="Yacute" unicode="&#xdd;" horiz-adv-x="724" d="M119 800 L4 800 L309 295 L309 0 L413 0 L413 296 L724 800 L617 800 L362 383 L119 800 Z M387 847 L480 983 L375 983 L292 847 L387 847 Z " />
<glyph glyph-name="Thorn" unicode="&#xde;" horiz-adv-x="668" d="M103 0 L207 0 L207 174 L386 174 C521 174 635 268 635 412 C635 545 543 646 386 646 L207 646 L207 800 L103 800 L103 0 Z M362 550 C464 550 527 490 527 412 C527 335 466 270 362 270 L207 270 L207 550 L362 550 Z " />
<glyph glyph-name="germandbls" unicode="&#xdf;" horiz-adv-x="717" d="M36 472 L116 472 L116 0 L214 0 L214 581 C214 693 260 759 381 759 C457 759 511 726 511 672 C511 582 356 539 356 409 C356 243 579 237 579 143 C579 99 544 69 478 69 C443 69 392 75 346 87 L346 -1 C379 -11 438 -18 480 -18 C620 -18 681 59 681 141 C681 304 455 311 455 418 C455 507 613 545 613 676 C613 767 547 846 383 846 C185 846 116 739 116 597 L116 556 L36 556 L36 472 Z " />
<glyph glyph-name="agrave" unicode="&#xe0;" horiz-adv-x="663" d="M581 0 L581 531 C481 561 406 573 362 573 C133 573 50 425 50 260 C50 105 111 -18 268 -18 C351 -18 422 18 483 105 L483 0 L581 0 Z M287 69 C202 69 151 122 151 268 C151 409 214 487 353 487 C386 487 430 482 483 464 L483 233 C427 127 360 69 287 69 L287 69 Z M398 633 L301 800 L190 800 L302 633 L398 633 Z " />
<glyph glyph-name="aacute" unicode="&#xe1;" horiz-adv-x="663" d="M581 0 L581 531 C481 561 406 573 362 573 C133 573 50 425 50 260 C50 105 111 -18 268 -18 C351 -18 422 18 483 105 L483 0 L581 0 Z M287 69 C202 69 151 122 151 268 C151 409 214 487 353 487 C386 487 430 482 483 464 L483 233 C427 127 360 69 287 69 L287 69 Z M369 633 L481 800 L370 800 L273 633 L369 633 Z " />
<glyph glyph-name="acircumflex" unicode="&#xe2;" horiz-adv-x="663" d="M581 0 L581 531 C481 561 406 573 362 573 C133 573 50 425 50 260 C50 105 111 -18 268 -18 C351 -18 422 18 483 105 L483 0 L581 0 Z M287 69 C202 69 151 122 151 268 C151 409 214 487 353 487 C386 487 430 482 483 464 L483 233 C427 127 360 69 287 69 L287 69 Z M290 800 L180 639 L276 639 L347 754 L417 639 L513 639 L406 800 L290 800 Z " />
<glyph glyph-name="atilde" unicode="&#xe3;" horiz-adv-x="663" d="M581 0 L581 531 C481 561 406 573 362 573 C133 573 50 425 50 260 C50 105 111 -18 268 -18 C351 -18 422 18 483 105 L483 0 L581 0 Z M287 69 C202 69 151 122 151 268 C151 409 214 487 353 487 C386 487 430 482 483 464 L483 233 C427 127 360 69 287 69 L287 69 Z M273 716 C313 716 356 685 403 685 C431 685 468 695 492 711 L487 780 C461 764 425 756 397 756 C354 756 312 787 266 787 C228 787 191 773 171 761 L177 691 C203 705 243 716 273 716 L273 716 Z " />
<glyph glyph-name="adieresis" unicode="&#xe4;" horiz-adv-x="663" d="M581 0 L581 531 C481 561 406 573 362 573 C133 573 50 425 50 260 C50 105 111 -18 268 -18 C351 -18 422 18 483 105 L483 0 L581 0 Z M287 69 C202 69 151 122 151 268 C151 409 214 487 353 487 C386 487 430 482 483 464 L483 233 C427 127 360 69 287 69 L287 69 Z M193 685 L281 685 L281 800 L193 800 L193 685 Z M410 685 L498 685 L498 800 L410 800 L410 685 Z " />
<glyph glyph-name="aring" unicode="&#xe5;" horiz-adv-x="663" d="M581 0 L581 531 C481 561 406 573 362 573 C133 573 50 425 50 260 C50 105 111 -18 268 -18 C351 -18 422 18 483 105 L483 0 L581 0 Z M287 69 C202 69 151 122 151 268 C151 409 214 487 353 487 C386 487 430 482 483 464 L483 233 C427 127 360 69 287 69 L287 69 Z M223 723 C223 659 269 620 336 620 C403 620 450 659 450 723 C450 787 403 827 336 827 C269 827 223 787 223 723 L223 723 Z M273 723 C273 757 296 783 336 783 C376 783 399 757 399 723 C399 689 376 664 336 664 C296 664 273 689 273 723 L273 723 Z " />
<glyph glyph-name="ae" unicode="&#xe6;" horiz-adv-x="986" d="M431 372 L431 322 L265 322 C124 322 37 255 37 147 C37 46 104 -17 229 -17 C331 -17 420 44 460 129 C498 32 583 -18 714 -18 C804 -18 855 -5 903 11 L912 96 C845 77 784 69 726 69 C619 69 539 112 529 240 L928 240 C934 276 938 322 938 353 C938 505 853 573 700 573 C609 573 547 542 506 493 C476 555 411 573 307 573 C235 573 173 562 94 537 L87 442 C151 462 217 484 294 484 C390 484 431 463 431 372 L431 372 Z M698 491 C775 491 853 449 834 322 L531 322 C545 437 609 491 698 491 L698 491 Z M229 69 C181 69 137 95 137 155 C137 211 178 241 272 241 L431 241 C417 148 333 69 229 69 L229 69 Z " />
<glyph glyph-name="ccedilla" unicode="&#xe7;" horiz-adv-x="551" d="M421 -88 C421 -58 407 -33 385 -14 C429 -9 471 0 501 13 L501 100 C458 84 405 69 347 69 C248 69 150 116 150 278 C150 422 220 486 356 486 C398 486 451 475 500 460 L505 552 C452 565 396 573 338 573 C130 573 49 428 49 271 C49 81 154 -8 306 -16 C332 -29 356 -50 356 -80 C356 -114 329 -136 277 -136 L252 -136 L252 -200 L287 -200 C376 -200 421 -146 421 -88 L421 -88 Z " />
<glyph glyph-name="egrave" unicode="&#xe8;" horiz-adv-x="607" d="M550 240 C556 276 560 322 560 353 C560 504 472 573 326 573 C148 573 49 456 49 264 C49 79 150 -17 345 -17 C429 -17 496 0 525 11 L534 96 C471 77 406 69 348 69 C241 69 161 110 150 240 L550 240 Z M320 491 C386 491 459 461 459 356 C459 344 458 333 455 322 L151 322 C165 437 230 491 320 491 L320 491 Z M384 633 L287 800 L176 800 L288 633 L384 633 Z " />
<glyph glyph-name="eacute" unicode="&#xe9;" horiz-adv-x="607" d="M550 240 C556 276 560 322 560 353 C560 504 472 573 326 573 C148 573 49 456 49 264 C49 79 150 -17 345 -17 C429 -17 496 0 525 11 L534 96 C471 77 406 69 348 69 C241 69 161 110 150 240 L550 240 Z M320 491 C386 491 459 461 459 356 C459 344 458 333 455 322 L151 322 C165 437 230 491 320 491 L320 491 Z M348 633 L460 800 L349 800 L252 633 L348 633 Z " />
<glyph glyph-name="ecircumflex" unicode="&#xea;" horiz-adv-x="607" d="M550 240 C556 276 560 322 560 353 C560 504 472 573 326 573 C148 573 49 456 49 264 C49 79 150 -17 345 -17 C429 -17 496 0 525 11 L534 96 C471 77 406 69 348 69 C241 69 161 110 150 240 L550 240 Z M320 491 C386 491 459 461 459 356 C459 344 458 333 455 322 L151 322 C165 437 230 491 320 491 L320 491 Z M259 800 L149 639 L245 639 L316 754 L386 639 L482 639 L375 800 L259 800 Z " />
<glyph glyph-name="edieresis" unicode="&#xeb;" horiz-adv-x="607" d="M550 240 C556 276 560 322 560 353 C560 504 472 573 326 573 C148 573 49 456 49 264 C49 79 150 -17 345 -17 C429 -17 496 0 525 11 L534 96 C471 77 406 69 348 69 C241 69 161 110 150 240 L550 240 Z M320 491 C386 491 459 461 459 356 C459 344 458 333 455 322 L151 322 C165 437 230 491 320 491 L320 491 Z M380 685 L468 685 L468 800 L380 800 L380 685 Z M163 685 L251 685 L251 800 L163 800 L163 685 Z " />
<glyph glyph-name="igrave" unicode="&#xec;" horiz-adv-x="315" d="M129 0 L233 0 L233 556 L129 556 L129 0 Z M222 633 L125 800 L14 800 L126 633 L222 633 Z " />
<glyph glyph-name="iacute" unicode="&#xed;" horiz-adv-x="315" d="M214 633 L326 800 L215 800 L118 633 L214 633 Z M129 0 L233 0 L233 556 L129 556 L129 0 Z " />
<glyph glyph-name="icircumflex" unicode="&#xee;" horiz-adv-x="315" d="M100 800 L-10 639 L86 639 L157 754 L227 639 L323 639 L216 800 L100 800 Z M129 0 L233 0 L233 556 L129 556 L129 0 Z " />
<glyph glyph-name="idieresis" unicode="&#xef;" horiz-adv-x="315" d="M7 685 L95 685 L95 800 L7 800 L7 685 Z M224 685 L312 685 L312 800 L224 800 L224 685 Z M129 0 L233 0 L233 556 L129 556 L129 0 Z " />
<glyph glyph-name="eth" unicode="&#xf0;" horiz-adv-x="681" d="M277 627 L339 702 C413 652 479 580 511 480 C480 538 408 573 335 573 C128 573 49 459 49 280 C49 103 124 -17 334 -17 C524 -17 618 104 618 280 C618 499 556 659 397 770 L455 840 L413 876 L349 800 C321 816 291 831 258 845 L211 769 C237 758 264 746 291 731 L235 665 L277 627 Z M151 279 C151 422 207 487 334 487 C446 487 516 424 516 278 C516 138 448 69 335 69 C198 69 151 152 151 279 L151 279 Z " />
<glyph glyph-name="ntilde" unicode="&#xf1;" horiz-adv-x="663" d="M81 0 L179 0 L179 380 C242 437 312 486 379 486 C452 486 489 457 489 373 L489 0 L587 0 L587 385 C587 517 532 573 410 573 C320 573 244 529 179 467 L179 566 L81 556 L81 0 Z M274 716 C314 716 357 685 404 685 C432 685 469 695 493 711 L488 780 C462 764 426 756 398 756 C355 756 313 787 267 787 C229 787 192 773 172 761 L178 691 C204 705 244 716 274 716 L274 716 Z " />
<glyph glyph-name="ograve" unicode="&#xf2;" horiz-adv-x="666" d="M49 279 C49 103 128 -17 333 -17 C530 -17 617 109 617 279 C617 454 529 573 334 573 C137 573 49 451 49 279 L49 279 Z M150 281 C150 421 206 486 333 486 C445 486 516 424 516 279 C516 138 448 69 333 69 C197 69 150 151 150 281 L150 281 Z M376 633 L279 800 L168 800 L280 633 L376 633 Z " />
<glyph glyph-name="oacute" unicode="&#xf3;" horiz-adv-x="666" d="M360 633 L472 800 L361 800 L264 633 L360 633 Z M49 279 C49 103 128 -17 333 -17 C530 -17 617 109 617 279 C617 454 529 573 334 573 C137 573 49 451 49 279 L49 279 Z M150 281 C150 421 206 486 333 486 C445 486 516 424 516 279 C516 138 448 69 333 69 C197 69 150 151 150 281 L150 281 Z " />
<glyph glyph-name="ocircumflex" unicode="&#xf4;" horiz-adv-x="666" d="M274 795 L164 634 L260 634 L331 749 L401 634 L497 634 L390 795 L274 795 Z M49 279 C49 103 128 -17 333 -17 C530 -17 617 109 617 279 C617 454 529 573 334 573 C137 573 49 451 49 279 L49 279 Z M150 281 C150 421 206 486 333 486 C445 486 516 424 516 279 C516 138 448 69 333 69 C197 69 150 151 150 281 L150 281 Z " />
<glyph glyph-name="otilde" unicode="&#xf5;" horiz-adv-x="666" d="M49 279 C49 103 128 -17 333 -17 C530 -17 617 109 617 279 C617 454 529 573 334 573 C137 573 49 451 49 279 L49 279 Z M150 281 C150 421 206 486 333 486 C445 486 516 424 516 279 C516 138 448 69 333 69 C197 69 150 151 150 281 L150 281 Z M262 716 C302 716 345 685 392 685 C420 685 457 695 481 711 L476 780 C450 764 414 756 386 756 C343 756 301 787 255 787 C217 787 180 773 160 761 L166 691 C192 705 232 716 262 716 L262 716 Z " />
<glyph glyph-name="odieresis" unicode="&#xf6;" horiz-adv-x="666" d="M177 685 L265 685 L265 800 L177 800 L177 685 Z M394 685 L482 685 L482 800 L394 800 L394 685 Z M49 279 C49 103 128 -17 333 -17 C530 -17 617 109 617 279 C617 454 529 573 334 573 C137 573 49 451 49 279 L49 279 Z M150 281 C150 421 206 486 333 486 C445 486 516 424 516 279 C516 138 448 69 333 69 C197 69 150 151 150 281 L150 281 Z " />
<glyph glyph-name="divide" unicode="&#xf7;" horiz-adv-x="539" d="M469 280 L469 359 L70 359 L70 280 L469 280 Z M222 84 L322 84 L322 197 L222 197 L222 84 Z M222 438 L322 438 L322 552 L222 552 L222 438 Z " />
<glyph glyph-name="oslash" unicode="&#xf8;" horiz-adv-x="667" d="M50 279 C50 196 68 125 108 74 L25 -18 L106 -18 L151 32 C195 1 255 -17 334 -17 C531 -17 618 109 618 279 C618 361 598 431 557 482 L640 573 L558 573 L513 523 C469 555 410 573 335 573 C138 573 50 451 50 279 L50 279 Z M517 279 C517 138 449 69 334 69 C282 69 243 81 215 103 L489 406 C507 374 517 332 517 279 L517 279 Z M151 281 C151 421 207 486 334 486 C380 486 420 475 450 453 L176 149 C158 184 151 229 151 281 L151 281 Z " />
<glyph glyph-name="ugrave" unicode="&#xf9;" horiz-adv-x="658" d="M576 556 L478 556 L478 188 C426 128 347 69 279 69 C206 69 174 98 174 183 L174 556 L76 556 L76 172 C76 36 141 -18 262 -18 C349 -18 421 27 478 89 L478 0 L576 0 L576 556 Z M377 633 L280 800 L169 800 L281 633 L377 633 Z " />
<glyph glyph-name="uacute" unicode="&#xfa;" horiz-adv-x="658" d="M576 556 L478 556 L478 188 C426 128 347 69 279 69 C206 69 174 98 174 183 L174 556 L76 556 L76 172 C76 36 141 -18 262 -18 C349 -18 421 27 478 89 L478 0 L576 0 L576 556 Z M361 633 L473 800 L362 800 L265 633 L361 633 Z " />
<glyph glyph-name="ucircumflex" unicode="&#xfb;" horiz-adv-x="658" d="M576 556 L478 556 L478 188 C426 128 347 69 279 69 C206 69 174 98 174 183 L174 556 L76 556 L76 172 C76 36 141 -18 262 -18 C349 -18 421 27 478 89 L478 0 L576 0 L576 556 Z M264 800 L154 639 L250 639 L321 754 L391 639 L487 639 L380 800 L264 800 Z " />
<glyph glyph-name="udieresis" unicode="&#xfc;" horiz-adv-x="658" d="M576 556 L478 556 L478 188 C426 128 347 69 279 69 C206 69 174 98 174 183 L174 556 L76 556 L76 172 C76 36 141 -18 262 -18 C349 -18 421 27 478 89 L478 0 L576 0 L576 556 Z M393 685 L481 685 L481 800 L393 800 L393 685 Z M176 685 L264 685 L264 800 L176 800 L176 685 Z " />
<glyph glyph-name="yacute" unicode="&#xfd;" horiz-adv-x="659" d="M479 48 C479 -96 412 -130 296 -130 C236 -130 136 -114 86 -104 L98 -198 C159 -209 243 -217 306 -217 C490 -217 577 -128 577 30 L577 556 L479 556 L479 232 C431 169 356 109 284 109 C211 109 175 139 175 224 L175 556 L77 556 L77 210 C77 69 148 22 269 22 C354 22 428 68 479 124 L479 48 Z M363 633 L475 800 L364 800 L267 633 L363 633 Z " />
<glyph glyph-name="thorn" unicode="&#xfe;" horiz-adv-x="662" d="M82 -200 L180 -200 L180 -10 C223 -14 263 -17 298 -17 C550 -17 612 137 612 304 C612 462 547 573 397 573 C309 573 241 534 180 445 L180 832 L82 832 L82 -200 Z M180 329 C235 420 305 485 378 485 C438 485 511 459 511 290 C511 156 459 68 307 68 C285 68 234 71 180 79 L180 329 Z " />
<glyph glyph-name="ydieresis" unicode="&#xff;" horiz-adv-x="659" d="M479 48 C479 -96 412 -130 296 -130 C236 -130 136 -114 86 -104 L98 -198 C159 -209 243 -217 306 -217 C490 -217 577 -128 577 30 L577 556 L479 556 L479 232 C431 169 356 109 284 109 C211 109 175 139 175 224 L175 556 L77 556 L77 210 C77 69 148 22 269 22 C354 22 428 68 479 124 L479 48 Z M396 686 L484 686 L484 801 L396 801 L396 686 Z M179 686 L267 686 L267 801 L179 801 L179 686 Z " />
<glyph glyph-name="dotlessi" unicode="&#x131;" horiz-adv-x="315" d="M129 0 L233 0 L233 556 L129 556 L129 0 Z " />
<glyph glyph-name="Lslash" unicode="&#x141;" horiz-adv-x="589" d="M106 0 L559 0 L559 92 L210 92 L210 401 L363 488 L363 561 L210 474 L210 800 L106 800 L106 415 L22 367 L22 295 L106 342 L106 0 Z " />
<glyph glyph-name="lslash" unicode="&#x142;" horiz-adv-x="313" d="M111 0 L209 0 L209 377 L299 433 L299 506 L209 451 L209 832 L111 832 L111 391 L24 338 L24 263 L111 317 L111 0 Z " />
<glyph glyph-name="OE" unicode="&#x152;" horiz-adv-x="1308" d="M1261 0 L1261 93 L857 93 L857 356 L1148 356 L1148 444 L857 444 L857 707 L1257 707 L1257 800 L753 800 L753 678 C712 749 591 816 455 816 C219 816 51 650 51 400 C51 128 234 -17 455 -17 C590 -17 710 54 753 118 L753 0 L1261 0 Z M158 400 C158 599 289 724 455 724 C622 724 753 591 753 400 C753 213 622 74 455 74 C289 74 158 196 158 400 L158 400 Z " />
<glyph glyph-name="oe" unicode="&#x153;" horiz-adv-x="1075" d="M49 279 C49 103 129 -17 334 -17 C447 -17 517 29 557 97 C603 22 689 -17 813 -17 C897 -17 964 0 993 11 L1002 96 C939 77 874 69 816 69 C709 69 629 110 618 240 L1018 240 C1024 276 1028 322 1028 353 C1028 504 940 573 794 573 C687 573 609 531 563 456 C526 527 455 573 335 573 C133 573 49 443 49 279 L49 279 Z M151 281 C151 421 207 486 334 486 C446 486 517 424 517 280 C517 138 449 69 334 69 C198 69 151 151 151 281 L151 281 Z M788 491 C854 491 927 461 927 356 C927 344 926 333 923 322 L619 322 C633 437 698 491 788 491 L788 491 Z " />
<glyph glyph-name="Scaron" unicode="&#x160;" horiz-adv-x="623" d="M390 848 L499 979 L393 979 L324 890 L253 979 L146 979 L258 848 L390 848 Z M469 209 C469 133 413 76 303 76 C213 76 138 95 66 129 L61 29 C126 -1 209 -17 300 -17 C474 -17 574 89 574 223 C574 494 162 399 162 591 C162 675 231 724 325 724 C400 724 483 706 537 672 L556 764 C507 794 421 816 328 816 C175 816 58 729 58 581 C58 308 469 398 469 209 L469 209 Z " />
<glyph glyph-name="scaron" unicode="&#x161;" horiz-adv-x="550" d="M336 644 L444 800 L348 800 L279 688 L206 800 L109 800 L221 644 L336 644 Z M405 154 C405 105 367 69 259 69 C195 69 131 85 56 107 L62 11 C112 -4 185 -17 263 -17 C423 -17 505 60 505 157 C505 288 384 312 283 327 C209 339 149 353 149 407 C149 459 196 486 289 486 C358 486 424 470 485 442 L482 539 C434 557 366 573 283 573 C146 573 51 517 51 408 C51 279 165 251 263 237 C341 225 405 212 405 154 L405 154 Z " />
<glyph glyph-name="Ydieresis" unicode="&#x178;" horiz-adv-x="724" d="M119 800 L4 800 L309 295 L309 0 L413 0 L413 296 L724 800 L617 800 L362 383 L119 800 Z M417 846 L501 846 L501 955 L417 955 L417 846 Z M227 846 L311 846 L311 955 L227 955 L227 846 Z " />
<glyph glyph-name="Zcaron" unicode="&#x17d;" horiz-adv-x="653" d="M603 0 L603 93 L168 93 L599 733 L599 800 L47 800 L47 707 L473 707 L49 79 L49 0 L603 0 Z M406 848 L515 979 L409 979 L340 890 L269 979 L162 979 L274 848 L406 848 Z " />
<glyph glyph-name="zcaron" unicode="&#x17e;" horiz-adv-x="560" d="M517 0 L517 87 L178 87 L513 502 L504 556 L55 556 L39 469 L377 469 L53 70 L53 0 L517 0 Z M339 644 L447 800 L351 800 L282 688 L209 800 L112 800 L224 644 L339 644 Z " />
<glyph glyph-name="florin" unicode="&#x192;" horiz-adv-x="453" d="M87 376 L192 376 L192 185 C192 102 162 72 110 72 C85 72 53 77 28 86 L22 2 C56 -8 92 -15 127 -15 C234 -15 292 53 292 180 L292 376 L426 376 L426 462 L292 462 L292 616 C292 698 332 729 397 729 C422 729 453 726 479 715 L485 800 C452 810 416 816 381 816 C272 816 192 758 192 621 L192 462 L87 462 L87 376 Z " />
<glyph glyph-name="circumflex" unicode="&#x2c6;" horiz-adv-x="626" d="M257 800 L147 639 L243 639 L314 754 L384 639 L480 639 L373 800 L257 800 Z " />
<glyph glyph-name="caron" unicode="&#x2c7;" horiz-adv-x="626" d="M375 644 L483 800 L387 800 L318 688 L245 800 L148 800 L260 644 L375 644 Z " />
<glyph glyph-name="breve" unicode="&#x2d8;" horiz-adv-x="590" d="M370 779 C370 721 334 705 295 705 C256 705 223 722 223 779 L143 779 C143 692 194 643 295 643 C391 643 449 691 449 779 L370 779 Z " />
<glyph glyph-name="dotaccent" unicode="&#x2d9;" horiz-adv-x="474" d="M191 670 L289 670 L289 800 L191 800 L191 670 Z " />
<glyph glyph-name="ring" unicode="&#x2da;" horiz-adv-x="528" d="M152 715 C152 651 198 612 265 612 C332 612 379 651 379 715 C379 779 332 819 265 819 C198 819 152 779 152 715 L152 715 Z M202 715 C202 749 225 775 265 775 C305 775 328 749 328 715 C328 681 305 656 265 656 C225 656 202 681 202 715 L202 715 Z " />
<glyph glyph-name="ogonek" unicode="&#x2db;" horiz-adv-x="492" d="M278 -86 C278 -150 335 -200 424 -200 L453 -200 L453 -136 L433 -136 C384 -136 349 -112 349 -73 C349 -26 413 -6 451 0 L428 47 C360 37 278 -11 278 -86 L278 -86 Z " />
<glyph glyph-name="tilde" unicode="&#x2dc;" horiz-adv-x="544" d="M217 716 C257 716 300 685 347 685 C375 685 412 695 436 711 L431 780 C405 764 369 756 341 756 C298 756 256 787 210 787 C172 787 135 773 115 761 L121 691 C147 705 187 716 217 716 L217 716 Z " />
<glyph glyph-name="hungarumlaut" unicode="&#x2dd;" horiz-adv-x="638" d="M223 648 L335 800 L240 800 L138 648 L223 648 Z M407 648 L539 800 L444 800 L322 648 L407 648 Z " />
<glyph glyph-name="pi" unicode="&#x3c0;" horiz-adv-x="717" d="M669 469 L669 556 L29 556 L29 469 L114 469 L114 0 L213 0 L213 469 L488 469 L488 98 C488 18 530 -18 609 -18 C626 -18 648 -16 668 -13 L668 72 C659 70 645 69 637 69 C609 69 586 82 586 122 L586 469 L669 469 Z " />
<glyph glyph-name="endash" unicode="&#x2013;" horiz-adv-x="592" d="M518 271 L518 351 L74 351 L74 271 L518 271 Z " />
<glyph glyph-name="emdash" unicode="&#x2014;" horiz-adv-x="990" d="M916 271 L916 351 L74 351 L74 271 L916 271 Z " />
<glyph glyph-name="quoteleft" unicode="&#x2018;" horiz-adv-x="262" d="M197 838 C125 790 70 685 70 613 C70 580 96 553 131 553 C162 553 189 583 189 613 C167 626 160 644 160 670 C160 707 196 773 229 809 L197 838 Z " />
<glyph glyph-name="quoteright" unicode="&#x2019;" horiz-adv-x="254" d="M96 553 C168 601 223 706 223 778 C223 811 197 838 162 838 C131 838 104 808 104 778 C126 765 133 747 133 721 C133 684 97 618 64 582 L96 553 Z " />
<glyph glyph-name="quotesinglbase" unicode="&#x201a;" horiz-adv-x="264" d="M56 -131 C128 -83 183 22 183 94 C183 127 157 154 122 154 C91 154 64 124 64 94 C86 81 93 63 93 37 C93 0 57 -66 24 -102 L56 -131 Z " />
<glyph glyph-name="quotedblleft" unicode="&#x201c;" horiz-adv-x="487" d="M197 838 C125 790 70 685 70 613 C70 580 96 553 131 553 C162 553 189 583 189 613 C167 626 160 644 160 670 C160 707 196 773 229 809 L197 838 Z M420 838 C348 790 293 685 293 613 C293 580 319 553 354 553 C385 553 412 583 412 613 C390 626 383 644 383 670 C383 707 419 773 452 809 L420 838 Z " />
<glyph glyph-name="quotedblright" unicode="&#x201d;" horiz-adv-x="478" d="M96 553 C168 601 223 706 223 778 C223 811 197 838 162 838 C131 838 104 808 104 778 C126 765 133 747 133 721 C133 684 97 618 64 582 L96 553 Z M301 553 C373 601 428 706 428 778 C428 811 402 838 367 838 C336 838 309 808 309 778 C331 765 338 747 338 721 C338 684 302 618 269 582 L301 553 Z " />
<glyph glyph-name="quotedblbase" unicode="&#x201e;" horiz-adv-x="478" d="M96 -131 C168 -83 223 22 223 94 C223 127 197 154 162 154 C131 154 104 124 104 94 C126 81 133 63 133 37 C133 0 97 -66 64 -102 L96 -131 Z M301 -131 C373 -83 428 22 428 94 C428 127 402 154 367 154 C336 154 309 124 309 94 C331 81 338 63 338 37 C338 0 302 -66 269 -102 L301 -131 Z " />
<glyph glyph-name="dagger" unicode="&#x2020;" horiz-adv-x="618" d="M39 472 L263 472 L255 323 L255 0 L359 0 L359 323 L351 472 L579 472 L579 560 L350 560 L359 800 L255 800 L263 560 L39 560 L39 472 Z " />
<glyph glyph-name="daggerdbl" unicode="&#x2021;" horiz-adv-x="662" d="M61 507 L287 507 L287 305 L61 305 L61 217 L285 217 L278 0 L382 0 L374 217 L601 217 L601 305 L373 305 L373 507 L601 507 L601 595 L374 595 L382 800 L278 800 L285 595 L61 595 L61 507 Z " />
<glyph glyph-name="bullet" unicode="&#x2022;" horiz-adv-x="407" d="M75 284 L332 284 L332 529 L75 529 L75 284 Z " />
<glyph glyph-name="ellipsis" unicode="&#x2026;" horiz-adv-x="747" d="M75 0 L184 0 L184 154 L75 154 L75 0 Z M319 0 L428 0 L428 154 L319 154 L319 0 Z M563 0 L672 0 L672 154 L563 154 L563 0 Z " />
<glyph glyph-name="perthousand" unicode="&#x2030;" horiz-adv-x="1622" d="M751 223 C751 351 812 390 884 390 C960 390 1019 352 1019 223 C1019 104 962 58 884 58 C780 58 751 133 751 223 L751 223 Z M42 576 C42 433 107 337 262 337 C422 337 488 433 488 576 C488 720 420 815 262 815 C108 815 42 720 42 576 L42 576 Z M662 223 C662 82 727 -16 884 -16 C1041 -16 1109 80 1109 223 C1109 367 1041 463 884 463 C727 463 662 367 662 223 L662 223 Z M1223 224 C1223 352 1284 390 1357 390 C1432 390 1491 352 1491 224 C1491 104 1434 58 1357 58 C1252 58 1223 134 1223 224 L1223 224 Z M131 576 C131 690 181 742 260 742 C370 742 399 671 399 573 C399 454 340 410 262 410 C176 410 131 465 131 576 L131 576 Z M1134 224 C1134 83 1199 -15 1357 -15 C1514 -15 1581 80 1581 224 C1581 368 1514 463 1357 463 C1199 463 1134 368 1134 224 L1134 224 Z M241 0 L341 0 L901 800 L801 800 L241 0 Z " />
<glyph glyph-name="guilsinglleft" unicode="&#x2039;" horiz-adv-x="317" d="M268 510 L179 510 L49 280 L175 46 L266 46 L153 280 L268 510 Z " />
<glyph glyph-name="guilsinglright" unicode="&#x203a;" horiz-adv-x="318" d="M165 280 L52 46 L143 46 L269 280 L139 510 L49 510 L165 280 Z " />
<glyph glyph-name="fraction" unicode="&#x2044;" horiz-adv-x="226" d="M-115 0 L-38 0 L341 800 L264 800 L-115 0 Z " />
<glyph glyph-name="Euro" unicode="&#x20ac;" horiz-adv-x="778" d="M592 447 L592 526 L249 526 C286 647 381 723 521 723 C585 723 663 707 715 679 L724 771 C667 801 584 816 514 816 C315 816 181 697 137 526 L43 526 L43 447 L124 447 C122 431 122 414 122 398 C122 381 122 365 124 350 L43 350 L43 271 L137 271 C181 100 315 -16 510 -16 C591 -16 667 3 722 33 L716 123 C663 94 593 78 521 78 C382 78 288 152 250 271 L592 271 L592 350 L233 350 C232 366 231 383 231 400 C231 416 232 431 233 447 L592 447 Z " />
<glyph glyph-name="trademark" unicode="&#x2122;" horiz-adv-x="1257" d="M835 406 L890 406 L1060 661 L1063 661 L1063 260 L1143 260 L1143 800 L1061 800 L866 495 L863 495 L674 800 L593 800 L593 260 L672 260 L672 658 L675 658 L835 406 Z M536 724 L536 800 L58 800 L58 724 L257 724 L257 260 L337 260 L337 724 L536 724 Z " />
<glyph glyph-name="Omega" unicode="&#x2126;" horiz-adv-x="923" d="M849 422 C849 655 696 816 461 816 C226 816 74 648 74 422 C74 292 156 146 259 99 L259 98 L57 98 L57 0 L395 0 L395 98 C281 136 182 263 182 414 C182 602 289 727 461 727 C633 727 742 602 742 414 C742 271 643 136 529 98 L529 0 L867 0 L867 98 L657 98 L657 99 C769 150 849 296 849 422 L849 422 Z " />
<glyph glyph-name="partialdiff" unicode="&#x2202;" horiz-adv-x="657" d="M480 476 C450 534 395 563 322 563 C119 563 42 451 42 275 C42 101 115 -17 321 -17 C508 -17 600 102 600 275 C600 545 499 738 233 839 L189 780 C304 735 437 642 480 476 L480 476 Z M140 274 C140 415 195 484 321 484 C433 484 502 418 502 273 C502 135 434 64 322 64 C187 64 140 149 140 274 L140 274 Z " />
<glyph glyph-name="Delta" unicode="&#x2206;" horiz-adv-x="799" d="M36 80 L36 0 L762 0 L762 80 L457 800 L349 800 L36 80 Z M401 699 L403 699 L652 93 L138 93 L401 699 Z " />
<glyph glyph-name="product" unicode="&#x220f;" horiz-adv-x="838" d="M581 -200 L685 -200 L685 701 L798 701 L798 800 L43 800 L43 701 L148 701 L148 -200 L252 -200 L252 701 L581 701 L581 -200 Z " />
<glyph glyph-name="summation" unicode="&#x2211;" horiz-adv-x="612" d="M569 -200 L569 -101 L170 -101 L385 301 L170 701 L569 701 L569 800 L44 800 L44 722 L280 303 L44 -122 L44 -200 L569 -200 Z " />
<glyph glyph-name="minus" unicode="&#x2212;" horiz-adv-x="623" d="M544 284 L544 355 L79 355 L79 284 L544 284 Z " />
<glyph glyph-name="radical" unicode="&#x221a;" horiz-adv-x="752" d="M341 0 L453 0 L752 832 L650 832 L402 94 L399 94 L241 556 L23 556 L23 475 L172 475 L341 0 Z " />
<glyph glyph-name="infinity" unicode="&#x221e;" horiz-adv-x="901" d="M663 120 C762 120 829 212 829 315 C829 416 766 504 667 504 C590 504 521 430 448 352 C374 430 309 504 242 504 C149 504 72 423 72 308 C72 210 135 118 237 118 C312 118 375 184 446 259 C518 185 590 120 663 120 L663 120 Z M240 195 C189 195 150 245 150 310 C150 372 188 427 243 427 C287 427 339 368 401 305 C344 246 291 195 240 195 L240 195 Z M657 422 C707 422 748 379 748 313 C748 238 702 197 654 197 C603 197 552 249 494 307 C553 368 605 422 657 422 L657 422 Z " />
<glyph glyph-name="integral" unicode="&#x222b;" horiz-adv-x="450" d="M5 -203 C176 -203 276 -172 276 11 L276 584 C276 701 329 709 444 709 L444 800 C301 800 172 774 172 597 L172 24 C172 -94 124 -115 5 -115 L5 -203 Z " />
<glyph glyph-name="approxequal" unicode="&#x2248;" horiz-adv-x="685" d="M478 346 C534 346 571 366 606 398 L588 470 C564 446 519 426 476 426 C384 426 334 486 214 486 C160 486 106 453 80 434 L94 362 C112 372 158 407 209 407 C313 407 374 346 478 346 L478 346 Z M478 160 C534 160 571 179 606 211 L588 283 C564 259 519 240 476 240 C384 240 334 300 214 300 C160 300 106 267 80 248 L94 176 C112 186 158 221 209 221 C313 221 374 160 478 160 L478 160 Z " />
<glyph glyph-name="notequal" unicode="&#x2260;" horiz-adv-x="522" d="M84 63 L156 63 L219 178 L453 178 L453 248 L257 248 L330 381 L453 381 L453 451 L369 451 L428 558 L356 558 L297 451 L71 451 L71 381 L258 381 L185 248 L71 248 L71 178 L147 178 L84 63 Z " />
<glyph glyph-name="lessequal" unicode="&#x2264;" horiz-adv-x="566" d="M495 581 L62 378 L62 295 L495 116 L495 204 L150 336 L495 492 L495 581 Z M494 0 L494 79 L66 79 L66 0 L494 0 Z " />
<glyph glyph-name="greaterequal" unicode="&#x2265;" horiz-adv-x="566" d="M500 0 L500 79 L72 79 L72 0 L500 0 Z M71 492 L415 336 L71 204 L71 116 L504 295 L504 378 L71 581 L71 492 Z " />
<glyph glyph-name="lozenge" unicode="&#x25ca;" horiz-adv-x="688" d="M35 402 L287 0 L402 0 L652 400 L406 800 L291 800 L35 402 Z M543 400 L345 80 L144 402 L348 721 L543 400 Z " />
<glyph glyph-name="apple" unicode="&#xf8ff;" horiz-adv-x="1191" d="M455 408 L436 408 L436 437 L455 437 L455 408 Z M515 408 L496 408 L496 437 L515 437 L515 408 Z M695 428 L676 428 L676 437 L695 437 L695 428 Z M755 408 L736 408 L736 437 L755 437 L755 408 Z M875 428 L856 428 L856 437 L875 437 L875 428 Z M106 417 L106 428 L96 428 L96 438 L85 438 L85 428 L75 428 L75 417 L85 417 L85 407 L96 407 L96 417 L106 417 Z M146 398 L146 408 L135 408 L135 398 L146 398 Z M176 417 L176 428 L166 428 L166 438 L155 438 L155 428 L145 428 L145 417 L155 417 L155 407 L166 407 L166 417 L176 417 Z M146 437 L146 448 L135 448 L135 437 L146 437 Z M186 398 L186 408 L175 408 L175 398 L186 398 Z M186 437 L186 448 L175 448 L175 437 L186 437 Z M236 398 L236 408 L225 408 L225 398 L215 398 L215 388 L226 388 L226 398 L236 398 Z M266 417 L266 428 L256 428 L256 438 L245 438 L245 428 L235 428 L235 417 L245 417 L245 407 L256 407 L256 417 L266 417 Z M236 437 L236 448 L226 448 L226 458 L215 458 L215 447 L225 447 L225 437 L236 437 Z M286 388 L286 398 L276 398 L276 408 L265 408 L265 398 L275 398 L275 388 L286 388 Z M286 447 L286 458 L275 458 L275 448 L265 448 L265 437 L276 437 L276 447 L286 447 Z M346 398 L346 408 L326 408 L326 437 L346 437 L346 448 L326 448 L326 458 L315 458 L315 448 L305 448 L305 437 L315 437 L315 407 L325 407 L325 398 L346 398 Z M406 407 L406 448 L395 448 L395 408 L376 408 L376 448 L365 448 L365 407 L375 407 L375 389 L365 389 L365 378 L376 378 L376 388 L386 388 L386 398 L396 398 L396 407 L406 407 Z M466 407 L466 438 L456 438 L456 448 L425 448 L425 378 L436 378 L436 398 L456 398 L456 407 L466 407 Z M526 407 L526 438 L516 438 L516 448 L495 448 L495 438 L485 438 L485 407 L495 407 L495 398 L516 398 L516 407 L526 407 Z M586 398 L586 408 L566 408 L566 437 L586 437 L586 448 L566 448 L566 458 L555 458 L555 448 L545 448 L545 437 L555 437 L555 407 L565 407 L565 398 L586 398 Z M646 398 L646 438 L636 438 L636 448 L616 448 L616 468 L605 468 L605 398 L616 398 L616 437 L635 437 L635 398 L646 398 Z M706 398 L706 408 L676 408 L676 417 L706 417 L706 438 L696 438 L696 448 L675 448 L675 438 L665 438 L665 407 L675 407 L675 398 L706 398 Z M766 378 L766 448 L735 448 L735 438 L725 438 L725 407 L735 407 L735 398 L755 398 L755 378 L766 378 Z M826 398 L826 448 L815 448 L815 408 L796 408 L796 448 L785 448 L785 407 L795 407 L795 398 L826 398 Z M886 398 L886 408 L856 408 L856 417 L886 417 L886 438 L876 438 L876 448 L855 448 L855 438 L845 438 L845 407 L855 407 L855 398 L886 398 Z M926 398 L926 408 L915 408 L915 398 L905 398 L905 388 L916 388 L916 398 L926 398 Z M956 417 L956 428 L946 428 L946 438 L935 438 L935 428 L925 428 L925 417 L935 417 L935 407 L946 407 L946 417 L956 417 Z M926 437 L926 448 L916 448 L916 458 L905 458 L905 447 L915 447 L915 437 L926 437 Z M976 388 L976 398 L966 398 L966 408 L955 408 L955 398 L965 398 L965 388 L976 388 Z M976 447 L976 458 L965 458 L965 448 L955 448 L955 437 L966 437 L966 447 L976 447 Z M1016 398 L1016 408 L1005 408 L1005 398 L1016 398 Z M1046 417 L1046 428 L1036 428 L1036 438 L1025 438 L1025 428 L1015 428 L1015 417 L1025 417 L1025 407 L1036 407 L1036 417 L1046 417 Z M1016 437 L1016 448 L1005 448 L1005 437 L1016 437 Z M1056 398 L1056 408 L1045 408 L1045 398 L1056 398 Z M1056 437 L1056 448 L1045 448 L1045 437 L1056 437 Z M1116 417 L1116 428 L1106 428 L1106 438 L1095 438 L1095 428 L1085 428 L1085 417 L1095 417 L1095 407 L1106 407 L1106 417 L1116 417 Z " />
<glyph glyph-name="fi" unicode="&#xfb01;" horiz-adv-x="669" d="M33 471 L111 471 L111 0 L211 0 L211 471 L489 471 L489 0 L587 0 L587 556 L211 556 L211 637 C211 722 257 754 324 754 C351 754 376 752 403 740 L402 830 C368 840 340 845 303 845 C190 845 111 784 111 641 L111 556 L33 556 L33 471 Z M489 669 L587 669 L587 800 L489 800 L489 669 Z " />
<glyph glyph-name="fl" unicode="&#xfb02;" horiz-adv-x="673" d="M484 0 L582 0 L582 832 L510 832 C467 840 403 846 360 846 C222 846 111 797 111 636 L111 556 L33 556 L33 471 L111 471 L111 0 L211 0 L211 471 L392 471 L392 556 L211 556 L211 631 C211 735 286 754 367 754 C406 754 450 747 484 738 L484 0 Z " />
</font>
</svg>
