<?xml version="1.0" encoding="UTF-8"?>
<svg xmlns="http://www.w3.org/2000/svg" xmlns:xlink="http://www.w3.org/1999/xlink" version="1.2" >
<font id="Neue Black">
<font-face  font-family="Neue" units-per-em="1000" ascent="800" descent="-200" font-style="normal" font-weight="900" font-stretch="normal" cap-height="800" x-height="556" underline-position="-75" underline-thickness="50" />
<missing-glyph  horiz-adv-x="280" d="" />
<glyph glyph-name="NULL" d="" />
<glyph glyph-name="CR" unicode="&#xd;" horiz-adv-x="250" d="" />
<glyph glyph-name="space" unicode="&#x20;" horiz-adv-x="280" d="" />
<glyph glyph-name="exclam" unicode="&#x21;" horiz-adv-x="383" d="M97 270 L285 270 L295 535 L295 800 L87 800 L87 532 L97 270 Z M87 0 L296 0 L296 171 L87 171 L87 0 Z " />
<glyph glyph-name="quotedbl" unicode="&#x22;" horiz-adv-x="562" d="M258 833 L54 833 L68 488 L243 488 L258 833 Z M508 833 L304 833 L318 488 L493 488 L508 833 Z " />
<glyph glyph-name="numbersign" unicode="&#x23;" horiz-adv-x="859" d="M469 0 L659 0 L674 156 L804 156 L804 306 L689 306 L708 495 L804 495 L804 645 L723 645 L739 800 L549 800 L533 645 L374 645 L390 800 L200 800 L184 645 L55 645 L55 495 L169 495 L150 306 L55 306 L55 156 L135 156 L120 0 L310 0 L325 156 L484 156 L469 0 Z M359 495 L518 495 L499 306 L340 306 L359 495 Z " />
<glyph glyph-name="dollar" unicode="&#x24;" horiz-adv-x="703" d="M292 -100 L422 -100 L422 -9 C580 19 665 130 665 253 C665 401 537 445 422 477 L422 640 C486 631 555 612 603 584 L641 754 C591 782 505 804 422 812 L422 893 L292 893 L292 812 C149 792 45 704 45 556 C45 398 176 350 292 317 L292 157 C211 163 137 185 69 218 L61 35 C130 2 213 -11 292 -15 L292 -100 Z M243 579 C243 607 261 626 292 637 L292 518 C262 533 243 551 243 579 L243 579 Z M466 223 C466 200 453 179 422 167 L422 276 C449 263 466 247 466 223 L466 223 Z " />
<glyph glyph-name="percent" unicode="&#x25;" horiz-adv-x="1137" d="M201 0 L361 0 L923 800 L763 800 L201 0 Z M203 579 C203 647 222 679 267 679 C318 679 331 647 331 579 C331 511 309 479 267 479 C219 479 203 511 203 579 L203 579 Z M36 579 C36 437 105 343 267 343 C429 343 498 437 498 579 C498 721 429 815 267 815 C105 815 36 721 36 579 L36 579 Z M806 221 C806 289 825 321 870 321 C921 321 934 289 934 221 C934 153 912 121 870 121 C822 121 806 153 806 221 L806 221 Z M639 221 C639 79 708 -15 870 -15 C1032 -15 1101 79 1101 221 C1101 363 1032 457 870 457 C708 457 639 363 639 221 L639 221 Z " />
<glyph glyph-name="ampersand" unicode="&#x26;" horiz-adv-x="893" d="M700 430 C680 348 641 284 593 237 C524 277 459 326 408 379 C523 423 649 474 649 608 C649 725 553 815 400 815 C231 815 133 703 133 583 C133 532 150 478 180 423 C100 381 36 320 36 216 C36 77 146 -16 323 -16 C417 -16 515 10 599 59 C682 22 768 0 848 0 L872 136 C829 139 781 151 731 170 C770 216 800 270 817 332 L700 430 Z M300 584 C300 641 345 669 397 669 C446 669 488 642 488 600 C488 544 415 516 328 484 C310 518 300 552 300 584 L300 584 Z M355 131 C264 131 217 169 217 236 C217 267 233 290 260 310 C311 250 375 194 445 146 C413 136 383 131 355 131 L355 131 Z " />
<glyph glyph-name="quotesingle" unicode="&#x27;" horiz-adv-x="312" d="M258 833 L54 833 L68 488 L243 488 L258 833 Z " />
<glyph glyph-name="parenleft" unicode="&#x28;" horiz-adv-x="392" d="M268 887 C134 787 36 582 36 365 C36 149 133 -88 274 -193 L374 -105 C274 4 201 197 201 364 C201 522 266 675 370 792 L268 887 Z " />
<glyph glyph-name="parenright" unicode="&#x29;" horiz-adv-x="392" d="M22 792 C126 675 191 522 191 364 C191 197 118 4 18 -105 L118 -193 C259 -88 356 149 356 365 C356 582 258 787 124 887 L22 792 Z " />
<glyph glyph-name="asterisk" unicode="&#x2a;" horiz-adv-x="524" d="M485 596 L447 716 L324 685 L327 800 L189 800 L194 682 L78 716 L39 596 L160 553 L79 454 L181 380 L264 476 L345 379 L447 453 L370 554 L485 596 Z " />
<glyph glyph-name="plus" unicode="&#x2b;" horiz-adv-x="608" d="M369 577 L239 577 L239 375 L37 375 L37 245 L239 245 L239 43 L369 43 L369 245 L571 245 L571 375 L369 375 L369 577 Z " />
<glyph glyph-name="comma" unicode="&#x2c;" horiz-adv-x="318" d="M165 -140 L274 189 L75 189 L25 -140 L165 -140 Z " />
<glyph glyph-name="&amp;#x2d;" unicode="&#x2d;" horiz-adv-x="449" d="M387 235 L387 385 L62 385 L62 235 L387 235 Z " />
<glyph glyph-name="&amp;#xad;" unicode="&#xad;" horiz-adv-x="449" d="M387 235 L387 385 L62 385 L62 235 L387 235 Z " />
<glyph glyph-name="period" unicode="&#x2e;" horiz-adv-x="333" d="M62 0 L271 0 L271 199 L62 199 L62 0 Z " />
<glyph glyph-name="slash" unicode="&#x2f;" horiz-adv-x="534" d="M28 0 L188 0 L506 800 L346 800 L28 0 Z " />
<glyph glyph-name="zero" unicode="0" horiz-adv-x="752" d="M46 400 C46 159 145 -16 376 -16 C607 -16 706 159 706 400 C706 641 607 816 376 816 C145 816 46 641 46 400 L46 400 Z M246 401 C246 518 269 642 379 642 C492 642 506 508 506 408 C506 282 482 158 377 158 C270 158 246 282 246 401 L246 401 Z " />
<glyph glyph-name="one" unicode="1" horiz-adv-x="616" d="M599 0 L599 175 L432 175 L432 816 L399 816 L55 750 L55 570 L232 595 L232 175 L55 175 L55 0 L599 0 Z " />
<glyph glyph-name="two" unicode="2" horiz-adv-x="671" d="M626 0 L626 175 L287 175 L287 178 C443 296 608 430 608 595 C608 748 475 816 294 816 C195 816 107 789 33 747 L67 597 C135 629 218 647 276 647 C356 647 403 610 403 556 C403 448 226 299 63 175 L63 0 L626 0 Z " />
<glyph glyph-name="three" unicode="3" horiz-adv-x="656" d="M605 602 C605 743 461 816 308 816 C201 816 120 788 53 745 L75 590 C140 622 210 643 272 642 C336 641 385 613 385 564 C385 507 312 477 174 450 L197 324 C320 331 393 291 393 232 C393 183 341 154 270 152 C207 151 108 178 58 203 L40 32 C100 3 164 -16 256 -16 C440 -16 603 73 603 235 C603 330 550 374 470 409 L470 411 C556 448 605 521 605 602 L605 602 Z " />
<glyph glyph-name="four" unicode="4" horiz-adv-x="689" d="M662 133 L662 308 L593 308 L593 474 L395 474 L395 308 L239 308 L458 800 L239 800 L29 308 L29 133 L395 133 L395 0 L593 0 L593 133 L662 133 Z " />
<glyph glyph-name="five" unicode="5" horiz-adv-x="655" d="M412 228 C412 189 381 150 271 150 C191 150 117 171 51 204 L41 38 C123 -1 201 -15 277 -15 C499 -15 614 106 614 251 C614 418 465 480 255 490 L269 625 L583 625 L598 800 L101 800 L62 342 C288 329 412 303 412 228 L412 228 Z " />
<glyph glyph-name="six" unicode="6" horiz-adv-x="722" d="M574 814 C566 814 548 816 528 816 C278 816 37 625 37 326 C37 116 157 -16 361 -16 C551 -16 693 98 693 270 C693 425 578 511 440 511 C378 511 320 494 268 467 C304 555 389 627 562 627 C584 627 610 626 636 624 L574 814 Z M358 356 C427 356 483 324 483 257 C483 201 444 144 372 144 C287 144 244 224 244 334 C279 347 322 356 358 356 L358 356 Z " />
<glyph glyph-name="seven" unicode="7" horiz-adv-x="598" d="M321 0 L596 752 L586 799 L39 799 L16 612 L358 612 L116 0 L321 0 Z " />
<glyph glyph-name="eight" unicode="8" horiz-adv-x="714" d="M49 204 C49 51 195 -16 334 -16 C487 -16 664 66 664 250 C664 351 607 404 536 437 C605 470 659 522 659 604 C659 726 543 816 370 816 C199 816 57 719 57 556 C57 465 108 414 175 380 C102 348 49 295 49 204 L49 204 Z M469 226 C469 180 440 137 362 137 C273 137 225 178 225 240 C225 273 250 313 285 338 C380 308 469 288 469 226 L469 226 Z M243 585 C243 630 280 666 352 666 C429 666 468 623 468 576 C468 545 459 510 414 478 C323 503 243 522 243 585 L243 585 Z " />
<glyph glyph-name="nine" unicode="9" horiz-adv-x="723" d="M148 -13 C156 -13 174 -15 194 -15 C444 -15 685 176 685 475 C685 685 565 817 361 817 C171 817 29 703 29 531 C29 376 144 290 282 290 C343 290 401 306 454 334 C417 245 333 174 160 174 C138 174 112 175 86 177 L148 -13 Z M364 445 C295 445 239 477 239 544 C239 600 278 657 350 657 C434 657 477 577 478 467 C443 453 399 445 364 445 L364 445 Z " />
<glyph glyph-name="colon" unicode="&#x3a;" horiz-adv-x="355" d="M73 0 L282 0 L282 199 L73 199 L73 0 Z M73 387 L282 387 L282 586 L73 586 L73 387 Z " />
<glyph glyph-name="semicolon" unicode="&#x3b;" horiz-adv-x="351" d="M79 387 L288 387 L288 586 L79 586 L79 387 Z M173 -140 L282 189 L83 189 L33 -140 L173 -140 Z " />
<glyph glyph-name="less" unicode="&#x3c;" horiz-adv-x="525" d="M469 581 L36 367 L36 220 L469 14 L469 175 L204 293 L469 416 L469 581 Z " />
<glyph glyph-name="equal" unicode="&#x3d;" horiz-adv-x="567" d="M503 365 L503 495 L64 495 L64 365 L503 365 Z M503 115 L503 245 L64 245 L64 115 L503 115 Z " />
<glyph glyph-name="greater" unicode="&#x3e;" horiz-adv-x="525" d="M56 426 L321 303 L56 185 L56 24 L489 230 L489 377 L56 591 L56 426 Z " />
<glyph glyph-name="question" unicode="&#x3f;" horiz-adv-x="653" d="M152 0 L361 0 L361 171 L152 171 L152 0 Z M161 242 L361 242 L361 337 C501 373 616 412 616 573 C616 744 486 816 317 816 C210 816 113 786 35 745 L79 572 C149 608 216 628 297 628 C372 628 412 597 412 549 C412 486 344 441 161 412 L161 242 Z " />
<glyph glyph-name="at" unicode="&#x40;" horiz-adv-x="875" d="M496 172 C515 124 554 106 617 106 C742 106 837 180 837 363 C837 598 681 696 482 696 C274 696 49 590 49 268 C49 -3 208 -115 464 -115 C530 -115 602 -108 678 -81 L683 56 C598 34 526 28 474 28 C302 28 199 99 199 276 C199 483 341 553 476 553 C587 553 688 505 688 370 C688 300 661 238 626 238 C615 238 599 245 601 270 L617 451 C581 466 520 480 467 480 C321 480 256 377 256 265 C256 142 333 104 392 104 C439 104 473 127 496 172 L496 172 Z M426 251 C413 251 406 261 406 283 C406 319 425 353 457 353 L461 353 L445 257 C441 255 433 251 426 251 L426 251 Z " />
<glyph glyph-name="A" unicode="A" horiz-adv-x="822" d="M603 0 L820 0 L519 800 L313 800 L-8 0 L205 0 L260 153 L553 153 L603 0 Z M415 583 L501 316 L318 316 L415 583 Z " />
<glyph glyph-name="B" unicode="B" horiz-adv-x="765" d="M80 0 L418 0 C641 0 727 100 727 234 C727 313 699 373 631 409 C699 445 727 504 727 581 C727 712 640 800 417 800 L80 800 L80 0 Z M424 333 C499 333 519 284 519 252 C519 218 498 170 424 170 L280 170 L280 333 L424 333 Z M424 630 C497 630 519 578 519 547 C519 514 497 467 424 467 L280 467 L280 630 L424 630 Z " />
<glyph glyph-name="C" unicode="C" horiz-adv-x="695" d="M672 196 C611 176 583 167 493 167 C352 167 253 252 253 401 C253 549 340 636 488 636 C546 636 596 633 666 610 L685 792 C623 813 549 815 482 815 C222 815 47 628 47 401 C47 179 216 -16 464 -16 C554 -16 608 -13 672 11 L672 196 Z " />
<glyph glyph-name="D" unicode="D" horiz-adv-x="825" d="M80 0 L383 0 C604 0 791 179 791 400 C791 635 604 800 383 800 L80 800 L80 0 Z M383 620 C521 620 594 510 594 400 C594 294 526 180 383 180 L280 180 L280 620 L383 620 Z " />
<glyph glyph-name="E" unicode="E" horiz-adv-x="692" d="M649 0 L649 180 L280 180 L280 315 L579 315 L579 485 L280 485 L280 620 L649 620 L649 800 L80 800 L80 0 L649 0 Z " />
<glyph glyph-name="F" unicode="F" horiz-adv-x="677" d="M609 305 L609 485 L280 485 L280 620 L679 620 L679 800 L80 800 L80 0 L280 0 L280 305 L609 305 Z " />
<glyph glyph-name="G" unicode="G" horiz-adv-x="816" d="M439 285 L562 285 L562 161 C537 159 512 158 488 158 C325 158 236 238 236 403 C236 562 329 638 485 638 C587 638 672 623 743 580 L757 759 C708 790 598 816 480 816 C201 816 30 634 30 397 C30 123 235 -16 479 -16 C611 -16 698 9 758 46 L758 455 L439 455 L439 285 Z " />
<glyph glyph-name="H" unicode="H" horiz-adv-x="968" d="M684 0 L884 0 L884 800 L684 800 L684 495 L284 495 L284 800 L84 800 L84 0 L284 0 L284 305 L684 305 L684 0 Z " />
<glyph glyph-name="I" unicode="I" horiz-adv-x="364" d="M80 0 L280 0 L280 800 L80 800 L80 0 Z " />
<glyph glyph-name="J" unicode="J" horiz-adv-x="499" d="M254 350 C254 249 216 188 30 188 L30 0 C337 0 454 114 454 350 L454 800 L254 800 L254 350 Z " />
<glyph glyph-name="K" unicode="K" horiz-adv-x="791" d="M80 0 L280 0 L280 336 L530 0 L782 0 L453 419 L783 800 L545 800 L280 466 L280 800 L80 800 L80 0 Z " />
<glyph glyph-name="L" unicode="L" horiz-adv-x="657" d="M80 0 L639 0 L639 190 L280 190 L280 800 L80 800 L80 0 Z " />
<glyph glyph-name="M" unicode="M" horiz-adv-x="1156" d="M479 0 L645 0 L872 438 L872 0 L1072 0 L1072 800 L872 800 L572 210 L284 800 L84 800 L84 0 L284 0 L284 411 L479 0 Z " />
<glyph glyph-name="N" unicode="N" horiz-adv-x="968" d="M684 0 L884 0 L884 800 L684 800 L684 305 L260 800 L84 800 L84 0 L284 0 L284 463 L684 0 Z " />
<glyph glyph-name="O" unicode="O" horiz-adv-x="890" d="M35 403 C35 125 224 -16 446 -16 C666 -16 855 123 855 404 C855 674 682 816 447 816 C205 816 35 665 35 403 L35 403 Z M241 402 C241 570 329 648 445 648 C561 648 649 568 649 408 C649 232 561 152 444 152 C329 152 241 233 241 402 L241 402 Z " />
<glyph glyph-name="P" unicode="P" horiz-adv-x="753" d="M80 0 L280 0 L280 245 L459 245 C594 245 727 352 727 527 C727 673 638 800 459 800 L80 800 L80 0 Z M410 620 C488 620 520 564 520 522 C520 471 488 415 410 415 L280 415 L280 620 L410 620 Z " />
<glyph glyph-name="Q" unicode="Q" horiz-adv-x="889" d="M35 403 C35 125 224 -16 446 -16 C513 -16 578 -3 635 23 L654 0 L851 0 L758 115 C818 184 855 280 855 404 C855 674 682 816 447 816 C205 816 35 665 35 403 L35 403 Z M241 402 C241 570 329 648 445 648 C561 648 649 568 649 408 C649 356 641 313 628 278 L576 343 L378 343 L520 165 C497 156 471 152 444 152 C329 152 241 233 241 402 L241 402 Z " />
<glyph glyph-name="R" unicode="R" horiz-adv-x="785" d="M81 0 L281 0 L281 245 L392 245 L503 0 L728 0 L588 278 C668 322 728 409 728 527 C728 673 639 800 460 800 L81 800 L81 0 Z M411 620 C489 620 521 564 521 522 C521 471 489 415 411 415 L281 415 L281 620 L411 620 Z " />
<glyph glyph-name="S" unicode="S" horiz-adv-x="678" d="M448 223 C448 186 426 155 338 155 C237 155 146 178 63 218 L55 35 C138 -4 241 -16 332 -16 C545 -16 647 110 647 253 C647 522 237 449 237 579 C237 621 279 645 341 645 C418 645 518 624 585 584 L623 754 C560 790 449 816 348 816 C174 816 39 725 39 556 C39 273 448 343 448 223 L448 223 Z " />
<glyph glyph-name="T" unicode="T" horiz-adv-x="710" d="M705 620 L705 800 L5 800 L5 620 L255 620 L255 0 L455 0 L455 620 L705 620 Z " />
<glyph glyph-name="U" unicode="U" horiz-adv-x="904" d="M632 800 L632 384 C632 268 568 172 452 172 C336 172 272 241 272 384 L272 800 L72 800 L72 384 C72 115 231 -16 452 -16 C673 -16 832 163 832 384 L832 800 L632 800 Z " />
<glyph glyph-name="V" unicode="V" horiz-adv-x="808" d="M210 800 L-10 800 L291 0 L497 0 L818 800 L610 800 L398 234 L210 800 Z " />
<glyph glyph-name="W" unicode="W" horiz-adv-x="1239" d="M1242 800 L1034 800 L881 241 L721 800 L524 800 L357 244 L224 800 L7 800 L238 0 L449 0 L617 527 L780 0 L991 0 L1242 800 Z " />
<glyph glyph-name="X" unicode="X" horiz-adv-x="788" d="M808 800 L561 800 L394 551 L228 800 L-20 800 L286 400 L-20 0 L228 0 L394 248 L561 0 L808 0 L502 399 L808 800 Z " />
<glyph glyph-name="Y" unicode="Y" horiz-adv-x="788" d="M207 800 L-20 800 L284 266 L284 0 L484 0 L484 267 L808 800 L600 800 L389 444 L207 800 Z " />
<glyph glyph-name="Z" unicode="Z" horiz-adv-x="713" d="M670 0 L670 180 L295 180 L667 680 L667 800 L41 800 L41 620 L394 620 L41 159 L41 0 L670 0 Z " />
<glyph glyph-name="bracketleft" unicode="&#x5b;" horiz-adv-x="353" d="M304 -200 L304 -61 L229 -61 L229 694 L304 694 L304 833 L76 833 L76 -200 L304 -200 Z " />
<glyph glyph-name="backslash" unicode="&#x5c;" horiz-adv-x="534" d="M188 800 L28 800 L346 0 L506 0 L188 800 Z " />
<glyph glyph-name="bracketright" unicode="&#x5d;" horiz-adv-x="353" d="M277 -200 L277 833 L49 833 L49 694 L124 694 L124 -61 L49 -61 L49 -200 L277 -200 Z " />
<glyph glyph-name="asciicircum" unicode="&#x5e;" horiz-adv-x="727" d="M687 367 L473 800 L246 800 L40 367 L241 367 L359 632 L482 367 L687 367 Z " />
<glyph glyph-name="underscore" unicode="&#x5f;" horiz-adv-x="500" d="M500 -217 L500 -67 L0 -67 L0 -217 L500 -217 Z " />
<glyph glyph-name="grave" unicode="&#x60;" horiz-adv-x="403" d="M353 607 L263 800 L50 800 L173 607 L353 607 Z " />
<glyph glyph-name="a" unicode="a" horiz-adv-x="703" d="M639 0 L639 556 C493 572 390 573 367 573 C112 573 34 433 34 272 C34 105 83 -17 249 -17 C328 -17 385 12 442 88 L442 0 L639 0 Z M315 138 C252 138 225 190 225 270 C225 341 250 423 352 423 C388 423 415 421 441 416 L441 201 C397 157 361 138 315 138 L315 138 Z " />
<glyph glyph-name="b" unicode="b" horiz-adv-x="689" d="M61 7 C136 -7 233 -17 322 -17 C593 -17 656 140 656 309 C656 468 599 573 448 573 C372 573 314 547 258 480 L258 832 L61 832 L61 7 Z M377 408 C430 408 464 387 464 287 C464 202 439 136 337 136 C322 136 293 137 258 141 L258 363 C299 397 339 408 377 408 L377 408 Z " />
<glyph glyph-name="c" unicode="c" horiz-adv-x="558" d="M373 406 C419 406 457 397 513 384 L522 553 C464 566 400 573 334 573 C102 573 31 423 31 270 C31 71 152 -17 321 -17 C385 -17 471 -4 515 14 L515 168 C468 155 421 151 363 151 C292 151 223 179 223 283 C223 365 265 406 373 406 L373 406 Z " />
<glyph glyph-name="d" unicode="d" horiz-adv-x="703" d="M442 0 L640 0 L640 832 L442 832 L442 566 C413 571 386 573 367 573 C98 573 33 415 33 254 C33 95 96 -17 249 -17 C328 -17 385 12 442 88 L442 0 Z M315 138 C263 138 225 165 225 270 C225 354 249 423 351 423 C382 423 411 420 442 415 L442 202 C397 157 359 138 315 138 L315 138 Z " />
<glyph glyph-name="e" unicode="e" horiz-adv-x="624" d="M583 229 C590 272 594 309 594 343 C594 528 477 573 341 573 C125 573 32 458 32 263 C32 87 109 -17 355 -17 C465 -17 540 4 552 7 L568 164 C507 155 435 147 377 147 C300 147 248 166 230 229 L583 229 Z M329 424 C375 424 409 397 409 350 C409 343 408 334 406 326 L227 326 C239 392 279 424 329 424 L329 424 Z " />
<glyph glyph-name="f" unicode="f" horiz-adv-x="432" d="M30 395 L104 395 L104 0 L302 0 L302 395 L402 395 L422 556 L302 556 L302 612 C302 658 328 674 369 674 C402 674 454 662 475 654 L471 827 C432 838 378 849 329 849 C192 849 104 766 104 624 L104 556 L30 556 L30 395 Z " />
<glyph glyph-name="g" unicode="g" horiz-adv-x="690" d="M432 87 C432 -19 392 -45 305 -45 C233 -45 128 -31 75 -16 L92 -192 C151 -207 252 -217 312 -217 C513 -217 628 -109 628 46 L628 556 C482 572 390 573 367 573 C112 573 34 433 34 272 C34 105 118 34 242 34 C317 34 376 60 432 127 L432 87 Z M307 189 C258 189 225 210 225 290 C225 361 250 415 352 415 C366 415 395 413 431 410 L432 243 C389 205 350 189 307 189 L307 189 Z " />
<glyph glyph-name="h" unicode="h" horiz-adv-x="696" d="M63 0 L260 0 L260 362 C298 385 336 396 378 396 C416 396 440 386 440 342 L440 0 L638 0 L638 385 C638 525 579 573 457 573 C374 573 313 526 260 465 L260 832 L63 832 L63 0 Z " />
<glyph glyph-name="i" unicode="i" horiz-adv-x="359" d="M98 0 L296 0 L296 556 L98 556 L98 0 Z M98 639 L296 639 L296 816 L98 816 L98 639 Z " />
<glyph glyph-name="j" unicode="j" horiz-adv-x="359" d="M98 9 C98 -33 71 -44 40 -44 C16 -44 -17 -39 -33 -35 L-16 -202 C20 -212 56 -217 89 -217 C206 -217 296 -156 296 -33 L296 556 L98 556 L98 9 Z M98 639 L296 639 L296 816 L98 816 L98 639 Z " />
<glyph glyph-name="k" unicode="k" horiz-adv-x="656" d="M63 0 L260 0 L260 254 L420 0 L658 0 L443 295 L658 556 L431 556 L260 309 L260 832 L63 832 L63 0 Z " />
<glyph glyph-name="l" unicode="l" horiz-adv-x="344" d="M77 0 L275 0 L275 832 L77 832 L77 0 Z " />
<glyph glyph-name="m" unicode="m" horiz-adv-x="1052" d="M796 0 L994 0 L994 385 C994 514 937 573 831 573 C742 573 679 532 619 459 C601 538 547 573 452 573 C379 573 310 527 259 468 L259 573 L62 556 L62 0 L259 0 L259 363 C293 384 326 396 361 396 C408 396 429 374 429 342 L429 0 L627 0 L627 363 C661 384 693 396 728 396 C775 396 796 374 796 342 L796 0 Z " />
<glyph glyph-name="n" unicode="n" horiz-adv-x="695" d="M62 0 L259 0 L259 362 C297 385 335 396 377 396 C415 396 439 386 439 342 L439 0 L637 0 L637 385 C637 525 578 573 456 573 C373 573 312 526 259 465 L259 573 L62 556 L62 0 Z " />
<glyph glyph-name="o" unicode="o" horiz-adv-x="668" d="M32 278 C32 103 118 -17 335 -17 C554 -17 636 105 636 278 C636 450 553 573 334 573 C117 573 32 452 32 278 L32 278 Z M224 283 C224 380 254 422 333 422 C412 422 444 379 444 281 C444 184 413 138 334 138 C255 138 224 185 224 283 L224 283 Z " />
<glyph glyph-name="p" unicode="p" horiz-adv-x="690" d="M62 -200 L259 -200 L259 -15 C290 -17 316 -17 320 -17 C594 -17 657 138 657 308 C657 468 600 573 449 573 C373 573 316 547 259 480 L259 573 L62 556 L62 -200 Z M378 408 C431 408 465 387 465 287 C465 202 441 131 337 131 C325 131 294 132 259 136 L259 363 C299 397 342 408 378 408 L378 408 Z " />
<glyph glyph-name="q" unicode="q" horiz-adv-x="689" d="M627 554 C541 568 442 573 366 573 C97 573 33 415 33 253 C33 86 99 -17 251 -17 C325 -17 377 8 430 73 L430 -200 L627 -200 L627 554 Z M319 138 C267 138 224 165 224 272 C224 353 248 415 350 415 C365 415 394 413 430 410 L430 191 C392 154 359 138 319 138 L319 138 Z " />
<glyph glyph-name="r" unicode="r" horiz-adv-x="500" d="M62 0 L259 0 L259 348 C304 368 345 376 397 376 C419 376 450 375 479 368 L481 571 C468 572 455 573 440 573 C359 573 305 523 259 462 L259 573 L62 556 L62 0 Z " />
<glyph glyph-name="s" unicode="s" horiz-adv-x="566" d="M361 173 C361 148 326 137 262 137 C198 137 140 146 42 165 L54 9 C106 -3 180 -17 274 -17 C452 -17 536 67 536 175 C536 317 403 333 305 344 C249 350 205 356 205 384 C205 407 237 415 298 415 C358 415 423 400 504 376 L510 544 C452 561 371 573 284 573 C149 573 35 519 35 388 C35 238 166 218 261 207 C317 201 361 197 361 173 L361 173 Z " />
<glyph glyph-name="t" unicode="t" horiz-adv-x="462" d="M24 395 L102 395 L102 154 C102 24 185 -17 289 -17 C329 -17 369 -10 412 -1 L423 174 C406 168 375 164 358 164 C327 164 300 176 300 217 L300 395 L425 395 L441 556 L300 556 L300 724 L102 724 L102 556 L24 556 L24 395 Z " />
<glyph glyph-name="u" unicode="u" horiz-adv-x="697" d="M634 556 L435 556 L435 194 C396 171 359 160 318 160 C279 160 255 171 255 214 L255 556 L58 556 L58 172 C58 31 117 -17 238 -17 C321 -17 381 29 435 90 L435 0 L634 0 L634 556 Z " />
<glyph glyph-name="v" unicode="v" horiz-adv-x="646" d="M207 556 L-1 556 L192 0 L448 0 L648 556 L453 556 L322 150 L318 150 L207 556 Z " />
<glyph glyph-name="w" unicode="w" horiz-adv-x="988" d="M222 556 L24 556 L134 0 L386 0 L485 356 L489 356 L573 0 L832 0 L969 556 L777 556 L702 148 L698 148 L595 556 L401 556 L288 142 L284 142 L222 556 Z " />
<glyph glyph-name="x" unicode="x" horiz-adv-x="643" d="M635 556 L430 556 L323 378 L225 556 L8 556 L188 262 L8 0 L222 0 L317 181 L409 0 L635 0 L456 292 L635 556 Z " />
<glyph glyph-name="y" unicode="y" horiz-adv-x="697" d="M435 87 C435 -22 399 -51 295 -51 C231 -51 128 -37 83 -31 L102 -198 C171 -208 261 -217 307 -217 C520 -217 634 -109 634 46 L634 556 L435 556 L435 240 C396 217 359 207 318 207 C279 207 255 217 255 261 L255 556 L58 556 L58 218 C58 78 117 30 239 30 C321 30 381 76 435 136 L435 87 Z " />
<glyph glyph-name="z" unicode="z" horiz-adv-x="592" d="M554 0 L554 161 L285 161 L551 457 L535 556 L59 556 L29 395 L291 395 L48 129 L48 0 L554 0 Z " />
<glyph glyph-name="braceleft" unicode="&#x7b;" horiz-adv-x="385" d="M338 -200 L338 -61 L318 -61 C275 -61 253 -46 253 -13 L253 226 C253 285 220 296 200 306 C221 318 253 330 253 389 L253 646 C253 680 273 694 316 694 L336 694 L336 833 L274 833 C136 833 102 776 102 637 L102 424 C102 382 64 365 32 365 L32 250 C65 250 101 244 101 191 L101 -4 C101 -153 138 -200 276 -200 L338 -200 Z " />
<glyph glyph-name="bar" unicode="&#x7c;" horiz-adv-x="312" d="M80 0 L232 0 L232 800 L80 800 L80 0 Z " />
<glyph glyph-name="braceright" unicode="&#x7d;" horiz-adv-x="385" d="M109 -200 C247 -200 284 -153 284 -4 L284 191 C284 244 320 250 353 250 L353 365 C321 365 283 382 283 424 L283 637 C283 776 249 833 111 833 L49 833 L49 694 L69 694 C112 694 132 680 132 646 L132 389 C132 330 164 318 185 306 C165 296 132 285 132 226 L132 -13 C132 -46 110 -61 67 -61 L47 -61 L47 -200 L109 -200 Z " />
<glyph glyph-name="asciitilde" unicode="&#x7e;" horiz-adv-x="657" d="M473 239 C538 239 572 262 607 294 L589 475 C565 451 515 430 464 430 C372 430 326 490 195 490 C141 490 79 457 53 438 L69 255 C87 265 133 300 190 300 C294 300 369 239 473 239 L473 239 Z " />
<glyph glyph-name="uni00A0" unicode="&#xa0;" horiz-adv-x="280" d="" />
<glyph glyph-name="exclamdown" unicode="&#xa1;" horiz-adv-x="352" d="M72 -200 L280 -200 L280 68 L270 330 L82 330 L72 65 L72 -200 Z M72 429 L281 429 L281 600 L72 600 L72 429 Z " />
<glyph glyph-name="cent" unicode="&#xa2;" horiz-adv-x="625" d="M326 -15 L426 -15 L426 101 C482 106 536 115 564 127 L564 281 C518 269 473 262 426 259 L426 520 C467 516 510 510 556 502 L569 659 C523 671 476 679 426 683 L426 800 L326 800 L326 685 C126 672 37 544 37 383 C37 196 171 103 326 97 L326 -15 Z M221 402 C221 472 260 511 326 521 L326 262 C271 274 221 312 221 402 L221 402 Z " />
<glyph glyph-name="sterling" unicode="&#xa3;" horiz-adv-x="758" d="M703 0 L703 176 L324 176 L324 305 L561 305 L561 455 L324 455 L324 479 C324 604 377 630 467 630 C515 630 608 612 685 564 L714 742 C642 797 547 816 460 816 C282 816 124 707 124 500 L124 455 L51 455 L51 305 L124 305 L124 176 L51 176 L51 0 L703 0 Z " />
<glyph glyph-name="yen" unicode="&#xa5;" horiz-adv-x="801" d="M717 59 L717 164 L490 164 L490 180 L520 228 L718 228 L718 333 L587 333 L768 616 L570 616 L403 342 L399 342 L258 616 L41 616 L209 333 L72 333 L72 228 L271 228 L300 179 L300 164 L72 164 L72 59 L300 59 L300 0 L490 0 L490 59 L717 59 Z " />
<glyph glyph-name="brokenbar" unicode="&#xa6;" horiz-adv-x="312" d="M81 448 L231 448 L231 800 L81 800 L81 448 Z M81 0 L231 0 L231 352 L81 352 L81 0 Z " />
<glyph glyph-name="section" unicode="&#xa7;" horiz-adv-x="639" d="M54 379 C54 177 421 229 421 173 C421 141 386 123 322 123 C249 123 133 145 72 176 L74 32 C135 2 203 -16 317 -16 C473 -16 586 47 586 178 C586 238 559 275 520 300 C564 324 587 363 587 417 C587 614 215 533 215 619 C215 651 244 673 323 673 C391 673 493 651 540 624 L566 763 C509 794 407 817 332 817 C188 817 54 745 54 620 C54 559 78 518 113 491 C77 466 54 430 54 379 L54 379 Z M214 409 C214 421 216 433 224 444 C320 421 421 425 421 385 C421 372 414 353 395 343 C303 361 214 363 214 409 L214 409 Z " />
<glyph glyph-name="dieresis" unicode="&#xa8;" horiz-adv-x="469" d="M30 638 L189 638 L189 787 L30 787 L30 638 Z M280 638 L439 638 L439 787 L280 787 L280 638 Z " />
<glyph glyph-name="copyright" unicode="&#xa9;" horiz-adv-x="733" d="M52 307 C52 110 177 -15 366 -15 C556 -15 682 110 682 307 C682 504 556 630 366 630 C177 630 52 504 52 307 L52 307 Z M468 248 C448 237 424 232 401 232 C348 232 321 250 321 311 C321 372 348 391 399 391 C420 391 440 388 462 379 L484 458 C463 470 421 475 391 475 C285 475 214 416 214 309 C214 199 287 147 386 147 C427 147 462 156 484 168 L468 248 Z M139 307 C139 459 214 559 366 559 C518 559 595 459 595 307 C595 155 518 56 366 56 C214 56 139 155 139 307 L139 307 Z " />
<glyph glyph-name="ordfeminine" unicode="&#xaa;" horiz-adv-x="528" d="M291 644 L291 631 L208 631 C105 631 55 604 55 528 C55 466 89 425 177 425 C214 425 262 446 291 495 L291 436 L457 436 L457 669 C457 765 412 800 280 800 C214 800 164 796 92 783 L90 649 C145 659 195 665 255 665 C291 665 291 656 291 644 L291 644 Z M62 290 L464 290 L464 389 L62 389 L62 290 Z M240 535 C225 535 215 543 215 556 C215 572 225 580 259 580 L291 580 L291 561 C277 542 260 535 240 535 L240 535 Z " />
<glyph glyph-name="guillemotleft" unicode="&#xab;" horiz-adv-x="634" d="M335 504 L164 504 L34 274 L160 40 L334 40 L234 274 L335 504 Z M593 504 L422 504 L292 274 L418 40 L592 40 L492 274 L593 504 Z " />
<glyph glyph-name="logicalnot" unicode="&#xac;" horiz-adv-x="606" d="M62 375 L62 245 L398 245 L398 68 L536 68 L536 375 L62 375 Z " />
<glyph glyph-name="registered" unicode="&#xae;" horiz-adv-x="712" d="M53 505 C53 315 173 195 355 195 C538 195 659 315 659 505 C659 694 538 815 355 815 C173 815 53 694 53 505 L53 505 Z M137 505 C137 651 209 747 355 747 C501 747 575 651 575 505 C575 359 501 263 355 263 C209 263 137 359 137 505 L137 505 Z M233 358 L317 358 L317 451 L361 451 L404 359 L495 359 L435 462 C480 483 497 527 497 559 C497 614 456 663 386 663 L233 663 L233 358 Z M363 600 C394 600 410 576 410 556 C410 532 394 509 363 509 L317 509 L317 600 L363 600 Z " />
<glyph glyph-name="macron" unicode="&#xaf;" horiz-adv-x="439" d="M50 648 L389 648 L389 777 L50 777 L50 648 Z " />
<glyph glyph-name="degree" unicode="&#xb0;" horiz-adv-x="418" d="M36 643 C36 548 114 470 209 470 C304 470 382 548 382 643 C382 738 304 816 209 816 C114 816 36 738 36 643 L36 643 Z M146 643 C146 683 169 716 209 716 C249 716 272 683 272 643 C272 603 249 570 209 570 C169 570 146 603 146 643 L146 643 Z " />
<glyph glyph-name="plusminus" unicode="&#xb1;" horiz-adv-x="517" d="M326 587 L196 587 L196 455 L59 455 L59 325 L196 325 L196 188 L326 188 L326 325 L458 325 L458 455 L326 455 L326 587 Z M458 0 L458 130 L59 130 L59 0 L458 0 Z " />
<glyph glyph-name="twosuperior" unicode="&#xb2;" horiz-adv-x="491" d="M458 500 L458 652 L238 652 L238 655 C331 705 458 757 458 881 C458 989 391 1042 230 1042 C156 1042 83 1023 33 998 L43 856 C100 878 148 894 190 894 C262 894 277 871 277 844 C277 772 72 674 33 652 L33 500 L458 500 Z " />
<glyph glyph-name="threesuperior" unicode="&#xb3;" horiz-adv-x="479" d="M450 905 C450 999 338 1039 226 1039 C147 1039 64 1016 23 995 L60 857 C92 871 154 881 197 880 C219 880 257 871 257 856 C257 823 202 812 108 807 L126 709 C208 714 263 703 263 676 C263 654 232 642 199 642 C151 642 86 655 54 671 L18 526 C59 506 132 490 192 490 C322 490 447 527 447 654 C447 709 403 752 361 771 C418 803 450 846 450 905 L450 905 Z " />
<glyph glyph-name="acute" unicode="&#xb4;" horiz-adv-x="403" d="M230 608 L353 800 L140 800 L50 608 L230 608 Z " />
<glyph glyph-name="mu" unicode="&#xb5;" horiz-adv-x="701" d="M648 556 L449 556 L449 194 C410 171 373 160 332 160 C295 160 271 170 269 208 L269 556 L72 556 L72 -200 L269 -200 L269 -16 C343 -10 399 33 449 90 L449 0 L648 0 L648 556 Z " />
<glyph glyph-name="paragraph" unicode="&#xb6;" horiz-adv-x="743" d="M382 800 L329 800 C117 800 33 665 33 518 C33 332 175 240 327 240 L382 240 L382 800 Z M448 -201 L648 -201 L648 800 L448 800 L448 -201 Z " />
<glyph glyph-name="periodcentered" unicode="&#xb7;" horiz-adv-x="333" d="M62 310 L271 310 L271 509 L62 509 L62 310 Z " />
<glyph glyph-name="cedilla" unicode="&#xb8;" horiz-adv-x="280" d="M230 -92 C230 -9 130 26 63 37 L51 0 C88 -8 117 -27 117 -51 C117 -74 98 -86 75 -86 L50 -86 L50 -200 L94 -200 C183 -200 230 -156 230 -92 L230 -92 Z " />
<glyph glyph-name="onesuperior" unicode="&#xb9;" horiz-adv-x="427" d="M414 500 L414 658 L315 658 L315 1048 L35 988 L35 850 L143 860 L143 658 L35 658 L35 500 L414 500 Z " />
<glyph glyph-name="ordmasculine" unicode="&#xba;" horiz-adv-x="534" d="M267 425 C432 425 476 502 476 614 C476 726 432 800 267 800 C106 800 59 727 59 614 C59 501 108 425 267 425 L267 425 Z M66 389 L66 290 L468 290 L468 389 L66 389 Z M219 613 C219 665 230 681 266 681 C308 681 315 662 315 612 C315 569 305 548 268 548 C234 548 219 566 219 613 L219 613 Z " />
<glyph glyph-name="guillemotright" unicode="&#xbb;" horiz-adv-x="634" d="M142 274 L42 40 L216 40 L342 274 L212 504 L41 504 L142 274 Z M400 274 L300 40 L474 40 L600 274 L470 504 L299 504 L400 274 Z " />
<glyph glyph-name="onequarter" unicode="&#xbc;" horiz-adv-x="1156" d="M1120 64 L1120 201 L1072 201 L1072 314 L905 314 L905 201 L803 201 L1003 528 L816 528 L633 188 L671 64 L905 64 L905 0 L1072 0 L1072 64 L1120 64 Z M437 272 L437 430 L338 430 L338 820 L58 760 L58 622 L166 632 L166 430 L58 430 L58 272 L437 272 Z M325 0 L465 0 L833 800 L693 800 L325 0 Z " />
<glyph glyph-name="onehalf" unicode="&#xbd;" horiz-adv-x="1202" d="M1161 0 L1161 152 L941 152 L941 155 C1034 205 1161 257 1161 381 C1161 489 1094 542 933 542 C859 542 786 523 736 498 L746 356 C803 378 851 394 893 394 C965 394 980 371 980 344 C980 272 775 174 736 152 L736 0 L1161 0 Z M429 272 L429 430 L330 430 L330 820 L50 760 L50 622 L158 632 L158 430 L50 430 L50 272 L429 272 Z M335 0 L475 0 L843 800 L703 800 L335 0 Z " />
<glyph glyph-name="threequarters" unicode="&#xbe;" horiz-adv-x="1155" d="M1119 64 L1119 201 L1071 201 L1071 314 L904 314 L904 201 L802 201 L1002 528 L815 528 L632 188 L670 64 L904 64 L904 0 L1071 0 L1071 64 L1119 64 Z M475 677 C475 771 363 811 251 811 C172 811 89 788 48 767 L85 629 C117 643 179 653 222 652 C244 652 282 643 282 628 C282 595 227 584 133 579 L151 481 C233 486 288 475 288 448 C288 426 257 414 224 414 C176 414 111 427 79 443 L43 298 C84 278 157 262 217 262 C347 262 472 299 472 426 C472 481 428 524 386 543 C443 575 475 618 475 677 L475 677 Z M325 0 L465 0 L833 800 L693 800 L325 0 Z " />
<glyph glyph-name="questiondown" unicode="&#xbf;" horiz-adv-x="644" d="M497 603 L288 603 L288 432 L497 432 L497 603 Z M488 361 L288 361 L288 266 C148 230 33 191 33 30 C33 -141 163 -213 332 -213 C439 -213 536 -183 614 -142 L570 31 C500 -5 433 -25 352 -25 C277 -25 237 6 237 54 C237 117 305 162 488 191 L488 361 Z " />
<glyph glyph-name="Agrave" unicode="&#xc0;" horiz-adv-x="822" d="M603 0 L820 0 L519 800 L313 800 L-8 0 L205 0 L260 153 L553 153 L603 0 Z M512 848 L428 995 L229 995 L332 848 L512 848 Z M415 583 L501 316 L318 316 L415 583 Z " />
<glyph glyph-name="Aacute" unicode="&#xc1;" horiz-adv-x="822" d="M603 0 L820 0 L519 800 L313 800 L-8 0 L205 0 L260 153 L553 153 L603 0 Z M506 848 L599 995 L400 995 L326 848 L506 848 Z M415 583 L501 316 L318 316 L415 583 Z " />
<glyph glyph-name="Acircumflex" unicode="&#xc2;" horiz-adv-x="822" d="M603 0 L820 0 L519 800 L313 800 L-8 0 L205 0 L260 153 L553 153 L603 0 Z M283 985 L170 848 L369 848 L411 941 L454 848 L653 848 L540 985 L283 985 Z M415 583 L501 316 L318 316 L415 583 Z " />
<glyph glyph-name="Atilde" unicode="&#xc3;" horiz-adv-x="822" d="M603 0 L820 0 L519 800 L313 800 L-8 0 L205 0 L260 153 L553 153 L603 0 Z M352 882 C392 882 433 852 477 852 C505 852 538 856 562 872 L562 981 C536 965 504 961 476 961 C433 961 395 991 349 991 C315 991 285 983 265 971 L265 862 C291 875 322 882 352 882 L352 882 Z M415 583 L501 316 L318 316 L415 583 Z " />
<glyph glyph-name="Adieresis" unicode="&#xc4;" horiz-adv-x="822" d="M603 0 L820 0 L519 800 L313 800 L-8 0 L205 0 L260 153 L553 153 L603 0 Z M415 583 L501 316 L318 316 L415 583 Z M446 858 L585 858 L585 987 L446 987 L446 858 Z M246 858 L385 858 L385 987 L246 987 L246 858 Z " />
<glyph glyph-name="Aring" unicode="&#xc5;" horiz-adv-x="822" d="M603 0 L820 0 L519 800 L313 800 L-8 0 L205 0 L260 153 L553 153 L603 0 Z M281 944 C281 872 340 828 412 828 C484 828 543 872 543 944 C543 1016 484 1060 412 1060 C340 1060 281 1016 281 944 L281 944 Z M415 583 L501 316 L318 316 L415 583 Z M361 944 C361 974 381 997 412 997 C442 997 463 974 463 944 C463 913 442 891 412 891 C381 891 361 913 361 944 L361 944 Z " />
<glyph glyph-name="AE" unicode="&#xc6;" horiz-adv-x="1175" d="M535 0 L1134 0 L1134 175 L735 175 L735 318 L1064 318 L1064 482 L735 482 L735 625 L1124 625 L1124 800 L428 800 L-13 0 L200 0 L290 175 L535 175 L535 0 Z M373 335 L535 649 L535 335 L373 335 Z " />
<glyph glyph-name="Ccedilla" unicode="&#xc7;" horiz-adv-x="729" d="M527 -92 C527 -60 512 -35 490 -16 C566 -15 616 -11 675 11 L675 196 C614 176 586 167 496 167 C355 167 256 252 256 401 C256 549 343 636 491 636 C549 636 599 633 669 610 L688 792 C626 813 552 815 485 815 C225 815 50 628 50 401 C50 211 173 41 363 -4 C393 -13 414 -30 414 -51 C414 -74 395 -86 372 -86 L347 -86 L347 -200 L391 -200 C480 -200 527 -156 527 -92 L527 -92 Z " />
<glyph glyph-name="Egrave" unicode="&#xc8;" horiz-adv-x="692" d="M649 0 L649 180 L280 180 L280 315 L579 315 L579 485 L280 485 L280 620 L649 620 L649 800 L80 800 L80 0 L649 0 Z M497 848 L413 995 L214 995 L317 848 L497 848 Z " />
<glyph glyph-name="Eacute" unicode="&#xc9;" horiz-adv-x="692" d="M649 0 L649 180 L280 180 L280 315 L579 315 L579 485 L280 485 L280 620 L649 620 L649 800 L80 800 L80 0 L649 0 Z M462 848 L555 995 L356 995 L282 848 L462 848 Z " />
<glyph glyph-name="Ecircumflex" unicode="&#xca;" horiz-adv-x="692" d="M80 0 L649 0 L649 180 L280 180 L280 315 L579 315 L579 485 L280 485 L280 620 L649 620 L649 800 L80 800 L80 0 Z M242 985 L129 848 L328 848 L370 941 L413 848 L612 848 L499 985 L242 985 Z " />
<glyph glyph-name="Edieresis" unicode="&#xcb;" horiz-adv-x="692" d="M80 0 L649 0 L649 180 L280 180 L280 315 L579 315 L579 485 L280 485 L280 620 L649 620 L649 800 L80 800 L80 0 Z M412 858 L551 858 L551 987 L412 987 L412 858 Z M212 858 L351 858 L351 987 L212 987 L212 858 Z " />
<glyph glyph-name="Igrave" unicode="&#xcc;" horiz-adv-x="364" d="M274 848 L190 995 L-9 995 L94 848 L274 848 Z M80 0 L280 0 L280 800 L80 800 L80 0 Z " />
<glyph glyph-name="Iacute" unicode="&#xcd;" horiz-adv-x="364" d="M271 848 L364 995 L165 995 L91 848 L271 848 Z M80 0 L280 0 L280 800 L80 800 L80 0 Z " />
<glyph glyph-name="Icircumflex" unicode="&#xce;" horiz-adv-x="364" d="M54 985 L-59 848 L140 848 L182 941 L225 848 L424 848 L311 985 L54 985 Z M80 0 L280 0 L280 800 L80 800 L80 0 Z " />
<glyph glyph-name="Idieresis" unicode="&#xcf;" horiz-adv-x="364" d="M13 858 L152 858 L152 987 L13 987 L13 858 Z M213 858 L352 858 L352 987 L213 987 L213 858 Z M80 0 L280 0 L280 800 L80 800 L80 0 Z " />
<glyph glyph-name="Eth" unicode="&#xd0;" horiz-adv-x="841" d="M1 331 L96 331 L96 0 L399 0 C620 0 807 179 807 400 C807 635 620 800 399 800 L96 800 L96 460 L1 460 L1 331 Z M427 331 L427 460 L296 460 L296 620 L399 620 C537 620 610 510 610 400 C610 294 542 180 399 180 L296 180 L296 331 L427 331 Z " />
<glyph glyph-name="Ntilde" unicode="&#xd1;" horiz-adv-x="964" d="M420 882 C460 882 501 852 545 852 C573 852 606 856 630 872 L630 981 C604 965 572 961 544 961 C501 961 463 991 417 991 C383 991 353 983 333 971 L333 862 C359 875 390 882 420 882 L420 882 Z M630 0 L830 0 L830 800 L630 800 L630 305 L206 800 L30 800 L30 0 L230 0 L230 463 L630 0 Z " />
<glyph glyph-name="Ograve" unicode="&#xd2;" horiz-adv-x="890" d="M556 848 L472 995 L273 995 L376 848 L556 848 Z M35 403 C35 125 224 -16 446 -16 C666 -16 855 123 855 404 C855 674 682 816 447 816 C205 816 35 665 35 403 L35 403 Z M241 402 C241 570 329 648 445 648 C561 648 649 568 649 408 C649 232 561 152 444 152 C329 152 241 233 241 402 L241 402 Z " />
<glyph glyph-name="Oacute" unicode="&#xd3;" horiz-adv-x="890" d="M513 848 L606 995 L407 995 L333 848 L513 848 Z M35 403 C35 125 224 -16 446 -16 C666 -16 855 123 855 404 C855 674 682 816 447 816 C205 816 35 665 35 403 L35 403 Z M241 402 C241 570 329 648 445 648 C561 648 649 568 649 408 C649 232 561 152 444 152 C329 152 241 233 241 402 L241 402 Z " />
<glyph glyph-name="Ocircumflex" unicode="&#xd4;" horiz-adv-x="890" d="M316 985 L203 848 L402 848 L444 941 L487 848 L686 848 L573 985 L316 985 Z M35 403 C35 125 224 -16 446 -16 C666 -16 855 123 855 404 C855 674 682 816 447 816 C205 816 35 665 35 403 L35 403 Z M241 402 C241 570 329 648 445 648 C561 648 649 568 649 408 C649 232 561 152 444 152 C329 152 241 233 241 402 L241 402 Z " />
<glyph glyph-name="Otilde" unicode="&#xd5;" horiz-adv-x="890" d="M383 882 C423 882 464 852 508 852 C536 852 569 856 593 872 L593 981 C567 965 535 961 507 961 C464 961 426 991 380 991 C346 991 316 983 296 971 L296 862 C322 875 353 882 383 882 L383 882 Z M35 403 C35 125 224 -16 446 -16 C666 -16 855 123 855 404 C855 674 682 816 447 816 C205 816 35 665 35 403 L35 403 Z M241 402 C241 570 329 648 445 648 C561 648 649 568 649 408 C649 232 561 152 444 152 C329 152 241 233 241 402 L241 402 Z " />
<glyph glyph-name="Odieresis" unicode="&#xd6;" horiz-adv-x="890" d="M275 858 L414 858 L414 987 L275 987 L275 858 Z M475 858 L614 858 L614 987 L475 987 L475 858 Z M35 403 C35 125 224 -16 446 -16 C666 -16 855 123 855 404 C855 674 682 816 447 816 C205 816 35 665 35 403 L35 403 Z M241 402 C241 570 329 648 445 648 C561 648 649 568 649 408 C649 232 561 152 444 152 C329 152 241 233 241 402 L241 402 Z " />
<glyph glyph-name="multiply" unicode="&#xd7;" horiz-adv-x="606" d="M135 559 L43 467 L211 299 L43 131 L135 39 L303 207 L471 39 L563 131 L395 299 L563 467 L471 559 L303 391 L135 559 Z " />
<glyph glyph-name="Oslash" unicode="&#xd8;" horiz-adv-x="890" d="M35 403 C35 277 73 180 136 110 L35 -16 L186 -16 L229 37 C292 1 367 -16 446 -16 C666 -16 855 123 855 404 C855 528 818 625 756 693 L855 816 L704 816 L663 765 C601 799 528 816 447 816 C205 816 35 665 35 403 L35 403 Z M241 402 C241 570 329 648 445 648 C483 648 518 639 548 622 L264 270 C249 305 241 349 241 402 L241 402 Z M649 408 C649 232 561 152 444 152 C406 152 372 160 342 178 L626 531 C641 497 649 456 649 408 L649 408 Z " />
<glyph glyph-name="Ugrave" unicode="&#xd9;" horiz-adv-x="904" d="M558 848 L474 995 L275 995 L378 848 L558 848 Z M632 800 L632 384 C632 268 568 172 452 172 C336 172 272 241 272 384 L272 800 L72 800 L72 384 C72 115 231 -16 452 -16 C673 -16 832 163 832 384 L832 800 L632 800 Z " />
<glyph glyph-name="Uacute" unicode="&#xda;" horiz-adv-x="904" d="M519 848 L612 995 L413 995 L339 848 L519 848 Z M632 800 L632 384 C632 268 568 172 452 172 C336 172 272 241 272 384 L272 800 L72 800 L72 384 C72 115 231 -16 452 -16 C673 -16 832 163 832 384 L832 800 L632 800 Z " />
<glyph glyph-name="Ucircumflex" unicode="&#xdb;" horiz-adv-x="904" d="M324 985 L211 848 L410 848 L452 941 L495 848 L694 848 L581 985 L324 985 Z M632 800 L632 384 C632 268 568 172 452 172 C336 172 272 241 272 384 L272 800 L72 800 L72 384 C72 115 231 -16 452 -16 C673 -16 832 163 832 384 L832 800 L632 800 Z " />
<glyph glyph-name="Udieresis" unicode="&#xdc;" horiz-adv-x="904" d="M283 858 L422 858 L422 987 L283 987 L283 858 Z M483 858 L622 858 L622 987 L483 987 L483 858 Z M632 800 L632 384 C632 268 568 172 452 172 C336 172 272 241 272 384 L272 800 L72 800 L72 384 C72 115 231 -16 452 -16 C673 -16 832 163 832 384 L832 800 L632 800 Z " />
<glyph glyph-name="Yacute" unicode="&#xdd;" horiz-adv-x="809" d="M197 800 L-30 800 L274 266 L274 0 L474 0 L474 267 L798 800 L590 800 L379 444 L197 800 Z M486 848 L579 995 L380 995 L306 848 L486 848 Z " />
<glyph glyph-name="Thorn" unicode="&#xde;" horiz-adv-x="751" d="M82 0 L282 0 L282 150 L461 150 C596 150 729 237 729 412 C729 558 640 665 461 665 L282 665 L282 800 L82 800 L82 0 Z M412 495 C490 495 522 454 522 412 C522 361 490 320 412 320 L282 320 L282 495 L412 495 Z " />
<glyph glyph-name="germandbls" unicode="&#xdf;" horiz-adv-x="824" d="M32 395 L106 395 L106 0 L304 0 L304 548 C304 641 343 691 432 691 C484 691 520 668 520 620 C520 561 403 514 403 395 C403 224 621 229 621 174 C621 148 590 137 551 137 C500 137 460 146 389 163 L389 10 C435 -4 493 -17 556 -17 C733 -17 796 71 796 170 C796 359 575 344 575 425 C575 502 726 532 726 661 C726 739 678 849 433 849 C200 849 106 728 106 586 L106 556 L32 556 L32 395 Z " />
<glyph glyph-name="agrave" unicode="&#xe0;" horiz-adv-x="648" d="M639 0 L639 556 C493 572 390 573 367 573 C112 573 34 433 34 272 C34 105 83 -17 249 -17 C328 -17 385 12 442 88 L442 0 L639 0 Z M315 138 C252 138 225 190 225 270 C225 341 250 423 352 423 C388 423 415 421 441 416 L441 201 C397 157 361 138 315 138 L315 138 Z M486 606 L396 799 L183 799 L306 606 L486 606 Z " />
<glyph glyph-name="aacute" unicode="&#xe1;" horiz-adv-x="648" d="M639 0 L639 556 C493 572 390 573 367 573 C112 573 34 433 34 272 C34 105 83 -17 249 -17 C328 -17 385 12 442 88 L442 0 L639 0 Z M315 138 C252 138 225 190 225 270 C225 341 250 423 352 423 C388 423 415 421 441 416 L441 201 C397 157 361 138 315 138 L315 138 Z M457 608 L580 800 L367 800 L277 608 L457 608 Z " />
<glyph glyph-name="acircumflex" unicode="&#xe2;" horiz-adv-x="648" d="M639 0 L639 556 C493 572 390 573 367 573 C112 573 34 433 34 272 C34 105 83 -17 249 -17 C328 -17 385 12 442 88 L442 0 L639 0 Z M265 800 L152 621 L331 621 L373 737 L416 621 L595 621 L482 800 L265 800 Z M315 138 C252 138 225 190 225 270 C225 341 250 423 352 423 C388 423 415 421 441 416 L441 201 C397 157 361 138 315 138 L315 138 Z " />
<glyph glyph-name="atilde" unicode="&#xe3;" horiz-adv-x="648" d="M639 0 L639 556 C493 572 390 573 367 573 C112 573 34 433 34 272 C34 105 83 -17 249 -17 C328 -17 385 12 442 88 L442 0 L639 0 Z M315 138 C252 138 225 190 225 270 C225 341 250 423 352 423 C388 423 415 421 441 416 L441 201 C397 157 361 138 315 138 L315 138 Z M314 662 C354 662 400 631 452 631 C480 631 521 648 545 664 L534 781 C508 765 466 751 438 751 C395 751 349 783 303 783 C260 783 214 761 194 749 L207 632 C234 648 284 662 314 662 L314 662 Z " />
<glyph glyph-name="adieresis" unicode="&#xe4;" horiz-adv-x="648" d="M639 0 L639 556 C493 572 390 573 367 573 C112 573 34 433 34 272 C34 105 83 -17 249 -17 C328 -17 385 12 442 88 L442 0 L639 0 Z M315 138 C252 138 225 190 225 270 C225 341 250 423 352 423 C388 423 415 421 441 416 L441 201 C397 157 361 138 315 138 L315 138 Z M176 638 L335 638 L335 787 L176 787 L176 638 Z M426 638 L585 638 L585 787 L426 787 L426 638 Z " />
<glyph glyph-name="aring" unicode="&#xe5;" horiz-adv-x="648" d="M639 0 L639 556 C493 572 390 573 367 573 C112 573 34 433 34 272 C34 105 83 -17 249 -17 C328 -17 385 12 442 88 L442 0 L639 0 Z M315 138 C252 138 225 190 225 270 C225 341 250 423 352 423 C388 423 415 421 441 416 L441 201 C397 157 361 138 315 138 L315 138 Z M247 730 C247 658 296 609 378 609 C460 609 509 658 509 730 C509 802 460 851 378 851 C296 851 247 802 247 730 L247 730 Z M320 730 C320 760 337 788 378 788 C418 788 436 760 436 730 C436 699 418 672 378 672 C337 672 320 699 320 730 L320 730 Z " />
<glyph glyph-name="ae" unicode="&#xe6;" horiz-adv-x="986" d="M392 343 L392 317 L275 317 C122 317 23 267 23 146 C23 43 83 -17 218 -17 C312 -17 390 15 431 96 C475 24 559 -17 696 -17 C818 -17 871 -2 923 10 L928 163 C856 153 783 149 725 149 C660 149 606 170 589 229 L942 229 C950 271 954 309 954 342 C954 530 840 573 691 573 C620 573 562 558 517 532 C482 561 424 573 336 573 C247 573 175 566 77 546 L74 379 C148 393 223 404 308 404 C376 404 392 387 392 343 L392 343 Z M686 424 C743 424 779 389 766 326 L588 326 C601 395 638 424 686 424 L686 424 Z M279 122 C235 122 213 137 213 166 C213 196 240 217 289 217 L394 217 L394 216 C374 153 333 122 279 122 L279 122 Z " />
<glyph glyph-name="ccedilla" unicode="&#xe7;" horiz-adv-x="560" d="M408 -92 C408 -59 392 -34 369 -15 C424 -10 482 0 516 14 L516 168 C469 155 422 151 364 151 C293 151 224 179 224 283 C224 365 266 406 374 406 C420 406 458 397 514 384 L523 553 C465 566 401 573 335 573 C103 573 32 423 32 270 C32 93 127 4 267 -14 C284 -23 295 -36 295 -51 C295 -74 276 -86 253 -86 L228 -86 L228 -200 L272 -200 C361 -200 408 -156 408 -92 L408 -92 Z " />
<glyph glyph-name="egrave" unicode="&#xe8;" horiz-adv-x="624" d="M583 229 C590 272 594 309 594 343 C594 528 477 573 341 573 C125 573 32 458 32 263 C32 87 109 -17 355 -17 C465 -17 540 4 552 7 L568 164 C507 155 435 147 377 147 C300 147 248 166 230 229 L583 229 Z M430 607 L340 800 L127 800 L250 607 L430 607 Z M329 424 C375 424 409 397 409 350 C409 343 408 334 406 326 L227 326 C239 392 279 424 329 424 L329 424 Z " />
<glyph glyph-name="eacute" unicode="&#xe9;" horiz-adv-x="624" d="M583 229 C590 272 594 309 594 343 C594 528 477 573 341 573 C125 573 32 458 32 263 C32 87 109 -17 355 -17 C465 -17 540 4 552 7 L568 164 C507 155 435 147 377 147 C300 147 248 166 230 229 L583 229 Z M396 608 L519 800 L306 800 L216 608 L396 608 Z M329 424 C375 424 409 397 409 350 C409 343 408 334 406 326 L227 326 C239 392 279 424 329 424 L329 424 Z " />
<glyph glyph-name="ecircumflex" unicode="&#xea;" horiz-adv-x="624" d="M583 229 C590 272 594 309 594 343 C594 528 477 573 341 573 C125 573 32 458 32 263 C32 87 109 -17 355 -17 C465 -17 540 4 552 7 L568 164 C507 155 435 147 377 147 C300 147 248 166 230 229 L583 229 Z M210 800 L97 621 L276 621 L318 737 L361 621 L540 621 L427 800 L210 800 Z M329 424 C375 424 409 397 409 350 C409 343 408 334 406 326 L227 326 C239 392 279 424 329 424 L329 424 Z " />
<glyph glyph-name="edieresis" unicode="&#xeb;" horiz-adv-x="624" d="M583 229 C590 272 594 309 594 343 C594 528 477 573 341 573 C125 573 32 458 32 263 C32 87 109 -17 355 -17 C465 -17 540 4 552 7 L568 164 C507 155 435 147 377 147 C300 147 248 166 230 229 L583 229 Z M375 638 L534 638 L534 787 L375 787 L375 638 Z M125 638 L284 638 L284 787 L125 787 L125 638 Z M329 424 C375 424 409 397 409 350 C409 343 408 334 406 326 L227 326 C239 392 279 424 329 424 L329 424 Z " />
<glyph glyph-name="igrave" unicode="&#xec;" horiz-adv-x="359" d="M98 0 L296 0 L296 556 L98 556 L98 0 Z M279 607 L189 800 L-24 800 L99 607 L279 607 Z " />
<glyph glyph-name="iacute" unicode="&#xed;" horiz-adv-x="359" d="M261 608 L384 800 L171 800 L81 608 L261 608 Z M98 0 L296 0 L296 556 L98 556 L98 0 Z " />
<glyph glyph-name="icircumflex" unicode="&#xee;" horiz-adv-x="359" d="M65 800 L-48 621 L131 621 L173 737 L216 621 L395 621 L282 800 L65 800 Z M98 0 L296 0 L296 556 L98 556 L98 0 Z " />
<glyph glyph-name="idieresis" unicode="&#xef;" horiz-adv-x="359" d="M-32 638 L127 638 L127 787 L-32 787 L-32 638 Z M218 638 L377 638 L377 787 L218 787 L218 638 Z M98 0 L296 0 L296 556 L98 556 L98 0 Z " />
<glyph glyph-name="eth" unicode="&#xf0;" horiz-adv-x="683" d="M255 593 L309 658 C342 634 372 605 397 570 C378 572 357 573 335 573 C107 573 33 459 33 280 C33 103 107 -17 335 -17 C539 -17 637 104 637 280 C637 504 579 667 408 775 L451 827 L377 888 L320 821 L278 839 L187 727 L225 708 L180 655 L255 593 Z M225 279 C225 382 255 422 334 422 C414 422 445 380 445 278 C445 184 412 138 336 138 C256 138 225 186 225 279 L225 279 Z " />
<glyph glyph-name="ntilde" unicode="&#xf1;" horiz-adv-x="695" d="M62 0 L259 0 L259 362 C297 385 335 396 377 396 C415 396 439 386 439 342 L439 0 L637 0 L637 385 C637 525 578 573 456 573 C373 573 312 526 259 465 L259 573 L62 556 L62 0 Z M277 662 C317 662 363 631 415 631 C443 631 484 648 508 664 L497 781 C471 765 429 751 401 751 C358 751 312 783 266 783 C223 783 177 761 157 749 L170 632 C197 648 247 662 277 662 L277 662 Z " />
<glyph glyph-name="ograve" unicode="&#xf2;" horiz-adv-x="668" d="M32 278 C32 103 118 -17 335 -17 C554 -17 636 105 636 278 C636 450 553 573 334 573 C117 573 32 452 32 278 L32 278 Z M224 283 C224 380 254 422 333 422 C412 422 444 379 444 281 C444 184 413 138 334 138 C255 138 224 185 224 283 L224 283 Z M419 607 L329 800 L116 800 L239 607 L419 607 Z " />
<glyph glyph-name="oacute" unicode="&#xf3;" horiz-adv-x="668" d="M397 608 L520 800 L307 800 L217 608 L397 608 Z M32 278 C32 103 118 -17 335 -17 C554 -17 636 105 636 278 C636 450 553 573 334 573 C117 573 32 452 32 278 L32 278 Z M224 283 C224 380 254 422 333 422 C412 422 444 379 444 281 C444 184 413 138 334 138 C255 138 224 185 224 283 L224 283 Z " />
<glyph glyph-name="ocircumflex" unicode="&#xf4;" horiz-adv-x="668" d="M225 795 L112 616 L291 616 L333 732 L376 616 L555 616 L442 795 L225 795 Z M32 278 C32 103 118 -17 335 -17 C554 -17 636 105 636 278 C636 450 553 573 334 573 C117 573 32 452 32 278 L32 278 Z M224 283 C224 380 254 422 333 422 C412 422 444 379 444 281 C444 184 413 138 334 138 C255 138 224 185 224 283 L224 283 Z " />
<glyph glyph-name="otilde" unicode="&#xf5;" horiz-adv-x="668" d="M32 278 C32 103 118 -17 335 -17 C554 -17 636 105 636 278 C636 450 553 573 334 573 C117 573 32 452 32 278 L32 278 Z M224 283 C224 380 254 422 333 422 C412 422 444 379 444 281 C444 184 413 138 334 138 C255 138 224 185 224 283 L224 283 Z M276 662 C316 662 362 631 414 631 C442 631 483 648 507 664 L496 781 C470 765 428 751 400 751 C357 751 311 783 265 783 C222 783 176 761 156 749 L169 632 C196 648 246 662 276 662 L276 662 Z " />
<glyph glyph-name="odieresis" unicode="&#xf6;" horiz-adv-x="668" d="M125 638 L284 638 L284 787 L125 787 L125 638 Z M375 638 L534 638 L534 787 L375 787 L375 638 Z M32 278 C32 103 118 -17 335 -17 C554 -17 636 105 636 278 C636 450 553 573 334 573 C117 573 32 452 32 278 L32 278 Z M224 283 C224 380 254 422 333 422 C412 422 444 379 444 281 C444 184 413 138 334 138 C255 138 224 185 224 283 L224 283 Z " />
<glyph glyph-name="divide" unicode="&#xf7;" horiz-adv-x="496" d="M447 235 L447 385 L48 385 L48 235 L447 235 Z M157 40 L346 40 L346 179 L157 179 L157 40 Z M157 442 L346 442 L346 581 L157 581 L157 442 Z " />
<glyph glyph-name="oslash" unicode="&#xf8;" horiz-adv-x="671" d="M34 278 C34 197 52 129 93 78 L7 -16 L126 -16 L160 21 C205 -3 264 -17 337 -17 C556 -17 638 105 638 278 C638 357 620 426 579 478 L666 573 L545 573 L510 535 C466 559 408 573 336 573 C119 573 34 452 34 278 L34 278 Z M226 283 C226 380 256 422 335 422 C359 422 379 417 395 409 L230 228 C227 244 226 262 226 283 L226 283 Z M446 281 C446 184 415 138 336 138 C313 138 294 142 278 150 L442 329 C444 315 446 299 446 281 L446 281 Z " />
<glyph glyph-name="ugrave" unicode="&#xf9;" horiz-adv-x="697" d="M634 556 L435 556 L435 194 C396 171 359 160 318 160 C279 160 255 171 255 214 L255 556 L58 556 L58 172 C58 31 117 -17 238 -17 C321 -17 381 29 435 90 L435 0 L634 0 L634 556 Z M422 607 L332 800 L119 800 L242 607 L422 607 Z " />
<glyph glyph-name="uacute" unicode="&#xfa;" horiz-adv-x="697" d="M634 556 L435 556 L435 194 C396 171 359 160 318 160 C279 160 255 171 255 214 L255 556 L58 556 L58 172 C58 31 117 -17 238 -17 C321 -17 381 29 435 90 L435 0 L634 0 L634 556 Z M418 608 L541 800 L328 800 L238 608 L418 608 Z " />
<glyph glyph-name="ucircumflex" unicode="&#xfb;" horiz-adv-x="697" d="M634 556 L435 556 L435 194 C396 171 359 160 318 160 C279 160 255 171 255 214 L255 556 L58 556 L58 172 C58 31 117 -17 238 -17 C321 -17 381 29 435 90 L435 0 L634 0 L634 556 Z M226 800 L113 621 L292 621 L334 737 L377 621 L556 621 L443 800 L226 800 Z " />
<glyph glyph-name="udieresis" unicode="&#xfc;" horiz-adv-x="697" d="M634 556 L435 556 L435 194 C396 171 359 160 318 160 C279 160 255 171 255 214 L255 556 L58 556 L58 172 C58 31 117 -17 238 -17 C321 -17 381 29 435 90 L435 0 L634 0 L634 556 Z M391 638 L550 638 L550 787 L391 787 L391 638 Z M141 638 L300 638 L300 787 L141 787 L141 638 Z " />
<glyph glyph-name="yacute" unicode="&#xfd;" horiz-adv-x="697" d="M435 87 C435 -22 399 -51 295 -51 C231 -51 128 -37 83 -31 L102 -198 C171 -208 261 -217 307 -217 C520 -217 634 -109 634 46 L634 556 L435 556 L435 240 C396 217 359 207 318 207 C279 207 255 217 255 261 L255 556 L58 556 L58 218 C58 78 117 30 239 30 C321 30 381 76 435 136 L435 87 Z M410 608 L533 800 L320 800 L230 608 L410 608 Z " />
<glyph glyph-name="thorn" unicode="&#xfe;" horiz-adv-x="691" d="M63 -200 L260 -200 L260 -15 C281 -16 303 -17 324 -17 C595 -17 658 140 658 309 C658 468 601 573 450 573 C374 573 316 547 260 480 L260 832 L63 832 L63 -200 Z M260 363 C301 397 341 408 379 408 C432 408 466 387 466 287 C466 202 441 136 339 136 C324 136 295 137 260 141 L260 363 Z " />
<glyph glyph-name="ydieresis" unicode="&#xff;" horiz-adv-x="697" d="M435 87 C435 -22 399 -51 295 -51 C231 -51 128 -37 83 -31 L102 -198 C171 -208 261 -217 307 -217 C520 -217 634 -109 634 46 L634 556 L435 556 L435 240 C396 217 359 207 318 207 C279 207 255 217 255 261 L255 556 L58 556 L58 218 C58 78 117 30 239 30 C321 30 381 76 435 136 L435 87 Z M398 639 L557 639 L557 788 L398 788 L398 639 Z M148 639 L307 639 L307 788 L148 788 L148 639 Z " />
<glyph glyph-name="dotlessi" unicode="&#x131;" horiz-adv-x="359" d="M98 0 L296 0 L296 556 L98 556 L98 0 Z " />
<glyph glyph-name="Lslash" unicode="&#x141;" horiz-adv-x="669" d="M92 0 L651 0 L651 190 L292 190 L292 395 L446 461 L446 591 L292 525 L292 800 L92 800 L92 440 L4 403 L4 273 L92 310 L92 0 Z " />
<glyph glyph-name="lslash" unicode="&#x142;" horiz-adv-x="381" d="M97 0 L295 0 L295 409 L377 456 L377 548 L295 502 L295 832 L97 832 L97 392 L15 346 L15 251 L97 297 L97 0 Z " />
<glyph glyph-name="OE" unicode="&#x152;" horiz-adv-x="1290" d="M1249 0 L1249 175 L850 175 L850 318 L1179 318 L1179 482 L850 482 L850 625 L1239 625 L1239 800 L650 800 L650 766 C596 799 527 816 445 816 C205 816 35 666 35 400 C35 127 224 -16 445 -16 C525 -16 594 2 650 39 L650 0 L1249 0 Z M241 400 C241 571 329 648 445 648 C561 648 649 572 649 400 C649 237 561 152 445 152 C329 152 241 234 241 400 L241 400 Z " />
<glyph glyph-name="oe" unicode="&#x153;" horiz-adv-x="1036" d="M32 278 C32 103 117 -17 335 -17 C428 -17 489 5 528 44 C578 4 655 -17 767 -17 C877 -17 952 4 964 7 L980 164 C919 155 847 147 789 147 C712 147 660 166 642 229 L995 229 C1002 272 1006 309 1006 343 C1006 528 889 573 753 573 C656 573 583 550 533 506 C494 549 432 573 334 573 C117 573 32 452 32 278 L32 278 Z M224 283 C224 380 254 422 333 422 C412 422 444 379 444 282 C444 184 413 138 334 138 C255 138 224 185 224 283 L224 283 Z M741 424 C787 424 821 397 821 350 C821 343 820 334 818 326 L639 326 C651 392 691 424 741 424 L741 424 Z " />
<glyph glyph-name="Scaron" unicode="&#x160;" horiz-adv-x="678" d="M472 848 L585 985 L386 985 L343 892 L301 985 L102 985 L215 848 L472 848 Z M448 223 C448 186 426 155 338 155 C237 155 146 178 63 218 L55 35 C138 -4 241 -16 332 -16 C545 -16 647 110 647 253 C647 522 237 449 237 579 C237 621 279 645 341 645 C418 645 518 624 585 584 L623 754 C560 790 449 816 348 816 C174 816 39 725 39 556 C39 273 448 343 448 223 L448 223 Z " />
<glyph glyph-name="scaron" unicode="&#x161;" horiz-adv-x="566" d="M385 621 L498 800 L319 800 L277 684 L234 800 L55 800 L168 621 L385 621 Z M361 173 C361 148 326 137 262 137 C198 137 140 146 42 165 L54 9 C106 -3 180 -17 274 -17 C452 -17 536 67 536 175 C536 317 403 333 305 344 C249 350 205 356 205 384 C205 407 237 415 298 415 C358 415 423 400 504 376 L510 544 C452 561 371 573 284 573 C149 573 35 519 35 388 C35 238 166 218 261 207 C317 201 361 197 361 173 L361 173 Z " />
<glyph glyph-name="Ydieresis" unicode="&#x178;" horiz-adv-x="809" d="M197 800 L-30 800 L274 266 L274 0 L474 0 L474 267 L798 800 L590 800 L379 444 L197 800 Z M441 858 L580 858 L580 987 L441 987 L441 858 Z M241 858 L380 858 L380 987 L241 987 L241 858 Z " />
<glyph glyph-name="Zcaron" unicode="&#x17d;" horiz-adv-x="713" d="M670 0 L670 180 L295 180 L667 680 L667 800 L41 800 L41 620 L394 620 L41 159 L41 0 L670 0 Z M500 848 L613 985 L414 985 L371 892 L329 985 L130 985 L243 848 L500 848 Z " />
<glyph glyph-name="zcaron" unicode="&#x17e;" horiz-adv-x="592" d="M554 0 L554 161 L285 161 L551 457 L535 556 L59 556 L29 395 L291 395 L48 129 L48 0 L554 0 Z M391 621 L504 800 L325 800 L283 684 L240 800 L61 800 L174 621 L391 621 Z " />
<glyph glyph-name="florin" unicode="&#x192;" horiz-adv-x="547" d="M498 239 L498 374 L372 374 L372 400 C372 444 398 460 433 460 C462 460 501 455 522 447 L535 607 C496 618 447 628 396 628 C267 628 182 549 182 412 L182 374 L69 374 L69 239 L182 239 L182 213 C182 169 156 153 121 153 C92 153 53 158 32 166 L19 6 C58 -5 107 -15 158 -15 C287 -15 372 64 372 201 L372 239 L498 239 Z " />
<glyph glyph-name="circumflex" unicode="&#x2c6;" horiz-adv-x="583" d="M183 800 L70 621 L249 621 L291 737 L334 621 L513 621 L400 800 L183 800 Z " />
<glyph glyph-name="caron" unicode="&#x2c7;" horiz-adv-x="583" d="M400 621 L513 800 L334 800 L292 684 L249 800 L70 800 L183 621 L400 621 Z " />
<glyph glyph-name="breve" unicode="&#x2d8;" horiz-adv-x="503" d="M294 785 C294 745 290 722 251 722 C212 722 209 746 209 785 L50 785 C50 698 95 634 251 634 C399 634 453 694 453 785 L294 785 Z " />
<glyph glyph-name="dotaccent" unicode="&#x2d9;" horiz-adv-x="239" d="M33 614 L223 614 L223 786 L33 786 L33 614 Z " />
<glyph glyph-name="ring" unicode="&#x2da;" horiz-adv-x="362" d="M50 710 C50 638 99 589 181 589 C263 589 312 638 312 710 C312 782 263 831 181 831 C99 831 50 782 50 710 L50 710 Z M123 710 C123 740 140 768 181 768 C221 768 239 740 239 710 C239 679 221 652 181 652 C140 652 123 679 123 710 L123 710 Z " />
<glyph glyph-name="ogonek" unicode="&#x2db;" horiz-adv-x="280" d="M50 -99 C50 -163 97 -200 186 -200 L230 -200 L230 -86 L205 -86 C182 -86 163 -74 163 -51 C163 -27 192 -8 229 0 L217 37 C150 26 50 -16 50 -99 L50 -99 Z " />
<glyph glyph-name="tilde" unicode="&#x2dc;" horiz-adv-x="397" d="M137 662 C177 662 223 631 275 631 C303 631 344 648 368 664 L357 781 C331 765 289 751 261 751 C218 751 172 783 126 783 C83 783 37 761 17 749 L30 632 C57 648 107 662 137 662 L137 662 Z " />
<glyph glyph-name="hungarumlaut" unicode="&#x2dd;" horiz-adv-x="611" d="M210 642 L333 799 L154 799 L50 642 L210 642 Z M418 642 L561 799 L382 799 L258 642 L418 642 Z " />
<glyph glyph-name="pi" unicode="&#x3c0;" horiz-adv-x="753" d="M703 395 L703 556 L36 556 L36 395 L97 395 L97 0 L294 0 L294 395 L451 395 L451 144 C451 35 514 -15 626 -15 C649 -15 685 -12 713 -8 L713 147 C704 145 687 144 681 144 C658 144 648 158 648 186 L648 395 L703 395 Z " />
<glyph glyph-name="endash" unicode="&#x2013;" horiz-adv-x="624" d="M562 235 L562 385 L62 385 L62 235 L562 235 Z " />
<glyph glyph-name="emdash" unicode="&#x2014;" horiz-adv-x="980" d="M918 235 L918 385 L62 385 L62 235 L918 235 Z " />
<glyph glyph-name="quoteleft" unicode="&#x2018;" horiz-adv-x="317" d="M163 832 C91 734 56 660 56 595 C56 524 96 494 158 494 C220 494 250 528 255 574 C223 593 217 616 217 644 C217 693 235 766 266 832 L163 832 Z " />
<glyph glyph-name="quoteright" unicode="&#x2019;" horiz-adv-x="307" d="M159 512 C231 610 266 684 266 749 C266 820 226 850 164 850 C102 850 72 816 67 770 C99 751 105 728 105 700 C105 651 87 578 56 512 L159 512 Z " />
<glyph glyph-name="quotesinglbase" unicode="&#x201a;" horiz-adv-x="313" d="M142 -140 C214 -42 249 32 249 97 C249 168 209 198 147 198 C85 198 55 164 50 118 C82 99 88 76 88 48 C88 -1 70 -74 39 -140 L142 -140 Z " />
<glyph glyph-name="quotedblleft" unicode="&#x201c;" horiz-adv-x="557" d="M163 832 C91 734 56 660 56 595 C56 524 96 494 158 494 C220 494 250 528 255 574 C223 593 217 616 217 644 C217 693 235 766 266 832 L163 832 Z M412 832 C340 734 305 660 305 595 C305 524 345 494 407 494 C469 494 499 528 504 574 C472 593 466 616 466 644 C466 693 484 766 515 832 L412 832 Z " />
<glyph glyph-name="quotedblright" unicode="&#x201d;" horiz-adv-x="547" d="M159 512 C231 610 266 684 266 749 C266 820 226 850 164 850 C102 850 72 816 67 770 C99 751 105 728 105 700 C105 651 87 578 56 512 L159 512 Z M412 512 C484 610 519 684 519 749 C519 820 479 850 417 850 C355 850 325 816 320 770 C352 751 358 728 358 700 C358 651 340 578 309 512 L412 512 Z " />
<glyph glyph-name="quotedblbase" unicode="&#x201e;" horiz-adv-x="553" d="M383 -140 C455 -42 490 32 490 97 C490 168 450 198 388 198 C326 198 296 164 291 118 C323 99 329 76 329 48 C329 -1 311 -74 280 -140 L383 -140 Z M142 -140 C214 -42 249 32 249 97 C249 168 209 198 147 198 C85 198 55 164 50 118 C82 99 88 76 88 48 C88 -1 70 -74 39 -140 L142 -140 Z " />
<glyph glyph-name="dagger" unicode="&#x2020;" horiz-adv-x="670" d="M37 432 L243 432 L231 298 L231 0 L431 0 L431 295 L418 432 L633 432 L633 600 L417 600 L431 800 L231 800 L245 600 L37 600 L37 432 Z " />
<glyph glyph-name="daggerdbl" unicode="&#x2021;" horiz-adv-x="700" d="M52 462 L266 462 L266 350 L52 350 L52 182 L259 182 L246 0 L446 0 L432 182 L648 182 L648 350 L426 350 L426 462 L648 462 L648 630 L433 630 L446 800 L246 800 L259 630 L52 630 L52 462 Z " />
<glyph glyph-name="bullet" unicode="&#x2022;" horiz-adv-x="430" d="M62 257 L368 257 L368 549 L62 549 L62 257 Z " />
<glyph glyph-name="ellipsis" unicode="&#x2026;" horiz-adv-x="931" d="M62 0 L271 0 L271 199 L62 199 L62 0 Z M361 0 L570 0 L570 199 L361 199 L361 0 Z M660 0 L869 0 L869 199 L660 199 L660 0 Z " />
<glyph glyph-name="perthousand" unicode="&#x2030;" horiz-adv-x="1455" d="M194 441 C194 497 208 522 247 522 C287 522 297 500 297 442 C297 387 282 360 246 360 C205 360 194 385 194 441 L194 441 Z M40 441 C40 328 102 253 246 253 C389 253 451 328 451 441 C451 554 389 629 246 629 C102 629 40 554 40 441 L40 441 Z M728 172 C728 228 742 253 781 253 C821 253 831 231 831 173 C831 118 816 91 780 91 C739 91 728 116 728 172 L728 172 Z M574 172 C574 59 636 -16 780 -16 C923 -16 985 59 985 172 C985 285 923 360 780 360 C636 360 574 285 574 172 L574 172 Z M263 0 L393 0 L771 628 L641 628 L263 0 Z M1162 172 C1162 228 1176 253 1215 253 C1255 253 1265 231 1265 173 C1265 118 1250 91 1214 91 C1173 91 1162 116 1162 172 L1162 172 Z M1008 172 C1008 59 1070 -16 1214 -16 C1357 -16 1419 59 1419 172 C1419 285 1357 360 1214 360 C1070 360 1008 285 1008 172 L1008 172 Z " />
<glyph glyph-name="guilsinglleft" unicode="&#x2039;" horiz-adv-x="376" d="M335 504 L164 504 L34 274 L160 40 L334 40 L234 274 L335 504 Z " />
<glyph glyph-name="guilsinglright" unicode="&#x203a;" horiz-adv-x="376" d="M142 274 L42 40 L216 40 L342 274 L212 504 L41 504 L142 274 Z " />
<glyph glyph-name="fraction" unicode="&#x2044;" horiz-adv-x="260" d="M-124 0 L16 0 L384 800 L244 800 L-124 0 Z " />
<glyph glyph-name="Euro" unicode="&#x20ac;" horiz-adv-x="807" d="M623 433 L623 543 L349 543 C389 607 460 638 549 638 C607 638 695 625 746 602 L755 779 C700 805 602 816 532 816 C329 816 181 708 126 543 L39 543 L39 433 L104 433 C103 420 103 408 103 395 C103 384 103 373 104 363 L39 363 L39 253 L124 253 C178 87 328 -16 524 -16 C615 -16 698 2 749 26 L746 201 C695 173 621 163 551 163 C464 163 394 192 353 253 L623 253 L623 363 L316 363 C314 375 314 387 314 401 C314 412 314 423 315 433 L623 433 Z " />
<glyph glyph-name="trademark" unicode="&#x2122;" horiz-adv-x="1353" d="M882 380 L978 380 L1103 541 L1107 541 L1107 240 L1257 240 L1257 800 L1107 800 L935 539 L931 539 L775 800 L625 800 L625 240 L775 240 L775 541 L779 541 L882 380 Z M558 657 L558 800 L57 800 L57 657 L232 657 L232 240 L383 240 L383 657 L558 657 Z " />
<glyph glyph-name="Omega" unicode="&#x2126;" horiz-adv-x="932" d="M865 438 C865 682 704 816 465 816 C225 816 65 666 65 437 C65 341 114 232 189 189 L189 186 L50 186 L50 0 L410 0 L410 186 C328 208 271 289 271 420 C271 581 349 648 465 648 C581 648 659 582 659 420 C659 306 604 208 522 186 L522 0 L882 0 L882 186 L723 186 L723 189 C819 241 865 350 865 438 L865 438 Z " />
<glyph glyph-name="partialdiff" unicode="&#x2202;" horiz-adv-x="664" d="M388 548 C369 550 349 551 328 551 C109 551 38 441 38 269 C38 99 109 -16 328 -16 C524 -16 618 100 618 269 C618 533 510 737 247 836 L160 728 C242 689 337 620 388 548 L388 548 Z M222 268 C222 367 251 406 327 406 C404 406 434 365 434 267 C434 177 402 133 329 133 C252 133 222 179 222 268 L222 268 Z " />
<glyph glyph-name="Delta" unicode="&#x2206;" horiz-adv-x="840" d="M35 150 L35 0 L804 0 L804 151 L533 800 L327 800 L35 150 Z M425 610 L428 610 L593 175 L229 175 L425 610 Z " />
<glyph glyph-name="product" unicode="&#x220f;" horiz-adv-x="901" d="M548 -200 L748 -200 L748 610 L863 610 L863 800 L39 800 L39 610 L147 610 L147 -200 L347 -200 L347 610 L548 610 L548 -200 Z " />
<glyph glyph-name="summation" unicode="&#x2211;" horiz-adv-x="686" d="M641 -200 L641 -10 L292 -10 L476 293 L292 610 L641 610 L641 800 L42 800 L42 659 L277 296 L42 -59 L42 -200 L641 -200 Z " />
<glyph glyph-name="minus" unicode="&#x2212;" horiz-adv-x="602" d="M538 245 L538 375 L64 375 L64 245 L538 245 Z " />
<glyph glyph-name="radical" unicode="&#x221a;" horiz-adv-x="824" d="M283 0 L507 0 L837 832 L641 832 L405 160 L401 160 L283 556 L21 556 L21 401 L153 401 L283 0 Z " />
<glyph glyph-name="infinity" unicode="&#x221e;" horiz-adv-x="856" d="M637 92 C736 92 802 205 802 298 C802 389 741 498 642 498 C559 498 491 426 425 357 C358 426 289 498 220 498 C127 498 55 396 55 291 C55 203 108 90 210 90 C292 90 360 151 421 213 C486 151 560 92 637 92 L637 92 Z M242 234 C225 234 189 244 189 293 C189 344 225 354 244 354 C273 354 309 323 350 284 C315 254 279 234 242 234 L242 234 Z M606 344 C644 344 658 315 658 293 C658 264 633 236 600 236 C567 236 533 257 497 288 C533 320 569 344 606 344 L606 344 Z " />
<glyph glyph-name="integral" unicode="&#x222b;" horiz-adv-x="523" d="M10 -200 C253 -200 366 -174 366 25 L366 546 C366 627 375 627 512 627 L512 800 C331 800 167 775 167 575 L167 56 C167 -29 137 -32 10 -32 L10 -200 Z " />
<glyph glyph-name="approxequal" unicode="&#x2248;" horiz-adv-x="680" d="M483 309 C548 309 582 332 617 364 L599 505 C575 481 525 460 474 460 C382 460 336 520 205 520 C151 520 89 487 63 468 L79 325 C97 335 143 370 200 370 C304 370 379 309 483 309 L483 309 Z M483 89 C548 89 582 112 617 144 L599 285 C575 261 525 240 474 240 C382 240 336 300 205 300 C151 300 89 267 63 248 L79 105 C97 115 143 150 200 150 C304 150 379 89 483 89 L483 89 Z " />
<glyph glyph-name="notequal" unicode="&#x2260;" horiz-adv-x="513" d="M52 23 L182 23 L227 115 L457 115 L457 245 L291 245 L351 365 L457 365 L457 495 L415 495 L460 586 L330 586 L285 495 L58 495 L58 365 L221 365 L161 245 L58 245 L58 115 L97 115 L52 23 Z " />
<glyph glyph-name="lessequal" unicode="&#x2264;" horiz-adv-x="554" d="M482 0 L482 310 L217 353 L482 426 L482 591 L49 427 L49 280 L478 150 L58 150 L58 0 L482 0 Z " />
<glyph glyph-name="greaterequal" unicode="&#x2265;" horiz-adv-x="554" d="M72 426 L337 353 L72 310 L72 0 L496 0 L496 150 L75 150 L505 280 L505 427 L72 591 L72 426 Z " />
<glyph glyph-name="lozenge" unicode="&#x25ca;" horiz-adv-x="751" d="M33 402 L256 0 L486 0 L718 400 L496 800 L265 800 L33 402 Z M505 399 L372 152 L246 403 L379 649 L505 399 Z " />
<glyph glyph-name="apple" unicode="&#xf8ff;" horiz-adv-x="1159" d="M439 408 L420 408 L420 437 L439 437 L439 408 Z M499 408 L480 408 L480 437 L499 437 L499 408 Z M679 428 L660 428 L660 437 L679 437 L679 428 Z M739 408 L720 408 L720 437 L739 437 L739 408 Z M859 428 L840 428 L840 437 L859 437 L859 428 Z M90 417 L90 428 L80 428 L80 438 L69 438 L69 428 L59 428 L59 417 L69 417 L69 407 L80 407 L80 417 L90 417 Z M130 398 L130 408 L119 408 L119 398 L130 398 Z M160 417 L160 428 L150 428 L150 438 L139 438 L139 428 L129 428 L129 417 L139 417 L139 407 L150 407 L150 417 L160 417 Z M130 437 L130 448 L119 448 L119 437 L130 437 Z M170 398 L170 408 L159 408 L159 398 L170 398 Z M170 437 L170 448 L159 448 L159 437 L170 437 Z M220 398 L220 408 L209 408 L209 398 L199 398 L199 388 L210 388 L210 398 L220 398 Z M250 417 L250 428 L240 428 L240 438 L229 438 L229 428 L219 428 L219 417 L229 417 L229 407 L240 407 L240 417 L250 417 Z M220 437 L220 448 L210 448 L210 458 L199 458 L199 447 L209 447 L209 437 L220 437 Z M270 388 L270 398 L260 398 L260 408 L249 408 L249 398 L259 398 L259 388 L270 388 Z M270 447 L270 458 L259 458 L259 448 L249 448 L249 437 L260 437 L260 447 L270 447 Z M330 398 L330 408 L310 408 L310 437 L330 437 L330 448 L310 448 L310 458 L299 458 L299 448 L289 448 L289 437 L299 437 L299 407 L309 407 L309 398 L330 398 Z M390 407 L390 448 L379 448 L379 408 L360 408 L360 448 L349 448 L349 407 L359 407 L359 389 L349 389 L349 378 L360 378 L360 388 L370 388 L370 398 L380 398 L380 407 L390 407 Z M450 407 L450 438 L440 438 L440 448 L409 448 L409 378 L420 378 L420 398 L440 398 L440 407 L450 407 Z M510 407 L510 438 L500 438 L500 448 L479 448 L479 438 L469 438 L469 407 L479 407 L479 398 L500 398 L500 407 L510 407 Z M570 398 L570 408 L550 408 L550 437 L570 437 L570 448 L550 448 L550 458 L539 458 L539 448 L529 448 L529 437 L539 437 L539 407 L549 407 L549 398 L570 398 Z M630 398 L630 438 L620 438 L620 448 L600 448 L600 468 L589 468 L589 398 L600 398 L600 437 L619 437 L619 398 L630 398 Z M690 398 L690 408 L660 408 L660 417 L690 417 L690 438 L680 438 L680 448 L659 448 L659 438 L649 438 L649 407 L659 407 L659 398 L690 398 Z M750 378 L750 448 L719 448 L719 438 L709 438 L709 407 L719 407 L719 398 L739 398 L739 378 L750 378 Z M810 398 L810 448 L799 448 L799 408 L780 408 L780 448 L769 448 L769 407 L779 407 L779 398 L810 398 Z M870 398 L870 408 L840 408 L840 417 L870 417 L870 438 L860 438 L860 448 L839 448 L839 438 L829 438 L829 407 L839 407 L839 398 L870 398 Z M910 398 L910 408 L899 408 L899 398 L889 398 L889 388 L900 388 L900 398 L910 398 Z M940 417 L940 428 L930 428 L930 438 L919 438 L919 428 L909 428 L909 417 L919 417 L919 407 L930 407 L930 417 L940 417 Z M910 437 L910 448 L900 448 L900 458 L889 458 L889 447 L899 447 L899 437 L910 437 Z M960 388 L960 398 L950 398 L950 408 L939 408 L939 398 L949 398 L949 388 L960 388 Z M960 447 L960 458 L949 458 L949 448 L939 448 L939 437 L950 437 L950 447 L960 447 Z M1000 398 L1000 408 L989 408 L989 398 L1000 398 Z M1030 417 L1030 428 L1020 428 L1020 438 L1009 438 L1009 428 L999 428 L999 417 L1009 417 L1009 407 L1020 407 L1020 417 L1030 417 Z M1000 437 L1000 448 L989 448 L989 437 L1000 437 Z M1040 398 L1040 408 L1029 408 L1029 398 L1040 398 Z M1040 437 L1040 448 L1029 448 L1029 437 L1040 437 Z M1100 417 L1100 428 L1090 428 L1090 438 L1079 438 L1079 428 L1069 428 L1069 417 L1079 417 L1079 407 L1090 407 L1090 417 L1100 417 Z " />
<glyph glyph-name="fi" unicode="&#xfb01;" horiz-adv-x="754" d="M30 395 L104 395 L104 0 L302 0 L302 395 L493 395 L493 0 L691 0 L691 556 L302 556 L302 612 C302 657 339 674 376 674 C406 674 430 671 452 662 L452 832 C411 843 380 849 327 849 C193 849 104 766 104 624 L104 556 L30 556 L30 395 Z M493 637 L691 637 L691 816 L493 816 L493 637 Z " />
<glyph glyph-name="fl" unicode="&#xfb02;" horiz-adv-x="749" d="M483 0 L680 0 L680 832 L538 832 C499 841 447 849 378 849 C189 849 104 766 104 624 L104 556 L30 556 L30 395 L104 395 L104 0 L302 0 L302 395 L433 395 L433 556 L302 556 L302 612 C302 657 330 674 397 674 C418 674 455 671 483 666 L483 0 Z " />
</font>
</svg>
